<svg width="292" height="53" viewBox="0 0 292 53" fill="none" xmlns="http://www.w3.org/2000/svg">
<path d="M289.024 10.9739C289.42 10.4441 289.495 9.81127 289.481 9.36177C289.445 8.21621 288.831 6.8908 287.799 5.71476C285.651 3.26838 281.432 1.11401 274.538 1.5588C267.717 1.99889 263.927 4.35449 262.215 6.85451C261.388 8.06149 261.001 9.3904 261.192 10.5141C261.258 10.9063 261.415 11.3614 261.73 11.7468C261.688 11.7824 261.647 11.8186 261.609 11.8554C260.578 12.8341 260.348 14.1905 260.726 15.448C261.087 16.6503 261.981 17.7544 263.196 18.6446C265.647 20.441 269.717 21.6198 275.242 21.1446C280.703 20.6748 284.689 19.144 287.068 17.2854C288.246 16.3643 289.136 15.2777 289.5 14.0967C289.834 13.0129 289.701 11.8877 289.024 10.9739ZM138.33 17.7541C138.299 17.8038 138.268 17.8536 138.237 17.9036C137.667 18.8244 137.146 19.7278 136.671 20.6133C136.554 20.2319 136.365 19.8972 136.232 19.661C136.223 19.6443 136.214 19.6281 136.205 19.6123C136.144 19.5036 136.084 19.3967 136.02 19.2772L134.698 19.9855L136.02 19.2771C135.764 18.7984 135.041 17.6595 134.035 16.2612C134.578 16.6324 135.078 16.9563 135.503 17.2107C135.758 17.3632 135.999 17.4988 136.214 17.6068C136.399 17.6997 136.666 17.8248 136.939 17.8891C137.481 18.0164 137.948 17.9272 138.33 17.7541ZM143.112 11.2533C143.098 10.7128 142.852 10.2465 142.663 9.97999C142.329 9.51096 141.836 9.10644 141.356 8.7732C140.36 8.08223 138.943 7.37433 137.409 6.75899C135.861 6.13831 134.122 5.58294 132.453 5.22209C130.812 4.86721 129.119 4.67371 127.711 4.86639C126.926 4.9739 125.857 5.35813 125.501 6.50947C125.386 6.8833 125.379 7.24936 125.433 7.5883C124.964 7.34788 124.491 7.1593 124.019 7.03919C123.042 6.79026 121.962 6.80896 120.966 7.38627C119.995 7.94924 119.33 8.91361 118.886 10.0923C118.181 11.9617 117.869 14.5175 117.941 17.2613C118.014 20.0288 118.479 23.1001 119.417 26.0409C120.722 30.1336 122.473 34.0337 124.252 37.0365C125.141 38.5359 126.056 39.8452 126.949 40.851C127.801 41.8096 128.789 42.6746 129.856 43.0008C130.173 43.0978 130.57 43.2067 130.957 43.2193C131.396 43.2337 132.101 43.1234 132.576 42.4622C132.934 41.9638 132.955 41.3975 132.96 41.1624C132.967 40.8813 132.945 40.5487 132.926 40.2461L132.923 40.2014L132.921 40.1727C132.915 40.0863 132.909 39.9953 132.903 39.8995C133.052 40.5467 133.232 41.1563 133.436 41.7271C134.33 44.2259 135.739 46.0802 137.203 46.9385C137.912 47.3541 138.903 47.6808 139.888 47.3033C140.023 47.2516 140.148 47.1906 140.264 47.1216C140.277 47.1813 140.292 47.2403 140.308 47.2986C140.841 49.2568 142.317 50.5025 144.267 50.8817C146.123 51.2426 148.343 50.8221 150.675 49.7673C155.365 47.6459 161.04 42.7282 166.404 34.458C171.802 26.1343 173.334 18.8711 172.679 13.7677C172.354 11.2304 171.47 9.12105 170.125 7.74673C168.734 6.32554 166.844 5.71711 164.902 6.37819C164.423 6.54097 163.902 6.8282 163.362 7.195C163.39 7.0063 163.397 6.81025 163.381 6.60777C163.305 5.64903 162.732 4.89235 162.086 4.37992C160.789 3.35289 158.698 2.85911 156.286 3.13822C152.601 3.56484 147.932 5.792 143.112 11.2533ZM139.008 14.8424L139.007 14.8435L140.794 12.4282C140.348 12.9624 139.838 13.5729 139.411 14.2133C139.271 14.4245 139.137 14.637 139.008 14.8424ZM29.4466 11.7468C29.7617 11.3614 29.9184 10.9063 29.9849 10.5141C30.1755 9.3904 29.7885 8.06149 28.9619 6.85451C27.25 4.35449 23.4592 1.99889 16.6385 1.5588C9.74498 1.11401 5.52542 3.26838 3.37783 5.71475C2.34541 6.8908 1.73145 8.21621 1.69587 9.36177C1.68191 9.81127 1.75691 10.4441 2.15296 10.9739C1.47596 11.8877 1.34231 13.0129 1.67651 14.0967C2.04066 15.2777 2.93004 16.3643 4.10886 17.2854C6.48747 19.144 10.4732 20.6748 15.934 21.1446C21.4592 21.6198 25.53 20.441 27.9809 18.6446C29.1955 17.7544 30.0897 16.6503 30.4509 15.448C30.8288 14.1905 30.5981 12.8341 29.5679 11.8554C29.5291 11.8186 29.4886 11.7824 29.4466 11.7468ZM221.59 28.4296C227.323 24.3298 230.693 20.0536 232.086 16.5169C232.777 14.7612 233.03 13.0607 232.691 11.6236C232.357 10.2075 231.445 9.09385 230.045 8.63672C230.27 7.79721 229.955 7.01342 229.627 6.49189C228.908 5.3504 227.456 4.32665 225.595 3.71764C221.754 2.46058 215.782 2.80243 208.479 7.79292C201.236 12.7428 198.666 17.762 198.406 21.4959C198.28 23.3107 198.706 24.922 199.559 25.9368C199.939 26.3877 200.503 26.8273 201.226 26.9439C201.126 27.1552 201.044 27.3627 200.987 27.5633C200.533 29.1468 201.087 30.6455 202.231 31.705C203.333 32.7246 204.953 33.3403 206.827 33.5237C210.601 33.8931 215.805 32.5663 221.59 28.4296ZM90.1899 27.375C90.1324 27.1744 90.0507 26.967 89.9501 26.7556C90.6737 26.639 91.2377 26.1994 91.6171 25.7485C92.4708 24.7337 92.8964 23.1224 92.7703 21.3076C92.5108 17.5737 89.9406 12.5545 82.6973 7.60464C75.3944 2.61415 69.4225 2.2723 65.5817 3.52935C63.7209 4.13837 62.2686 5.16211 61.5498 6.3036C61.2214 6.82514 60.9069 7.60893 61.1315 8.44845C59.7316 8.90559 58.8193 10.0192 58.4856 11.4353C58.1469 12.8725 58.399 14.5729 59.0904 16.3286C60.4833 19.8653 63.8531 24.1416 69.5863 28.2413C75.3713 32.3781 80.575 33.7048 84.3494 33.3354C86.2234 33.152 87.8439 32.5363 88.945 31.5167C90.0892 30.4572 90.6439 28.9586 90.1899 27.375Z" stroke="#FFE8CF" stroke-width="3"/>
</svg>
