<svg width="29" height="34" viewBox="0 0 29 34" fill="none" xmlns="http://www.w3.org/2000/svg">
<mask id="path-1-inside-1_44_1464" fill="white">
<path fill-rule="evenodd" clip-rule="evenodd" d="M8.29142 0.389601C14.3437 -1.12205 21.7164 2.88269 25.7666 10.305C29.8185 17.73 29.1947 26.1006 24.644 30.3709C24.3806 30.6178 24.1042 30.8511 23.815 31.0698C23.4238 31.3657 23.0088 31.6346 22.5701 31.874C22.1498 32.1034 21.7194 32.2998 21.279 32.4648C20.0507 32.925 18.7514 33.1385 17.425 33.1238C17.2613 33.122 17.0973 33.1168 16.9328 33.108C11.6657 32.83 6.04576 29.0305 2.69701 22.8938C0.0418907 18.0282 -0.604487 12.7569 0.545098 8.49918L0.5746 8.39073C0.596312 8.31137 0.618535 8.23233 0.641907 8.15377C0.982913 7.00508 1.45802 5.93528 2.06251 4.97293C3.02065 3.44681 4.30472 2.19134 5.89735 1.32219C6.66276 0.90451 7.46483 0.5962 8.29142 0.389601Z"/>
</mask>
<path fill-rule="evenodd" clip-rule="evenodd" d="M8.29142 0.389601C14.3437 -1.12205 21.7164 2.88269 25.7666 10.305C29.8185 17.73 29.1947 26.1006 24.644 30.3709C24.3806 30.6178 24.1042 30.8511 23.815 31.0698C23.4238 31.3657 23.0088 31.6346 22.5701 31.874C22.1498 32.1034 21.7194 32.2998 21.279 32.4648C20.0507 32.925 18.7514 33.1385 17.425 33.1238C17.2613 33.122 17.0973 33.1168 16.9328 33.108C11.6657 32.83 6.04576 29.0305 2.69701 22.8938C0.0418907 18.0282 -0.604487 12.7569 0.545098 8.49918L0.5746 8.39073C0.596312 8.31137 0.618535 8.23233 0.641907 8.15377C0.982913 7.00508 1.45802 5.93528 2.06251 4.97293C3.02065 3.44681 4.30472 2.19134 5.89735 1.32219C6.66276 0.90451 7.46483 0.5962 8.29142 0.389601Z" fill="#BE7216"/>
<path d="M25.7666 10.305L22.2554 12.221L22.2554 12.2211L25.7666 10.305ZM8.29142 0.389601L7.32213 -3.49118L7.32149 -3.49102L8.29142 0.389601ZM24.644 30.3709L27.3802 33.2886L27.3811 33.2877L24.644 30.3709ZM23.815 31.0698L21.4025 27.8793L21.4024 27.8793L23.815 31.0698ZM22.5701 31.874L20.6542 28.3627L20.6539 28.3628L22.5701 31.874ZM21.279 32.4648L22.6823 36.2105L22.6824 36.2105L21.279 32.4648ZM17.425 33.1238L17.4691 29.1241L17.4691 29.1241L17.425 33.1238ZM16.9328 33.108L17.1444 29.1136L17.1436 29.1136L16.9328 33.108ZM2.69701 22.8938L6.20824 20.9777L6.20823 20.9777L2.69701 22.8938ZM0.545098 8.49918L-3.31463 7.44916L-3.31662 7.45653L0.545098 8.49918ZM0.5746 8.39073L-3.28362 7.33518L-3.28512 7.34071L0.5746 8.39073ZM0.641907 8.15377L4.47584 9.29436L4.47651 9.29213L0.641907 8.15377ZM2.06251 4.97293L5.44972 7.10056L5.4502 7.0998L2.06251 4.97293ZM5.89735 1.32219L3.98128 -2.18903L3.9812 -2.18898L5.89735 1.32219ZM29.2779 8.38897C24.6892 -0.02009 15.7368 -5.59289 7.32213 -3.49118L9.2607 4.27038C12.9505 3.34879 18.7436 5.78548 22.2554 12.221L29.2779 8.38897ZM27.3811 33.2877C33.7087 27.35 33.8682 16.8008 29.2778 8.3889L22.2554 12.2211C25.7687 18.6592 24.6806 24.8511 21.9069 27.454L27.3811 33.2877ZM26.2275 34.2604C26.6306 33.9556 27.0149 33.6312 27.3802 33.2886L21.9077 27.4532C21.7464 27.6045 21.5779 27.7466 21.4025 27.8793L26.2275 34.2604ZM24.486 35.3853C25.1002 35.0502 25.681 34.6736 26.2275 34.2604L21.4024 27.8793C21.1665 28.0577 20.9174 28.2191 20.6542 28.3627L24.486 35.3853ZM22.6824 36.2105C23.2983 35.9798 23.9001 35.7051 24.4863 35.3852L20.6539 28.3628C20.3995 28.5017 20.1405 28.6198 19.8756 28.7191L22.6824 36.2105ZM17.3809 37.1236C19.1682 37.1433 20.9615 36.8553 22.6823 36.2105L19.8757 28.719C19.14 28.9947 18.3345 29.1336 17.4691 29.1241L17.3809 37.1236ZM16.7211 37.1024C16.9409 37.1141 17.1608 37.1212 17.3809 37.1236L17.4691 29.1241C17.3618 29.1229 17.2536 29.1194 17.1444 29.1136L16.7211 37.1024ZM-0.814225 24.8098C3.03842 31.87 9.76306 36.7351 16.7219 37.1025L17.1436 29.1136C13.5684 28.9249 9.0531 26.191 6.20824 20.9777L-0.814225 24.8098ZM-3.31662 7.45653C-4.76881 12.8351 -3.89644 19.1616 -0.81421 24.8098L6.20823 20.9777C3.98022 16.8949 3.55983 12.6788 4.40682 9.54184L-3.31662 7.45653ZM-3.28512 7.34071L-3.31463 7.44916L4.40482 9.5492L4.43432 9.44075L-3.28512 7.34071ZM-3.19203 7.01318C-3.2266 7.12939 -3.25723 7.23874 -3.28361 7.33518L4.43281 9.44628C4.44985 9.384 4.46367 9.33527 4.47584 9.29436L-3.19203 7.01318ZM-1.3247 2.84531C-2.13721 4.13883 -2.75634 5.54554 -3.19269 7.01541L4.47651 9.29213C4.72216 8.46462 5.05325 7.73174 5.44972 7.10056L-1.3247 2.84531ZM3.9812 -2.18898C1.7434 -0.967747 -0.0308632 0.784468 -1.32518 2.84607L5.4502 7.0998C6.07215 6.10914 6.86604 5.35043 7.81351 4.83337L3.9812 -2.18898ZM7.32149 -3.49102C6.17505 -3.20448 5.05396 -2.77439 3.98128 -2.18903L7.81342 4.83341C8.27157 4.58341 8.75461 4.39688 9.26135 4.27022L7.32149 -3.49102Z" fill="#A35D0D" mask="url(#path-1-inside-1_44_1464)"/>
</svg>
