<svg width="29" height="34" viewBox="0 0 29 34" fill="none" xmlns="http://www.w3.org/2000/svg">
<mask id="path-1-inside-1_44_1464" fill="white">
<path fill-rule="evenodd" clip-rule="evenodd" d="M8.29141 0.389607C14.3437 -1.12204 21.7164 2.8827 25.7666 10.305C29.8184 17.73 29.1947 26.1006 24.644 30.3709C24.3806 30.6178 24.1042 30.8511 23.815 31.0699C23.4238 31.3657 23.0088 31.6346 22.5701 31.874C22.1498 32.1034 21.7194 32.2998 21.279 32.4648C20.0507 32.925 18.7513 33.1385 17.425 33.1238C17.2613 33.122 17.0973 33.1168 16.9328 33.108C11.6657 32.83 6.04576 29.0305 2.69701 22.8938C0.0418868 18.0283 -0.604491 12.757 0.545094 8.49919L0.574596 8.39074C0.596308 8.31138 0.618531 8.23234 0.641904 8.15378C0.982909 7.00508 1.45802 5.93529 2.06251 4.97294C3.02064 3.44681 4.30471 2.19135 5.89735 1.3222C6.66276 0.904516 7.46483 0.596206 8.29141 0.389607Z"/>
</mask>
<path d="M25.7666 10.305L22.2554 12.221L22.2554 12.2211L25.7666 10.305ZM8.29141 0.389607L7.32213 -3.49118L7.32148 -3.49102L8.29141 0.389607ZM24.644 30.3709L27.3802 33.2886L27.3811 33.2877L24.644 30.3709ZM23.815 31.0699L21.4025 27.8793L21.4024 27.8793L23.815 31.0699ZM22.5701 31.874L20.6542 28.3627L20.6539 28.3629L22.5701 31.874ZM21.279 32.4648L22.6823 36.2105L22.6824 36.2105L21.279 32.4648ZM17.425 33.1238L17.4691 29.1241L17.4691 29.1241L17.425 33.1238ZM16.9328 33.108L17.1444 29.1137L17.1436 29.1136L16.9328 33.108ZM2.69701 22.8938L6.20824 20.9777L6.20822 20.9777L2.69701 22.8938ZM0.545094 8.49919L-3.31464 7.44917L-3.31663 7.45653L0.545094 8.49919ZM0.574596 8.39074L-3.28362 7.33519L-3.28513 7.34072L0.574596 8.39074ZM0.641904 8.15378L4.47584 9.29437L4.4765 9.29213L0.641904 8.15378ZM2.06251 4.97294L5.44972 7.10057L5.45019 7.09981L2.06251 4.97294ZM5.89735 1.3222L3.98128 -2.18902L3.9812 -2.18898L5.89735 1.3222ZM29.2779 8.38897C24.6892 -0.020084 15.7368 -5.59288 7.32213 -3.49118L9.2607 4.27039C12.9505 3.3488 18.7436 5.78548 22.2554 12.221L29.2779 8.38897ZM27.3811 33.2877C33.7087 27.35 33.8682 16.8008 29.2778 8.38891L22.2554 12.2211C25.7687 18.6592 24.6806 24.8512 21.9068 27.454L27.3811 33.2877ZM26.2275 34.2604C26.6305 33.9557 27.0149 33.6312 27.3802 33.2886L21.9077 27.4532C21.7463 27.6045 21.5779 27.7466 21.4025 27.8793L26.2275 34.2604ZM24.486 35.3853C25.1002 35.0502 25.681 34.6736 26.2275 34.2604L21.4024 27.8793C21.1665 28.0577 20.9174 28.2191 20.6542 28.3627L24.486 35.3853ZM22.6824 36.2105C23.2983 35.9798 23.9001 35.7051 24.4863 35.3852L20.6539 28.3629C20.3995 28.5017 20.1405 28.6198 19.8756 28.7191L22.6824 36.2105ZM17.3809 37.1236C19.1682 37.1433 20.9615 36.8553 22.6823 36.2105L19.8757 28.719C19.14 28.9947 18.3345 29.1336 17.4691 29.1241L17.3809 37.1236ZM16.7211 37.1024C16.9409 37.1141 17.1608 37.1212 17.3809 37.1236L17.4691 29.1241C17.3618 29.1229 17.2536 29.1194 17.1444 29.1137L16.7211 37.1024ZM-0.814229 24.8098C3.03842 31.87 9.76306 36.7351 16.7219 37.1025L17.1436 29.1136C13.5684 28.9249 9.0531 26.1911 6.20824 20.9777L-0.814229 24.8098ZM-3.31663 7.45653C-4.76881 12.8351 -3.89644 19.1616 -0.814214 24.8098L6.20822 20.9777C3.98022 16.8949 3.55983 12.6788 4.40681 9.54184L-3.31663 7.45653ZM-3.28513 7.34072L-3.31463 7.44917L4.40482 9.54921L4.43432 9.44076L-3.28513 7.34072ZM-3.19203 7.01319C-3.2266 7.1294 -3.25723 7.23875 -3.28362 7.33519L4.43281 9.44629C4.44985 9.38401 4.46367 9.33528 4.47584 9.29436L-3.19203 7.01319ZM-1.32471 2.84531C-2.13721 4.13883 -2.75634 5.54554 -3.19269 7.01542L4.4765 9.29213C4.72216 8.46462 5.05325 7.73175 5.44972 7.10057L-1.32471 2.84531ZM3.9812 -2.18898C1.74339 -0.967741 -0.0308671 0.784474 -1.32518 2.84607L5.45019 7.09981C6.07215 6.10915 6.86603 5.35044 7.8135 4.83338L3.9812 -2.18898ZM7.32148 -3.49102C6.17504 -3.20447 5.05396 -2.77438 3.98128 -2.18902L7.81342 4.83342C8.27157 4.58341 8.75461 4.39688 9.26134 4.27023L7.32148 -3.49102Z" fill="#A35D0D" mask="url(#path-1-inside-1_44_1464)"/>
</svg>
