<svg width="82" height="82" viewBox="0 0 82 82" fill="none" xmlns="http://www.w3.org/2000/svg">
<path d="M0 20C0 8.95431 8.95431 0 20 0H62C73.0457 0 82 8.95431 82 20V62C82 73.0457 73.0457 82 62 82H20C8.95431 82 0 73.0457 0 62V20Z" fill="#FCD7AD"/>
<path d="M56.2478 2H40.0406C39.2599 2 38.6514 2.66846 38.7163 3.44635C38.7376 3.70116 38.7486 3.9588 38.7486 4.21909C38.7486 7.70058 36.8335 10.7333 34.0002 12.3254C33.6241 12.5366 33.3758 12.9238 33.3414 13.3538C32.9367 18.3984 28.7163 22.3663 23.5675 22.3663C23.1617 22.3663 22.7617 22.3412 22.369 22.2927C21.575 22.1945 20.8748 22.8116 20.8748 23.6116V72.3985C20.8748 73.778 21.9931 74.8964 23.3726 74.8964H56.2478C57.6273 74.8964 58.7457 73.778 58.7457 72.3985V4.49785C58.7457 3.11836 57.6273 2 56.2478 2Z" fill="#BF6C0D"/>
<path d="M57.4129 3.49689H41.2056C40.4249 3.49689 39.8165 4.16534 39.8813 4.94324C39.9026 5.19805 39.9136 5.45568 39.9136 5.71598C39.9136 9.19747 37.9986 12.2302 35.1652 13.8223C34.7892 14.0335 34.5409 14.4207 34.5064 14.8506C34.1018 19.8952 29.8813 23.8632 24.7326 23.8632C24.3267 23.8632 23.9267 23.8381 23.534 23.7896C22.74 23.6914 22.0398 24.3085 22.0398 25.1085V73.8954C22.0398 75.2749 23.1582 76.3933 24.5376 76.3933H57.4129C58.7924 76.3933 59.9107 75.2749 59.9107 73.8954V5.99474C59.9107 4.61525 58.7924 3.49689 57.4129 3.49689Z" fill="#A56021"/>
<path d="M28.9274 73.8954V25.1085C28.9274 24.3085 29.6278 23.6914 30.4216 23.7896C30.8143 23.8381 31.2142 23.8632 31.6201 23.8632C36.7689 23.8632 40.9893 19.8952 41.394 14.8506C41.4286 14.4207 41.6767 14.0337 42.0528 13.8223C44.8861 12.2301 46.8012 9.1973 46.8012 5.71598C46.8012 5.45568 46.7902 5.19805 46.7689 4.94324C46.7039 4.16518 47.3125 3.49689 48.0932 3.49689H41.4402C40.6595 3.49689 40.0511 4.16534 40.116 4.94324C40.1373 5.19805 40.1482 5.45568 40.1482 5.71598C40.1482 9.19747 38.2332 12.2302 35.3999 13.8223C35.0238 14.0337 34.7756 14.4207 34.741 14.8506C34.3364 19.8952 30.1159 23.8632 24.9672 23.8632C24.5614 23.8632 24.1615 23.8381 23.7687 23.7896C22.9748 23.6914 22.2744 24.3085 22.2744 25.1085V73.8954C22.2744 75.2749 23.3928 76.3934 24.7723 76.3934H31.4252C30.0457 76.3933 28.9274 75.2749 28.9274 73.8954Z" fill="#8C4C17"/>
<path d="M48.5435 13.9956V8.13516C48.5435 7.40034 49.1392 6.80457 49.874 6.80457H55.7345C56.4693 6.80457 57.0651 7.40034 57.0651 8.13516V13.9956C57.0651 14.7304 56.4693 15.3262 55.7345 15.3262H49.874C49.1392 15.3262 48.5435 14.7304 48.5435 13.9956Z" fill="#BF6C0D"/>
<path d="M48.5435 25.3625V19.5021C48.5435 18.7673 49.1392 18.1715 49.874 18.1715H55.7345C56.4693 18.1715 57.0651 18.7673 57.0651 19.5021V25.3625C57.0651 26.0973 56.4693 26.6931 55.7345 26.6931H49.874C49.1392 26.6931 48.5435 26.0975 48.5435 25.3625Z" fill="#BF6C0D"/>
<path d="M36.7139 37.1917V31.3313C36.7139 30.5965 37.3096 30.0007 38.0445 30.0007H43.9049C44.6397 30.0007 45.2355 30.5965 45.2355 31.3313V37.1917C45.2355 37.9266 44.6397 38.5223 43.9049 38.5223H38.0445C37.3096 38.5223 36.7139 37.9266 36.7139 37.1917Z" fill="#BF6C0D"/>
<path d="M48.5435 37.1917V31.3313C48.5435 30.5965 49.1392 30.0007 49.874 30.0007H55.7345C56.4693 30.0007 57.0651 30.5965 57.0651 31.3313V37.1917C57.0651 37.9266 56.4693 38.5223 55.7345 38.5223H49.874C49.1392 38.5223 48.5435 37.9266 48.5435 37.1917Z" fill="#BF6C0D"/>
<path d="M37.2859 25.3626V20.0741C37.2859 19.3393 37.8817 18.7435 38.6165 18.7435H43.9051C44.6399 18.7435 45.2357 19.3393 45.2357 20.0741V25.3627C45.2357 26.0975 44.6399 26.6933 43.9051 26.6933H38.6165C37.8817 26.6931 37.2859 26.0975 37.2859 25.3626Z" fill="#BF6C0D"/>
<path d="M25.3477 37.1917V31.3313C25.3477 30.5965 25.9434 30.0007 26.6782 30.0007H32.5387C33.2735 30.0007 33.8693 30.5965 33.8693 31.3313V37.1917C33.8693 37.9266 33.2735 38.5223 32.5387 38.5223H26.6782C25.9434 38.5223 25.3477 37.9266 25.3477 37.1917Z" fill="#BF6C0D"/>
<path d="M25.3477 48.5588V42.6984C25.3477 41.9636 25.9434 41.3678 26.6782 41.3678H32.5387C33.2735 41.3678 33.8693 41.9636 33.8693 42.6984V48.5588C33.8693 49.2936 33.2735 49.8894 32.5387 49.8894H26.6782C25.9434 49.8894 25.3477 49.2936 25.3477 48.5588Z" fill="#BF6C0D"/>
<path d="M43.9042 6.80457H39.85C39.5748 9.16287 38.4168 11.2511 36.7148 12.7305V13.9939C36.7148 14.7296 37.3113 15.3262 38.0471 15.3262H43.9044C44.6402 15.3262 45.2366 14.7297 45.2366 13.9939V8.13682C45.2363 7.401 44.6398 6.80457 43.9042 6.80457Z" fill="#BF6C0D"/>
<path d="M26.6799 26.6933H32.537C33.2728 26.6933 33.8693 26.0969 33.8693 25.3611V19.504C33.8693 19.1236 33.7091 18.7813 33.4534 18.5386C31.9143 21.528 28.8864 23.623 25.3477 23.8422V25.3611C25.3477 26.0967 25.9441 26.6933 26.6799 26.6933Z" fill="#BF6C0D"/>
<path d="M19.6374 48.7674L61.1559 26.3067C61.9661 25.8685 62.9504 26.4551 62.9504 27.3762V77.1534C62.9504 78.4125 61.9297 79.4332 60.6706 79.4332H21.2798C20.0207 79.4332 19 78.4125 19 77.1534V49.8367C19 49.3903 19.2447 48.9798 19.6374 48.7674Z" fill="#FF624B"/>
<path d="M41.0001 71.1068C48.5999 71.1068 54.7609 68.1245 54.7609 64.4456C54.7609 60.7668 48.5999 57.7845 41.0001 57.7845C33.4002 57.7845 27.2393 60.7668 27.2393 64.4456C27.2393 68.1245 33.4002 71.1068 41.0001 71.1068Z" fill="#FFD59A"/>
<path d="M59.4306 76.3655C58.8795 76.3655 58.4326 75.9186 58.4326 75.3676V61.2229C58.4326 60.6719 58.8795 60.225 59.4306 60.225C59.9816 60.225 60.4285 60.6719 60.4285 61.2229V75.3676C60.4285 75.9188 59.9816 76.3655 59.4306 76.3655Z" fill="#FF9079"/>
<path d="M25.653 77.1532V49.8367C25.653 49.3901 25.8976 48.9796 26.2903 48.7672L62.9504 28.935V27.376C62.9504 26.4549 61.9661 25.8683 61.1559 26.3065L19.6374 48.7672C19.2447 48.9796 19 49.3903 19 49.8367V77.1532C19 78.4123 20.0207 79.433 21.2798 79.433H27.9328C26.6737 79.433 25.653 78.4123 25.653 77.1532Z" fill="#FF4B34"/>
<path d="M63 27.375V31.5651L19 55.3412V49.8371C19 49.3905 19.2448 48.9797 19.6379 48.7674L61.206 26.3052C62.0162 25.8675 63 26.4541 63 27.375Z" fill="#FFD59A"/>
<path d="M63.0002 31.4153L36.8367 45.7416L55.9626 52.1393C56.7982 52.4189 57.6957 51.9314 57.9162 51.0783L63.0002 31.4153Z" fill="#FF4B34"/>
<path d="M63.0002 25.3359L36.8367 39.6622L55.9626 46.0598C56.7982 46.3394 57.6957 45.8519 57.9162 44.9988L63.0002 25.3359Z" fill="#FFEACF"/>
<path d="M59.4306 59.317C58.8795 59.317 58.4326 58.8701 58.4326 58.3191V54.7431C58.4326 54.1919 58.8795 53.7452 59.4306 53.7452C59.9816 53.7452 60.4285 54.1919 60.4285 54.7431V58.3191C60.4285 58.8703 59.9816 59.317 59.4306 59.317Z" fill="#FF9079"/>
<path d="M30.9851 57.238C32.363 57.238 33.4799 56.121 33.4799 54.7431C33.4799 53.3653 32.363 52.2483 30.9851 52.2483C29.6072 52.2483 28.4902 53.3653 28.4902 54.7431C28.4902 56.121 29.6072 57.238 30.9851 57.238Z" fill="#FF4B34"/>
<path d="M37.6782 52.3843C39.0561 52.3843 40.1731 51.2673 40.1731 49.8894C40.1731 48.5116 39.0561 47.3946 37.6782 47.3946C36.3003 47.3946 35.1833 48.5116 35.1833 49.8894C35.1833 51.2673 36.3003 52.3843 37.6782 52.3843Z" fill="#FF4B34"/>
<path d="M33.8693 19.5039C33.8693 19.1235 33.7091 18.7814 33.4536 18.5387C32.8294 19.7512 31.9604 20.816 30.911 21.6689C30.907 21.6721 30.903 21.6754 30.899 21.6786C30.6629 21.87 30.4177 22.0505 30.1641 22.2196C30.1557 22.2251 30.1476 22.2306 30.1393 22.2362C29.886 22.4041 29.6245 22.5604 29.3556 22.7044C29.3489 22.7079 29.3426 22.7116 29.3359 22.7151C29.2468 22.7627 29.1568 22.8087 29.0658 22.8536C29.0603 22.8563 29.0548 22.859 29.0494 22.8616C28.7764 22.9957 28.4965 23.1173 28.2101 23.226C28.1936 23.2322 28.1773 23.2383 28.1609 23.2443C27.8831 23.3481 27.5997 23.4394 27.3106 23.5179C27.2902 23.5236 27.2699 23.5291 27.2492 23.5346C26.9603 23.6111 26.6663 23.6746 26.3676 23.7247C26.3481 23.728 26.3288 23.7315 26.3095 23.7347C26.2119 23.7505 26.1137 23.7649 26.0151 23.7777C26.0008 23.7796 25.9865 23.7812 25.9722 23.7829C25.7733 23.808 25.5725 23.8273 25.3701 23.8403C25.3626 23.8408 25.3551 23.8416 25.3477 23.8421V25.361C25.3477 26.0966 25.9441 26.6932 26.6799 26.6932H28.6931V25.1087C28.6931 24.3086 29.3935 23.6916 30.1873 23.7897C30.58 23.8383 30.9799 23.8634 31.3859 23.8634C32.2443 23.8634 33.0761 23.7508 33.8694 23.5437V19.5039H33.8693Z" fill="#A56021"/>
<path d="M45.2355 8.13682C45.2355 7.401 44.639 6.80457 43.9032 6.80457H39.8491C39.8482 6.81205 39.8467 6.81937 39.8459 6.82685C39.8294 6.96474 39.8103 7.10179 39.788 7.23784C39.7875 7.2405 39.7872 7.24316 39.7869 7.24582C39.7401 7.52741 39.6804 7.8045 39.6091 8.07711C39.6054 8.09108 39.6017 8.10505 39.5981 8.11902C39.5266 8.3868 39.4434 8.64993 39.3491 8.90773C39.3436 8.9227 39.338 8.93767 39.3323 8.95264C39.2881 9.07139 39.2418 9.18915 39.1929 9.30574C39.1889 9.31556 39.1849 9.32537 39.1809 9.33501C39.1272 9.46192 39.0708 9.58749 39.0118 9.71141C39.0086 9.71806 39.0051 9.72471 39.002 9.73137C38.9481 9.84347 38.8919 9.95407 38.8337 10.0637C38.8227 10.0843 38.8119 10.1048 38.8009 10.1252C38.6758 10.3567 38.5413 10.5824 38.3977 10.8015C38.3836 10.8231 38.3691 10.8444 38.3547 10.866C38.2934 10.9577 38.2307 11.0482 38.1665 11.1375C38.1532 11.1561 38.1401 11.1749 38.1266 11.1934C38.0503 11.2978 37.9719 11.4008 37.8914 11.5017C37.8803 11.5157 37.8687 11.5295 37.8573 11.5435C37.788 11.6295 37.717 11.7141 37.6446 11.7974C37.6237 11.8216 37.6029 11.8457 37.5816 11.8696C37.5021 11.9594 37.4214 12.0479 37.3386 12.1346C37.3334 12.1401 37.3284 12.1457 37.3231 12.1512C37.2351 12.2429 37.1446 12.3322 37.053 12.4202C37.0299 12.4423 37.0064 12.4641 36.9831 12.486C36.909 12.5557 36.8338 12.6242 36.7573 12.6914C36.7426 12.7044 36.7287 12.718 36.7139 12.7308V13.9942C36.7139 14.7299 37.3103 15.3265 38.0461 15.3265H41.109C41.1293 15.1692 41.1461 15.0106 41.1589 14.851C41.1935 14.421 41.4416 14.034 41.8177 13.8226C43.2239 13.0324 44.4035 11.8869 45.2355 10.5083V8.13682Z" fill="#A56021"/>
<path d="M54.8812 16.9503H50.8271C50.5518 19.3086 49.3939 21.3968 47.6919 22.8763V24.1397C47.6919 24.8753 48.2883 25.4719 49.0241 25.4719H54.8814C55.6172 25.4719 56.2137 24.8755 56.2137 24.1397V18.2826C56.2133 17.5468 55.6169 16.9503 54.8812 16.9503Z" fill="#BF6C0D"/>
<path d="M39.9991 18.7435H38.6165C37.8817 18.7435 37.2859 19.3393 37.2859 20.0741V21.8874C38.3989 21.0469 39.3275 19.9757 39.9991 18.7435Z" fill="#A56021"/>
</svg>
