<svg width="302" height="288" viewBox="0 0 302 288" fill="none" xmlns="http://www.w3.org/2000/svg">
<path d="M176.749 273C242.332 273 295.498 220.17 295.498 155C295.498 130.887 288.22 108.464 275.727 89.7803L300.457 65.8739C302.475 63.9236 302.519 60.7173 300.557 58.7125L286.82 44.6816C284.858 42.6767 281.631 42.6326 279.613 44.5829L256.155 67.2601C235.117 48.4482 207.279 37 176.749 37C111.166 37 58 89.8304 58 155C58 220.17 111.166 273 176.749 273Z" fill="black" fill-opacity="0.4"/>
<ellipse cx="147" cy="142.5" rx="114" ry="113.5" fill="#D7B377"/>
<path d="M139.261 24L182.475 32.0483C182.475 32.0483 204.947 67.5278 197.48 89.5362C184.474 127.872 127.292 67.7705 112.853 105.633C103.037 131.374 124.222 139.123 112.853 164.271C98.6411 195.707 32.0887 178.067 32.0887 178.067L27 149.369V120.67L45.0315 80.3382L63.6374 56.7681L95.4475 35.4976L139.261 24Z" fill="#8F754F"/>
<ellipse cx="147.445" cy="77.392" rx="14.1895" ry="6.0812" fill="#D7B377"/>
<circle cx="112.478" cy="52.5604" r="2.53384" fill="#D7B377"/>
<circle cx="68.3891" cy="134.15" r="3.0406" fill="#D7B377"/>
<ellipse cx="82.5786" cy="174.185" rx="2.02707" ry="1.5203" fill="#D7B377"/>
<ellipse cx="246.531" cy="114.074" rx="2.53384" ry="14.1895" transform="rotate(-13.7833 246.531 114.074)" fill="#8F754F"/>
<path d="M252.179 132.654C255.394 134.137 256.298 160.936 243.4 188.891C230.502 216.846 205.235 231.039 202.021 229.556C198.806 228.073 221.19 212.549 234.088 184.594C246.986 156.64 248.965 131.171 252.179 132.654Z" fill="#8F754F"/>
<ellipse cx="140.857" cy="115.906" rx="6.58797" ry="3.0406" fill="#8F754F"/>
<ellipse cx="240.69" cy="95.1289" rx="1.01353" ry="2.53384" fill="#8F754F"/>
<ellipse cx="101.329" cy="204.591" rx="1.5203" ry="2.53384" fill="#8F754F"/>
<ellipse cx="158.594" cy="210.165" rx="3.0406" ry="4.05414" fill="#8F754F"/>
<path d="M114.456 248C88.3182 227.829 71.4995 196.304 71.4995 160.876C71.4995 99.984 121.186 50.6209 182.478 50.6209C193.428 50.6209 204.008 52.1966 214 55.132C195.212 40.633 171.61 32 145.978 32C84.6866 32 35 81.3631 35 142.256C35 192.269 68.5187 234.505 114.456 248Z" fill="black" fill-opacity="0.3"/>
<path d="M250.785 28.6823C254.15 25.4089 259.531 25.483 262.804 28.8479L269.584 35.8172C272.858 39.1821 272.783 44.5634 269.419 47.8369L247.421 69.2363L228.787 50.0818L250.785 28.6823Z" fill="#F5F0F6" stroke="#2B4162" stroke-width="3"/>
<path d="M268.164 32.2062L270.659 34.7712C274.51 38.7299 274.423 45.0609 270.464 48.912L247.392 71.3574L237.924 61.6246L268.164 32.2062Z" fill="black" fill-opacity="0.3"/>
<ellipse cx="249.127" cy="40.6879" rx="9.62857" ry="3.37565" transform="rotate(-41.4606 249.127 40.6879)" fill="white"/>
<path d="M272.637 143.272C272.637 212.413 216.586 268.463 147.445 268.463C78.3033 268.463 22.2531 212.413 22.2531 143.272C22.2531 74.1302 78.3033 18.08 147.445 18.08C216.586 18.08 272.637 74.1302 272.637 143.272ZM146.938 254.233C207.941 254.233 257.393 204.781 257.393 143.778C257.393 82.7759 207.941 33.3236 146.938 33.3236C85.9355 33.3236 36.4831 82.7759 36.4831 143.778C36.4831 204.781 85.9355 254.233 146.938 254.233Z" fill="#F5F0F6" stroke="#2B4162" stroke-width="3"/>
<path d="M246.264 217.26C213.924 260.176 163.407 265.732 159.607 262.869C155.807 260.005 205.309 255.108 237.649 212.192C269.989 169.276 260.186 115.435 263.986 118.298C267.786 121.162 278.604 174.344 246.264 217.26Z" fill="black" fill-opacity="0.3"/>
<path d="M51.6659 67.7635C84.0059 24.8475 132.921 22.7506 136.72 25.614C140.52 28.4774 91.1006 29.4084 58.7606 72.3244C26.4206 115.24 31.0587 159.73 27.2589 156.867C23.459 154.003 19.3259 110.679 51.6659 67.7635Z" fill="white"/>
</svg>
