<svg width="82" height="71" viewBox="0 0 82 71" fill="none" xmlns="http://www.w3.org/2000/svg">
<path d="M70.526 22.0476C72.6283 24.7456 73.544 28.3068 73.1005 32.1016C72.6219 36.1959 70.6504 40.0407 67.5491 42.9278C64.5327 45.7358 60.8134 47.2824 57.0759 47.2824C53.345 47.2824 50.0554 45.7447 47.8125 42.9526C43.1929 37.2018 44.4358 27.8588 50.5635 22.0476H43.2671C38.2689 29.8525 38.1746 39.9968 43.6568 46.8213C50.2993 55.0899 62.6051 55.3497 71.1431 47.4014C78.4027 40.6432 80.5966 30.1283 77.0083 22.0476H70.526Z" fill="#FFAD0B"/>
<path d="M77.8716 21.1601C71.2291 12.8915 58.9233 12.6317 50.3853 20.5799C41.8476 28.5282 40.311 41.6745 46.9533 49.9432C53.5958 58.2118 65.9016 58.4716 74.4396 50.5233C82.9774 42.5751 84.514 29.4286 77.8716 21.1601ZM76.397 35.2233C75.9184 39.3176 73.9469 43.1624 70.8456 46.0495C67.8292 48.8575 64.1099 50.4041 60.3724 50.4041C56.6415 50.4041 53.3519 48.8664 51.109 46.0743C46.459 40.2858 47.7464 30.8556 53.9793 25.0533C56.9955 22.2454 60.715 20.6988 64.4525 20.6988C68.1832 20.6988 71.4728 22.2364 73.7157 25.0286C75.896 27.7426 76.8482 31.3631 76.397 35.2233Z" fill="#FFEACF"/>
<path d="M71.203 53.0374V45.7023C71.0847 45.8187 70.9678 45.9362 70.8459 46.0495C67.8294 48.8575 64.1102 50.404 60.3727 50.404C56.6418 50.404 53.3521 48.8664 51.1092 46.0743C46.4593 40.2858 47.7467 30.8556 53.9796 25.0533C56.9958 22.2453 60.7153 20.6988 64.4528 20.6988C66.9651 20.6988 69.2759 21.3989 71.2032 22.7071V16.1195C64.6633 13.3858 56.5444 14.8463 50.3856 20.5797C41.8478 28.528 40.3112 41.6743 46.9535 49.9429C52.7948 57.2149 63.016 58.2894 71.203 53.0374Z" fill="#FFBE63"/>
<path d="M79.1106 39.042C78.9174 39.042 78.7214 38.999 78.5359 38.9074C77.8808 38.5849 77.6074 37.7844 77.9254 37.1195C80.2602 32.2385 76.4963 25.3238 76.4581 25.2544C76.1018 24.61 76.328 23.7946 76.9631 23.4332C77.5982 23.0715 78.4019 23.3012 78.7581 23.9458C78.9418 24.2783 83.2274 32.1632 80.2978 38.2879C80.0701 38.7646 79.6 39.042 79.1106 39.042Z" fill="#FCF9DE"/>
<path d="M47.0291 70.8801H15.3834C6.88735 70.8801 0 63.892 0 55.2717V3.56765C0 1.72051 1.47592 0.222992 3.29643 0.222992H59.1161C60.9366 0.222992 62.4125 1.72051 62.4125 3.56765V55.2717C62.4125 63.892 55.5251 70.8801 47.0291 70.8801Z" fill="#FFEACF"/>
<path d="M13.1857 55.2717V3.56765C13.1857 1.72051 14.6617 0.222992 16.4822 0.222992H3.29643C1.47592 0.222992 0 1.72051 0 3.56765V55.2717C0 63.892 6.88735 70.8801 15.3834 70.8801H28.5691C20.0731 70.8801 13.1857 63.892 13.1857 55.2717Z" fill="#FFBE63"/>
<path d="M5.4939 54.9316V8.36727C5.4939 7.13577 6.47777 6.1375 7.69152 6.1375H54.7206C55.9344 6.1375 56.9183 7.13577 56.9183 8.36727V54.9319C56.9183 60.4735 52.4907 64.9658 47.029 64.9658H15.3832C9.92167 64.9656 5.4939 60.4733 5.4939 54.9316Z" fill="#BF6C0D"/>
<path d="M5.4939 54.9316V8.36727C5.4939 7.13577 6.47777 6.1375 7.69152 6.1375H54.7206C55.9344 6.1375 56.9183 7.13577 56.9183 8.36727V54.9319C56.9183 60.4735 52.4907 64.9658 47.029 64.9658H15.3832C9.92167 64.9656 5.4939 60.4733 5.4939 54.9316Z" fill="#BF6C0D"/>
<path d="M13.1858 55.2716V6.13747H7.69176C6.47802 6.13747 5.49414 7.13574 5.49414 8.36724V54.9318C5.49414 60.4735 9.92169 64.9658 15.3834 64.9658H16.5172C14.4336 62.3026 13.1858 58.9358 13.1858 55.2716Z" fill="#A56021"/>
<path d="M52.208 23.3854C51.4799 23.3854 50.8894 22.7863 50.8894 22.0476V16.4165C50.8894 15.6778 51.4799 15.0786 52.208 15.0786C52.9361 15.0786 53.5266 15.6778 53.5266 16.4165V22.0476C53.5266 22.7865 52.9361 23.3854 52.208 23.3854Z" fill="#E58D23"/>
<path d="M52.208 54.5347C51.4799 54.5347 50.8894 53.9356 50.8894 53.1968V26.9604C50.8894 26.2217 51.4799 25.6226 52.208 25.6226C52.9361 25.6226 53.5266 26.2217 53.5266 26.9604V53.1968C53.5266 53.9356 52.9361 54.5347 52.208 54.5347Z" fill="#E58D23"/>
<path d="M18.4858 53.6352C20.2498 53.6352 21.6798 52.1843 21.6798 50.3945C21.6798 48.6047 20.2498 47.1537 18.4858 47.1537C16.7218 47.1537 15.2917 48.6047 15.2917 50.3945C15.2917 52.1843 16.7218 53.6352 18.4858 53.6352Z" fill="#A56021"/>
<path d="M25.7795 62.479C27.5435 62.479 28.9735 61.028 28.9735 59.2382C28.9735 57.4484 27.5435 55.9975 25.7795 55.9975C24.0155 55.9975 22.5854 57.4484 22.5854 59.2382C22.5854 61.028 24.0155 62.479 25.7795 62.479Z" fill="#A56021"/>
<path d="M21.9992 58.962L13.5986 51.1284C12.258 49.8784 12.1701 47.7626 13.4021 46.4026L21.1228 37.8791C22.3548 36.5189 24.4401 36.4297 25.7805 37.6797L34.1811 45.5134C35.5216 46.7634 35.6095 48.8792 34.3776 50.2392L26.6569 58.7627C25.4249 60.1226 23.3396 60.2118 21.9992 58.962Z" fill="#FFA730"/>
<path d="M18.4302 51.8451L26.8911 42.5043C27.9187 41.3698 29.6579 41.2956 30.7761 42.338L25.3776 37.3041C24.2594 36.2614 22.5202 36.3359 21.4926 37.4704L13.0318 46.8111C12.0042 47.9457 12.0776 49.7103 13.1957 50.7529L18.5942 55.7869C17.476 54.7445 17.4026 52.9796 18.4302 51.8451Z" fill="#E58D23"/>
<path d="M38.0069 16.0552L28.1396 21.8674C26.565 22.7947 24.5478 22.2516 23.6338 20.6539L18.0167 10.8365C17.1027 9.23882 17.638 7.19211 19.2126 6.26475L29.0801 0.45262C30.6547 -0.474743 32.6719 0.0684305 33.5859 1.66606L39.2031 11.4835C40.1168 13.0812 39.5815 15.1279 38.0069 16.0552Z" fill="#FFA730"/>
<path d="M30.2661 17.4288L24.0657 6.59209C23.3128 5.27607 23.7668 3.58211 25.0801 2.80838L18.7391 6.54348C17.4258 7.31698 16.9718 9.01094 17.7247 10.3272L23.925 21.1639C24.6779 22.4799 26.3532 22.9198 27.6663 22.1463L34.0073 18.4112C32.6942 19.1847 31.019 18.7448 30.2661 17.4288Z" fill="#E58D23"/>
<path d="M36.1534 6.15369L33.6041 1.69838C32.6798 0.0829092 30.64 -0.466285 29.0478 0.471334L19.4009 6.15347H36.1534V6.15369Z" fill="#FFB74B"/>
<path d="M43.1007 42.124L31.846 40.222C30.0501 39.9185 28.8368 38.1953 29.1359 36.3731L31.0105 24.9538C31.3095 23.1316 33.0079 21.9006 34.8038 22.204L46.0585 24.106C47.8544 24.4095 49.0677 26.1327 48.7686 27.9549L46.894 39.3742C46.5949 41.1964 44.8966 42.4274 43.1007 42.124Z" fill="#FFA730"/>
<path d="M36.2787 38.1429L38.3328 25.6288C38.5822 24.109 39.9988 23.0822 41.4967 23.3352L34.2644 22.1131C32.7665 21.86 31.3499 22.8868 31.1004 24.4066L29.0463 36.9208C28.7969 38.4406 29.8089 39.8779 31.3068 40.131L38.5392 41.3531C37.0413 41.1001 36.0293 39.6628 36.2787 38.1429Z" fill="#E58D23"/>
</svg>
