<svg width="31" height="57" viewBox="0 0 31 57" fill="none" xmlns="http://www.w3.org/2000/svg">
<path d="M20.8467 38.824H5.50159L3.48641 48.1537C3.20033 49.4782 3.05603 50.83 3.05603 52.1858V52.458C3.05603 53.8591 3.58655 55.1343 4.45467 56.0904C4.99231 56.3317 5.60029 56.4686 6.24483 56.4686H20.4391C21.0836 56.4686 21.6916 56.3317 22.2292 56.0904C23.0975 55.1343 23.6279 53.8591 23.6279 52.458C23.6279 50.9226 23.4428 49.3929 23.0767 47.9028L20.8467 38.824Z" fill="#FFD551"/>
<path d="M7.84526 52.4847V52.2126C7.84526 50.8568 7.98956 49.505 8.27563 48.1804L10.2908 38.8508H5.46461L3.44942 48.1804C3.16335 49.505 3.01904 50.8568 3.01904 52.2126V52.4847C3.01904 53.8857 3.54956 55.1611 4.4178 56.117C4.95556 56.3583 5.56342 56.4953 6.20796 56.4953H11.0342C10.3896 56.4953 9.78165 56.3583 9.24401 56.117C8.37578 55.1611 7.84526 53.8857 7.84526 52.4847Z" fill="#FFC34C"/>
<path d="M20.81 34.7006H9.77954V32.7919H19.8447C20.3778 32.7919 20.81 33.2241 20.81 33.7572V34.7006Z" fill="#FFD551"/>
<path d="M16.9045 43.6916H10.7447C10.2116 43.6916 9.77942 43.2594 9.77942 42.7263V28.6449H17.8697V42.7263C17.8697 43.2594 17.4377 43.6916 16.9045 43.6916Z" fill="#F9BB32"/>
<path d="M5.66572 32.7919H3.61374L2.83877 33.3493C2.67914 33.4641 2.71642 33.7115 2.90296 33.774L5.62844 34.6882C5.65317 34.6965 5.67911 34.7007 5.70518 34.7007H6.5021V32.7919H5.66572Z" fill="#FFC34C"/>
<path d="M9.77928 32.7919H5.6665V34.7006H9.77928V32.7919Z" fill="#FFC34C"/>
<path d="M12.1925 42.7263V28.6449H9.77942V42.7263C9.77942 43.2594 10.2116 43.6916 10.7447 43.6916H13.1578C12.6247 43.6916 12.1925 43.2594 12.1925 42.7263Z" fill="#DB9C2E"/>
<path d="M20.8501 3.45581H5.41418V0.965243C5.41418 0.432187 5.84637 0 6.37943 0H19.885C20.418 0 20.8502 0.432187 20.8502 0.965243V3.45581H20.8501Z" fill="#BF6C0D"/>
<path d="M11.2055 0H6.37931C5.84625 0 5.41406 0.432187 5.41406 0.965243V3.45581H10.2403V0.965243C10.2403 0.432187 10.6725 0 11.2055 0Z" fill="#A56021"/>
<path d="M27.9317 36.8082V45.2186C27.9317 45.4196 27.7706 45.5826 27.572 45.5826H25.5062C25.3444 45.5826 25.2017 45.4723 25.1592 45.3143L23.0739 37.5655C22.9656 37.3118 22.951 37.0488 23.0088 36.8082H18.2211V37.8525H20.9184L21.4215 39.7358L23.0772 45.8884C23.3749 46.9945 24.3738 47.767 25.5062 47.767H27.572C28.9601 47.767 30.0896 46.6237 30.0896 45.2185V36.8082H27.9317Z" fill="#99AF17"/>
<path d="M28.4824 34.7006H28.0508H21.8288H20.3903H19.1315V35.7928V38.8509H21.8288L22.3319 40.7342L23.9876 46.8868C24.2853 47.9928 25.2842 48.7654 26.4166 48.7654H28.4824C29.8705 48.7654 31 47.6222 31 46.217V37.2492C31 35.8438 29.8706 34.7006 28.4824 34.7006ZM28.8421 46.2169C28.8421 46.418 28.681 46.5809 28.4824 46.5809H26.4166C26.2548 46.5809 26.1122 46.4705 26.0696 46.3126L23.9843 38.5637C23.6455 37.7702 24.2202 36.8849 25.0743 36.8849H28.0509H28.4825C28.6811 36.8849 28.8422 37.0479 28.8422 37.249V46.2169H28.8421Z" fill="#EACF32"/>
<path d="M26.8334 47.9296L26.5021 46.5809H26.4166C26.2548 46.5809 26.1121 46.4706 26.0696 46.3126L24.0616 38.8509L23.9843 38.5639C23.6455 37.7703 24.2202 36.8849 25.0743 36.8849H26.8792V34.7006H21.829H20.3904H19.1316V35.7928V38.8508H21.829L22.332 40.7341L23.9877 46.8867C24.2854 47.9928 25.2843 48.7653 26.4168 48.7653H27.019C26.9633 48.4855 26.9016 48.2067 26.8334 47.9296Z" fill="#CCC033"/>
<path d="M18.7383 20.3455H7.526L3.86169 4.53098H22.4026L18.7383 20.3455Z" fill="#FFC34C"/>
<path d="M23.8652 4.53096H2.39918C2.06605 4.53096 1.7959 4.26082 1.7959 3.92769V2.98392C1.7959 2.65079 2.06605 2.38065 2.39918 2.38065H23.8652C24.1983 2.38065 24.4685 2.65079 24.4685 2.98392V3.92769C24.4685 4.26082 24.1983 4.53096 23.8652 4.53096Z" fill="#DB9C2E"/>
<path d="M4.67508 50.647C4.41893 50.647 4.20875 50.8471 4.19258 51.1027C4.16929 51.4722 4.1571 51.8423 4.1571 52.213V52.4848C4.1571 53.4624 4.48915 54.4003 5.09677 55.1523C5.44775 55.2793 5.82046 55.3436 6.208 55.3436H20.4023C20.7898 55.3436 21.1626 55.2793 21.5135 55.1523C22.1211 54.4002 22.4532 53.4623 22.4532 52.4848C22.4532 52.0207 22.434 51.5567 22.3974 51.0943C22.3775 50.8422 22.1683 50.647 21.9155 50.647H4.67508Z" fill="#A56021"/>
<path d="M20.3273 38.8509H5.78304C5.51651 38.8509 5.30042 38.6348 5.30042 38.3683V35.1832C5.30042 34.9167 5.51651 34.7006 5.78304 34.7006H20.3273C20.5938 34.7006 20.8099 34.9167 20.8099 35.1832V38.3683C20.8099 38.6348 20.5938 38.8509 20.3273 38.8509Z" fill="#EACF32"/>
<path d="M7.22539 3.68638C6.89226 3.68638 6.62211 3.41623 6.62211 3.0831V2.38065H2.39918C2.06605 2.38065 1.7959 2.65079 1.7959 2.98392V3.92769C1.7959 4.26082 2.06605 4.53096 2.39918 4.53096H23.8651C24.1982 4.53096 24.4684 4.26082 24.4684 3.92769V3.68638H7.22539Z" fill="#BF6C0D"/>
<path d="M3.86169 4.53098L7.526 20.3455H11.6283L7.96398 4.53098H3.86169Z" fill="#FFB74B"/>
<path d="M21.9467 20.6112C21.9385 20.5978 21.9304 20.5849 21.9227 20.5725C21.8342 20.4312 21.68 20.3456 21.5133 20.3456H4.77295C4.60633 20.3456 4.45201 20.4312 4.36357 20.5725C4.35572 20.5849 4.34776 20.5978 4.33944 20.6113C3.66461 21.7072 1.41934 26.0853 4.51439 31.7169H4.57109C4.97674 32.3621 5.69295 32.7921 6.51123 32.7921H19.7833C20.6016 32.7921 21.3178 32.3621 21.7235 31.7169H21.7717C24.8668 26.0852 22.6215 21.707 21.9467 20.6112Z" fill="#FFDF74"/>
<path d="M14.5346 27.1952H11.8029C11.603 27.1952 11.4409 27.0332 11.4409 26.8333V20.3454H14.8966V26.8333C14.8966 27.0332 14.7346 27.1952 14.5346 27.1952Z" fill="#FCDA4F"/>
<path d="M12.4777 25.9949H0.482621C0.216094 25.9949 0 25.7789 0 25.5123V24.5192C0 24.2527 0.216094 24.0366 0.482621 24.0366H12.4777V25.9949Z" fill="#FCDA4F"/>
<path d="M8.19075 31.7167H8.13405C5.039 26.0851 7.28439 21.707 7.9591 20.6111C7.96742 20.5977 7.97538 20.5846 7.98323 20.5722C8.07167 20.4309 8.22586 20.3454 8.39261 20.3454H4.77295C4.60633 20.3454 4.45201 20.4309 4.36357 20.5722C4.35572 20.5846 4.34776 20.5976 4.33944 20.6111C3.66461 21.707 1.41934 26.0851 4.51439 31.7167H4.57109C4.97674 32.3618 5.69295 32.7918 6.51123 32.7918H10.1309C9.31261 32.7919 8.5964 32.3618 8.19075 31.7167Z" fill="#FFD551"/>
<path d="M11.441 20.3455V26.646C11.441 26.9493 11.6031 27.1952 11.803 27.1952H13.0096V20.3455H11.441Z" fill="#FFD551"/>
<path d="M13.0784 18.993L9.2852 18.9607C8.75214 18.9563 8.3237 18.5205 8.32816 17.9873L8.35941 14.3059C8.36387 13.7728 8.79968 13.3444 9.33286 13.3488L13.126 13.381C13.6591 13.3855 14.0875 13.8213 14.0831 14.3545L14.0518 18.0359C14.0472 18.5691 13.6114 18.9975 13.0784 18.993Z" fill="#FFF4C1"/>
<path d="M10.9744 18.9608C10.4413 18.9563 10.0129 18.5205 10.0173 17.9874L10.0486 14.306C10.0527 13.8275 10.4045 13.4344 10.8619 13.362L9.33273 13.349C8.79968 13.3445 8.36387 13.773 8.35929 14.306L8.32804 17.9874C8.32357 18.5205 8.75202 18.9563 9.28508 18.9608H10.9744Z" fill="#FFDF74"/>
<path d="M15.5994 19.6796L12.5691 17.3979C12.1432 17.0772 12.0578 16.4721 12.3786 16.0462L14.5929 13.1051C14.9136 12.6792 15.5187 12.5939 15.9446 12.9146L18.975 15.1963C19.4009 15.517 19.4862 16.1221 19.1655 16.548L16.9511 19.4891C16.6306 19.915 16.0254 20.0003 15.5994 19.6796Z" fill="#FFF4C1"/>
<path d="M13.9271 18.4025C13.5012 18.0819 13.4159 17.4767 13.7366 17.0508L15.951 14.1097C16.2387 13.7274 16.7555 13.6206 17.1663 13.8344L15.9447 12.9146C15.5188 12.594 14.9137 12.6792 14.593 13.1051L12.3786 16.0462C12.058 16.4721 12.1432 17.0773 12.5691 17.3979L13.9271 18.4025Z" fill="#FFDF74"/>
<path d="M16.5021 13.8891L12.8983 15.0729C12.3918 15.2393 11.8464 14.9636 11.68 14.4571L10.5311 10.9594C10.3648 10.4529 10.6405 9.90751 11.147 9.74112L14.7508 8.55737C15.2573 8.39099 15.8027 8.66669 15.9691 9.1732L17.118 12.6709C17.2843 13.1773 17.0086 13.7227 16.5021 13.8891Z" fill="#FFF4C1"/>
<path d="M14.4985 14.5321C13.9921 14.6985 13.4466 14.4228 13.2803 13.9163L12.1314 10.4186C11.982 9.96397 12.1895 9.47894 12.5998 9.26393L11.147 9.74112C10.6406 9.90751 10.3647 10.4529 10.5311 10.9594L11.68 14.4571C11.8464 14.9634 12.3919 15.2393 12.8983 15.0729L14.4985 14.5321Z" fill="#FFDF74"/>
<path d="M8.92007 38.3682V35.1832C8.92007 34.9167 9.13617 34.7006 9.4027 34.7006H5.78304C5.51651 34.7006 5.30042 34.9167 5.30042 35.1832V38.3682C5.30042 38.6347 5.51651 38.8508 5.78304 38.8508H9.4027C9.13617 38.8508 8.92007 38.6348 8.92007 38.3682Z" fill="#CCC033"/>
<path d="M7.91021 50.6469H4.67508C4.41893 50.6469 4.20875 50.8469 4.19258 51.1026C4.16929 51.472 4.15723 51.8422 4.15723 52.2129V52.4847C4.15723 53.4623 4.48927 54.4001 5.09689 55.1522C5.44788 55.2792 5.8207 55.3434 6.20813 55.3434H8.65948C8.14392 54.5157 7.84542 53.5355 7.84542 52.4847V52.2126C7.84542 51.6897 7.86738 51.1674 7.91021 50.6469Z" fill="#8C4C17"/>
<path d="M20.1177 31.5487C19.9502 31.5487 19.7821 31.4909 19.6453 31.3732C19.3424 31.1122 19.3084 30.655 19.5695 30.3522C22.053 27.4704 20.9218 23.9445 20.8725 23.7958C20.7468 23.417 20.9508 23.007 21.3292 22.8802C21.7072 22.7531 22.1168 22.9558 22.2446 23.3337C22.3054 23.5134 23.6993 27.7779 20.6662 31.2974C20.5231 31.4635 20.321 31.5487 20.1177 31.5487Z" fill="#FCE575"/>
<path d="M6.69912 24.0367H3.07947C2.97498 24.6317 2.91236 25.2871 2.9208 25.9949H6.54046C6.53214 25.2871 6.59464 24.6317 6.69912 24.0367Z" fill="#FFC34C"/>
<path d="M11.0343 49.4964C12.0561 49.4964 12.8845 48.6681 12.8845 47.6463C12.8845 46.6245 12.0561 45.7962 11.0343 45.7962C10.0125 45.7962 9.1842 46.6245 9.1842 47.6463C9.1842 48.6681 10.0125 49.4964 11.0343 49.4964Z" fill="#FFC34C"/>
<path d="M18.3283 13.6798C18.2731 13.6798 18.2169 13.6734 18.1606 13.6601C17.7716 13.5678 17.5311 13.1776 17.6234 12.7886L19.0476 6.78614C19.1399 6.39702 19.53 6.15692 19.9191 6.24886C20.3081 6.34116 20.5486 6.73136 20.4563 7.12035L19.0321 13.1228C18.9532 13.4556 18.6562 13.6798 18.3283 13.6798Z" fill="#FFD551"/>
<path d="M21.0019 50.2204C20.6533 50.2204 20.3461 49.9678 20.2883 49.6126L19.158 42.6673C19.0937 42.2727 19.3616 41.9007 19.7562 41.8365C20.1505 41.772 20.5228 42.0402 20.587 42.4347L21.7173 49.38C21.7816 49.7747 21.5136 50.1466 21.1191 50.2108C21.0798 50.2173 21.0406 50.2204 21.0019 50.2204Z" fill="#FCE575"/>
</svg>
