<svg width="38" height="27" viewBox="0 0 38 27" fill="none" xmlns="http://www.w3.org/2000/svg">
<path d="M2.37618 4.6386C3.69628 4.6386 4.75236 3.6037 4.75236 2.32854C4.75236 1.03491 3.69628 0 2.37618 0C1.05608 0 0 1.03491 0 2.32854C0 3.6037 1.05608 4.6386 2.37618 4.6386ZM10.7117 3.80698H36.4725C37.3211 3.80698 38 3.16016 38 2.32854C38 1.47844 37.3211 0.831622 36.4725 0.831622H10.7117C9.84417 0.831622 9.18412 1.47844 9.18412 2.32854C9.18412 3.16016 9.84417 3.80698 10.7117 3.80698ZM2.37618 15.8193C3.69628 15.8193 4.75236 14.7844 4.75236 13.4908C4.75236 12.1971 3.69628 11.1622 2.37618 11.1622C1.05608 11.1622 0 12.1971 0 13.4908C0 14.7844 1.05608 15.8193 2.37618 15.8193ZM10.7117 14.9877H36.4725C37.3211 14.9877 38 14.3224 38 13.4908C38 12.6591 37.3211 12.0123 36.4725 12.0123H10.7117C9.84417 12.0123 9.18412 12.6591 9.18412 13.4908C9.18412 14.3224 9.84417 14.9877 10.7117 14.9877ZM2.37618 27C3.69628 27 4.75236 25.9466 4.75236 24.6715C4.75236 23.3778 3.69628 22.3429 2.37618 22.3429C1.05608 22.3429 0 23.3778 0 24.6715C0 25.9466 1.05608 27 2.37618 27ZM10.7117 26.1499H36.4725C37.3211 26.1499 38 25.5031 38 24.6715C38 23.8214 37.3211 23.1745 36.4725 23.1745H10.7117C9.84417 23.1745 9.18412 23.8214 9.18412 24.6715C9.18412 25.5031 9.84417 26.1499 10.7117 26.1499Z" fill="#FCD7AD"/>
</svg>
