<svg width="124" height="109" viewBox="0 0 124 109" fill="none" xmlns="http://www.w3.org/2000/svg">
<path d="M57.9281 54.2622C63.4618 36.7423 57.2232 19.1522 43.9937 14.9736C30.7642 10.7949 15.5535 21.6102 10.0198 39.1301C4.48601 56.65 10.7246 74.2402 23.9541 78.4188C37.1837 82.5974 52.3943 71.7822 57.9281 54.2622Z" fill="#87480F"/>
<path d="M19.3085 42.0665C24.1775 26.6523 36.5375 16.4305 48.4479 17.0425C47.0686 16.1767 45.5812 15.4791 43.992 14.9772C30.763 10.7985 15.5527 21.6129 10.0188 39.1321C4.48496 56.6514 10.7229 74.2408 23.9517 78.4195C25.5412 78.9215 27.1591 79.205 28.7856 79.2885C18.6848 72.9478 14.4396 57.4807 19.3085 42.0665Z" fill="#6D3E17"/>
<path d="M24.7541 78.3209C23.8573 78.3209 22.9949 77.8238 22.5698 76.9662C17.6807 67.1002 19.7551 59.473 22.3567 54.8118C25.1518 49.8041 29.1174 47.1395 29.2847 47.0285C29.293 47.0229 29.3015 47.0173 29.31 47.0119C37.3194 41.8461 41.9292 36.2153 43.0111 30.2762C44.1339 24.1135 41.0112 19.8088 40.9793 19.766C40.1787 18.6851 40.406 17.1599 41.4869 16.3591C42.5675 15.5585 44.0929 15.7855 44.8938 16.8664C45.0742 17.1102 49.3002 22.9329 47.803 31.1491C46.471 38.4611 41.1432 45.1714 31.9682 51.0934C31.3676 51.5004 19.502 59.8067 26.9339 74.8032C27.5311 76.0086 27.0384 77.4696 25.833 78.0668C25.4862 78.2393 25.1174 78.3209 24.7541 78.3209Z" fill="#7A4010"/>
<path d="M33.8653 72.9412C35.883 72.9412 37.5186 71.3056 37.5186 69.2879C37.5186 67.2702 35.883 65.6345 33.8653 65.6345C31.8476 65.6345 30.2119 67.2702 30.2119 69.2879C30.2119 71.3056 31.8476 72.9412 33.8653 72.9412Z" fill="#6D3E17"/>
<path d="M84.1325 83.5198C96.3102 76.8746 99.0481 58.4141 90.2479 42.2872C81.4476 26.1602 64.4416 18.4737 52.264 25.1189C40.0863 31.7641 37.3484 50.2245 46.1486 66.3515C54.9489 82.4785 71.9549 90.165 84.1325 83.5198Z" fill="#87480F"/>
<path d="M54.7038 61.6832C46.9602 47.4937 48.1506 31.499 56.8428 23.3333C55.2628 23.7282 53.7295 24.3175 52.2664 25.116C40.0886 31.7617 37.3512 50.223 46.152 66.3501C54.9528 82.4773 71.9597 90.1636 84.1375 83.5178C85.6006 82.7194 86.9258 81.7488 88.1128 80.6338C76.5429 83.5257 62.4474 75.8728 54.7038 61.6832Z" fill="#6D3E17"/>
<path d="M75.932 80.7793C69.9146 77.2085 67.213 72.2609 66.0074 68.3142C64.3321 62.8295 65.1577 58.1236 65.1935 57.9259C65.1952 57.9159 65.1971 57.9059 65.199 57.896C67.0121 48.5907 66.1626 41.391 62.6747 36.4968C59.0583 31.4229 53.8394 30.635 53.619 30.6036C52.2853 30.4324 51.3494 29.2128 51.5209 27.8787C51.6924 26.5446 52.9199 25.6029 54.254 25.7741C54.5554 25.8131 61.6817 26.7986 66.57 33.5701C70.9204 39.5961 72.0692 48.0868 69.9845 58.8062C69.862 59.5214 67.6335 73.8331 83.596 78.8615C84.8803 79.2663 85.5916 80.6335 85.1873 81.9164C84.7834 83.1993 83.4157 83.9119 82.1326 83.5078C79.75 82.7569 77.6976 81.8272 75.932 80.7793Z" fill="#7A4010"/>
<path d="M83.9251 59.5958C85.6603 60.6255 87.9017 60.0537 88.9314 58.3186C89.9612 56.5834 89.3893 54.3421 87.6542 53.3123C85.9191 52.2826 83.6777 52.8544 82.6479 54.5895C81.6182 56.3247 82.19 58.566 83.9251 59.5958Z" fill="#6D3E17"/>
<path d="M83.9283 72.233C85.6635 73.2627 87.9048 72.6909 88.9346 70.9557C89.9643 69.2206 89.3925 66.9792 87.6574 65.9495C85.9222 64.9197 83.6809 65.4916 82.6511 67.2267C81.6214 68.9618 82.1932 71.2032 83.9283 72.233Z" fill="#6D3E17"/>
</svg>
