<svg width="41" height="51" viewBox="0 0 41 51" fill="none" xmlns="http://www.w3.org/2000/svg">
<path d="M32.3074 0H8.4297C7.83624 0 7.46311 0.639986 7.75547 1.15643L18.683 20.4591C19.4248 21.7693 21.3124 21.7693 22.0541 20.4591L32.9816 1.15643C33.274 0.639986 32.9009 0 32.3074 0Z" fill="#FFF4C1"/>
<path d="M12.0749 1.15653C11.7825 0.639986 12.1555 0 12.7491 0H8.4297C7.83624 0 7.46311 0.639986 7.75547 1.15653L18.683 20.4591C19.4248 21.7693 21.3124 21.7693 22.0541 20.4591L22.5282 19.6214L12.0749 1.15653Z" fill="#FCE575"/>
<path d="M22.9653 15.3778C22.8683 15.3778 22.77 15.3551 22.678 15.3073C22.372 15.1484 22.2527 14.7714 22.4115 14.4653L28.3507 3.02946C28.5096 2.72336 28.8866 2.60409 29.1928 2.76302C29.4988 2.92195 29.6181 3.29892 29.4593 3.60502L23.5202 15.0409C23.4089 15.2551 23.191 15.3778 22.9653 15.3778Z" fill="#FCF9DE"/>
<path d="M36.6781 32.5786H33.9294L36.7632 40.492C36.7944 40.5791 36.8009 40.6725 36.7814 40.7654C36.732 41.0022 36.5041 41.1593 36.2622 41.1593H27.8216V32.5785H25.2339V43.747H36.2932C37.998 43.747 39.38 42.365 39.38 40.6602C39.38 40.3055 39.3189 39.9535 39.1993 39.6195L36.6781 32.5786Z" fill="#BF6C0D"/>
<path d="M40.8192 40.8074L37.6786 32.037C37.2392 30.8098 36.0761 29.9909 34.7726 29.9909H26.8539V44.935H37.9132C39.618 44.935 41 43.553 41 41.8482C40.9999 41.4934 40.9387 41.1414 40.8192 40.8074ZM38.4012 41.9533C38.3518 42.1901 38.1238 42.3472 37.882 42.3472H29.4414V32.5786H34.7724C34.9825 32.5786 35.1713 32.7116 35.2422 32.9094L38.3828 41.6798C38.4141 41.7669 38.4207 41.8603 38.4012 41.9533Z" fill="#F9BB32"/>
<path d="M36.2549 42.3472H29.4415V32.5786H34.6515C33.8971 30.9898 33.1989 29.9909 33.1989 29.9909H33.1882H26.8538V44.935H35.3143C35.7634 44.0878 36.0671 43.2189 36.2549 42.3472Z" fill="#DB9C2E"/>
<path d="M29.9593 29.9909H29.9486H20.3685H10.7883H10.7776C10.7776 29.9909 2.46893 41.8754 12.2082 48.8715C12.8765 49.4165 13.7295 49.7437 14.6592 49.7437H26.0777C27.0073 49.7437 27.8602 49.4166 28.5286 48.8715C38.268 41.8754 29.9593 29.9909 29.9593 29.9909Z" fill="#FFEACF"/>
<path d="M29.8211 29.9909H10.9161C10.3652 29.9909 9.9187 29.5443 9.9187 28.9935V27.7342C9.9187 27.1833 10.3653 26.7368 10.9161 26.7368H29.8211C30.372 26.7368 30.8185 27.1835 30.8185 27.7342V28.9935C30.8185 29.5443 30.3719 29.9909 29.8211 29.9909Z" fill="#F9BB32"/>
<path d="M14.2381 29.1755C14.2381 28.6039 14.7015 28.1406 15.273 28.1406H30.8185V27.7717C30.8185 27.2001 30.3552 26.7367 29.7837 26.7367H10.9536C10.3821 26.7367 9.9187 27.2001 9.9187 27.7717V28.956C9.9187 29.5276 10.3821 29.9909 10.9536 29.9909H14.2381V29.1755Z" fill="#DB9C2E"/>
<path d="M15.0972 29.9909H10.7885H10.7777C10.7777 29.9909 2.46905 41.8754 12.2083 48.8716C12.8766 49.4166 13.7296 49.7438 14.6593 49.7438H18.9787C18.0491 49.7438 17.1961 49.4166 16.5277 48.8716C6.78846 41.8754 15.0972 29.9909 15.0972 29.9909Z" fill="#FFD59A"/>
<path d="M38.7828 50.6804H2.01766C1.38621 50.6804 0.803361 50.3932 0.418578 49.8925C0.0337955 49.3918 -0.0934939 48.7546 0.0691828 48.1445L10.7999 7.89163C10.9092 7.48155 11.2807 7.19617 11.705 7.19617H29.0322C29.5496 7.19617 29.9689 7.6155 29.9689 8.13288C29.9689 8.65027 29.5496 9.0696 29.0322 9.0696H12.4247L1.87934 48.627C1.86726 48.6723 1.87559 48.7139 1.90411 48.7511C1.93263 48.7882 1.97082 48.8069 2.01756 48.8069H38.7827C38.8302 48.8069 38.8686 48.7877 38.8971 48.7497C38.9256 48.7117 38.9334 48.6693 38.9201 48.6238L28.4261 12.5775H13.6909C13.1736 12.5775 12.7542 12.1582 12.7542 11.6408C12.7542 11.1234 13.1736 10.7041 13.6909 10.7041H29.1291C29.5456 10.7041 29.912 10.9791 30.0285 11.3789L40.719 48.1001C40.898 48.7152 40.7802 49.3618 40.3957 49.8742C40.0111 50.3866 39.4233 50.6804 38.7828 50.6804Z" fill="#8C4C17"/>
<path d="M15.2163 44.5788C16.4488 44.5788 17.448 43.5797 17.448 42.3472C17.448 41.1146 16.4488 40.1155 15.2163 40.1155C13.9838 40.1155 12.9846 41.1146 12.9846 42.3472C12.9846 43.5797 13.9838 44.5788 15.2163 44.5788Z" fill="#8C4C17"/>
<path d="M10.29 39.6779C9.79309 39.6779 9.39717 40.0965 9.42672 40.5925C9.58961 43.321 10.8851 45.5314 13.3405 47.2953L13.3887 47.33L13.4348 47.3674C13.6784 47.5661 14.0886 47.8029 14.6592 47.8029H26.0777C26.6484 47.8029 27.0586 47.5661 27.3021 47.3674L27.3481 47.33L27.3963 47.2953C29.8518 45.5315 31.1472 43.321 31.3101 40.5925C31.3397 40.0964 30.9438 39.6779 30.4469 39.6779H10.29Z" fill="#A56021"/>
<path d="M24.2214 46.8143C23.9161 46.8143 23.6491 46.5903 23.6041 46.2793C23.5546 45.9379 23.7913 45.6212 24.1327 45.5717C25.9653 45.3064 27.2834 44.5649 28.0501 43.3678C29.5181 41.0758 28.5722 37.7961 28.5624 37.7632C28.4647 37.4329 28.6528 37.0853 28.983 36.987C29.313 36.8886 29.6606 37.0761 29.7592 37.4061C29.8059 37.5621 30.8804 41.2554 29.1061 44.0347C28.1358 45.5547 26.5227 46.4876 24.3117 46.8078C24.2814 46.8121 24.2512 46.8143 24.2214 46.8143Z" fill="#FFD59A"/>
<path d="M11.7983 39.6779H10.29C9.79309 39.6779 9.39717 40.0965 9.42672 40.5925C9.58961 43.321 10.8851 45.5314 13.3405 47.2953L13.3887 47.33L13.4348 47.3674C13.6784 47.5661 14.0886 47.8029 14.6592 47.8029H15.2163C12.5562 45.3372 11.7373 42.4251 11.7983 39.6779Z" fill="#8C4C17"/>
<path d="M16.1509 45.5811C17.3834 45.5811 18.3825 44.5819 18.3825 43.3494C18.3825 42.1169 17.3834 41.1177 16.1509 41.1177C14.9183 41.1177 13.9192 42.1169 13.9192 43.3494C13.9192 44.5819 14.9183 45.5811 16.1509 45.5811Z" fill="#8C4C17"/>
</svg>
