<svg width="38" height="49" viewBox="0 0 38 49" fill="none" xmlns="http://www.w3.org/2000/svg">
<path d="M33.3675 15.2866H1.69165V42.744H33.3675V15.2866Z" fill="#BF6C0D"/>
<path d="M10.0249 39.0905C11.1348 39.0905 12.0345 38.1907 12.0345 37.0808C12.0345 35.9709 11.1348 35.0712 10.0249 35.0712C8.91501 35.0712 8.01526 35.9709 8.01526 37.0808C8.01526 38.1907 8.91501 39.0905 10.0249 39.0905Z" fill="#A56021"/>
<path d="M6.55363 15.2866H1.69165V42.7441H6.55363V15.2866Z" fill="#A56021"/>
<path d="M20.0077 23.8667H15.0513V28.8232H20.0077V23.8667Z" fill="#8C4C17"/>
<path d="M37.1812 29.6028C33.3075 30.2821 17.9428 29.0897 15.0988 28.8603C14.8421 28.8396 14.6448 28.6288 14.6448 28.3757V25.8244C14.6448 25.5713 14.8422 25.3605 15.0988 25.3398C17.9428 25.1105 33.3075 23.9181 37.1812 24.5974C37.6546 24.6804 37.9999 25.0829 37.9999 25.5554V28.6446C37.9999 29.1173 37.6546 29.5197 37.1812 29.6028Z" fill="#A56021"/>
<path d="M20.1866 24.0672H14.8726C14.2 24.0672 13.6548 23.5219 13.6548 22.8494V19.7875H21.4044V22.8494C21.4044 23.5219 20.8592 24.0672 20.1866 24.0672Z" fill="#FFA730"/>
<path d="M16.8491 27.5962C16.5924 27.5755 16.395 27.3648 16.395 27.1117V25.238C15.8422 25.2806 15.3997 25.3157 15.0988 25.3399C14.8422 25.3606 14.6448 25.5714 14.6448 25.8245V28.3758C14.6448 28.6289 14.8422 28.8396 15.0988 28.8603C17.9428 29.0897 33.3075 30.2821 37.1812 29.6028C37.6546 29.5197 37.9999 29.1173 37.9999 28.6448V28.4509C33.0463 28.8617 19.5018 27.8102 16.8491 27.5962Z" fill="#8C4C17"/>
<path d="M16.572 22.1212H21.4044V19.7875H13.6548V22.9002C13.6548 23.5447 14.1772 24.0671 14.8216 24.0671H16.572V22.1212Z" fill="#E58D23"/>
<path d="M33.3676 4.77379H1.69165V2.53704C1.69165 1.13588 2.82753 0 4.22869 0H30.8304C32.2316 0 33.3675 1.13588 33.3675 2.53704V4.77379H33.3676Z" fill="#FFC34C"/>
<path d="M8.98462 1.06961H32.9508C32.5137 0.424193 31.7747 0 30.9365 0H4.12264C2.78004 0 1.69165 1.08839 1.69165 2.43099V4.77379H6.55363V3.50071C6.55363 2.158 7.64202 1.06961 8.98462 1.06961Z" fill="#F9BB32"/>
<path d="M9.9358 21.0658L8.90759 18.9293V11.2713H4.95316V18.9293L3.92495 21.0658C3.80064 21.324 3.98889 21.6235 4.27547 21.6235H9.58529C9.87197 21.6235 10.0601 21.324 9.9358 21.0658Z" fill="#FFDF74"/>
<path d="M26.4755 11.2712H29.6844C29.6844 11.2712 29.6844 19.7778 28.9178 21.6235H27.2421H28.9178H27.2421C26.4755 19.7778 26.4755 11.2712 26.4755 11.2712H29.6844H26.4755Z" fill="#FFDF74"/>
<path d="M26.4755 11.2713C26.4755 11.2713 26.4755 19.7778 27.2421 21.6235H28.5062C27.7396 19.7778 27.7396 11.2713 27.7396 11.2713H26.4755Z" fill="#FFD551"/>
<path d="M5.48077 21.0658L6.50898 18.9293V11.2713H4.95316V18.9293L3.92495 21.0658C3.80064 21.324 3.98889 21.6235 4.27547 21.6235H5.83128C5.5447 21.6235 5.35655 21.324 5.48077 21.0658Z" fill="#FFD551"/>
<path d="M33.2323 48.0365H1.82667C0.817839 48.0365 0 47.2186 0 46.2098V42.4487C0 41.4399 0.817839 40.622 1.82667 40.622H33.2323C34.2412 40.622 35.059 41.4399 35.059 42.4487V46.2098C35.059 47.2186 34.2412 48.0365 33.2323 48.0365Z" fill="#E58D23"/>
<path d="M25.3412 48.0365H9.71802L11.4405 44.7569C11.7765 44.1171 12.4395 43.7164 13.1622 43.7164H21.897C22.6197 43.7164 23.2827 44.1172 23.6187 44.7569L25.3412 48.0365Z" fill="#BF6C0D"/>
<path d="M33.3676 3.98772H1.69165V16.4473H9.84447C10.3092 16.4473 10.7037 16.7772 10.7985 17.2321C11.0717 18.5433 11.5779 19.8014 12.3 20.9441C12.5673 21.367 13.0327 21.6234 13.533 21.6234H21.526C22.0263 21.6234 22.4917 21.3669 22.759 20.9441C23.4812 19.8014 23.9873 18.5433 24.2605 17.2321C24.3553 16.7771 24.7499 16.4473 25.2146 16.4473H33.3674V3.98772H33.3676Z" fill="#F9BB32"/>
<path d="M17.5296 15.2869C19.7473 15.2869 21.5451 13.4891 21.5451 11.2713C21.5451 9.05364 19.7473 7.25583 17.5296 7.25583C15.3118 7.25583 13.514 9.05364 13.514 11.2713C13.514 13.4891 15.3118 15.2869 17.5296 15.2869Z" fill="#FCDA4F"/>
<path d="M17.5295 14.3145C19.2101 14.3145 20.5726 12.952 20.5726 11.2714C20.5726 9.59068 19.2101 8.22823 17.5295 8.22823C15.8488 8.22823 14.4863 9.59068 14.4863 11.2714C14.4863 12.952 15.8488 14.3145 17.5295 14.3145Z" fill="#FFEACF"/>
<path d="M6.8601 13.767C7.96999 13.767 8.86974 12.8672 8.86974 11.7573C8.86974 10.6475 7.96999 9.74771 6.8601 9.74771C5.75021 9.74771 4.85046 10.6475 4.85046 11.7573C4.85046 12.8672 5.75021 13.767 6.8601 13.767Z" fill="#FCDA4F"/>
<path d="M28.08 13.767C29.1898 13.767 30.0896 12.8672 30.0896 11.7573C30.0896 10.6475 29.1898 9.74771 28.08 9.74771C26.9701 9.74771 26.0703 10.6475 26.0703 11.7573C26.0703 12.8672 26.9701 13.767 28.08 13.767Z" fill="#FCDA4F"/>
<path d="M17.5293 12.1383C17.4364 12.1383 17.343 12.1065 17.2667 12.0417L15.484 10.5268C15.3132 10.3816 15.2924 10.1254 15.4375 9.95452C15.5827 9.78373 15.839 9.76293 16.0098 9.90805L17.7925 11.423C17.9633 11.5682 17.9841 11.8243 17.839 11.9952C17.7586 12.0897 17.6443 12.1383 17.5293 12.1383Z" fill="#FF624B"/>
<path d="M18.3951 19.6787C17.8948 19.6787 17.4294 19.4222 17.1621 18.9994C16.4399 17.8567 15.9338 16.5985 15.6606 15.2874C15.5658 14.8325 15.1713 14.5026 14.7066 14.5026H6.55375V3.98772H1.69177V16.4473H9.84459C10.3093 16.4473 10.7038 16.7772 10.7986 17.2321C11.0718 18.5433 11.578 19.8014 12.3001 20.9441C12.5674 21.367 13.0328 21.6234 13.5331 21.6234H21.5261C22.0264 21.6234 22.4918 21.3669 22.7591 20.9441C23.0169 20.5362 23.2459 20.113 23.4479 19.6786H18.3951V19.6787Z" fill="#DB9C2E"/>
<path d="M30.0766 14.5025C29.6119 14.5025 29.2173 14.8324 29.1226 15.2873C29.0409 15.6796 28.9357 16.0663 28.8127 16.4473H33.3674V14.5025H30.0766Z" fill="#DB9C2E"/>
<path d="M6.65082 9.7735C5.68684 9.92146 4.94775 10.752 4.94775 11.7574C4.94775 12.7627 5.68684 13.5933 6.65082 13.7412V9.7735Z" fill="#FFD551"/>
<path d="M27.491 46.7631C28.6009 46.7631 29.5006 45.8633 29.5006 44.7534C29.5006 43.6436 28.6009 42.7438 27.491 42.7438C26.3811 42.7438 25.4813 43.6436 25.4813 44.7534C25.4813 45.8633 26.3811 46.7631 27.491 46.7631Z" fill="#A56021"/>
<path d="M36.816 27.9037C36.7671 27.9037 36.7173 27.8977 36.6677 27.8853C36.3415 27.8036 36.1432 27.473 36.2249 27.1468C36.3209 26.7633 36.3003 26.4871 36.1635 26.3257C35.9207 26.0395 35.3072 26.0207 35.1116 26.0364C34.7771 26.0644 34.4828 25.8158 34.4541 25.4819C34.4253 25.1479 34.6702 24.8537 35.004 24.8234C35.1443 24.8106 36.3936 24.7221 37.087 25.532C37.3684 25.8607 37.6524 26.4591 37.4062 27.4425C37.337 27.7191 37.0887 27.9037 36.816 27.9037Z" fill="#BF6C0D"/>
<path d="M31.5763 40.0537C31.2401 40.0537 30.9674 39.781 30.9674 39.4448V30.9872C30.9674 30.651 31.2401 30.3783 31.5763 30.3783C31.9125 30.3783 32.1852 30.651 32.1852 30.9872V39.4448C32.1852 39.781 31.9126 40.0537 31.5763 40.0537Z" fill="#DB9C2E"/>
<path d="M31.8887 11.0968C31.5525 11.0968 31.2798 10.8241 31.2798 10.4879V4.40814C31.2798 4.07194 31.5525 3.79926 31.8887 3.79926C32.2249 3.79926 32.4976 4.07194 32.4976 4.40814V10.4879C32.4976 10.8242 32.2249 11.0968 31.8887 11.0968Z" fill="#FFD551"/>
<path d="M24.1712 35.216C23.4384 34.36 21.9216 34.4562 20.7834 35.4307C19.6452 36.4053 19.3165 37.8892 20.0494 38.7451C20.7823 39.601 22.299 39.5049 23.4372 38.5304C24.5754 37.5559 24.904 36.0719 24.1712 35.216ZM22.8066 37.7938C22.3868 38.1533 21.8874 38.3595 21.4366 38.3595C21.4366 38.3595 21.4366 38.3595 21.4365 38.3595C21.2354 38.3595 20.9591 38.317 20.7858 38.1145C20.4564 37.7298 20.6334 36.8355 21.4139 36.1673C21.8337 35.8078 22.3331 35.6016 22.784 35.6016C22.9851 35.6016 23.2612 35.6441 23.4347 35.8466C23.7641 36.2312 23.5871 37.1256 22.8066 37.7938Z" fill="#FCF9DE"/>
<path d="M23.1806 35.7054C23.3459 36.1455 23.1227 36.8926 22.4475 37.4707C22.0276 37.8302 21.5283 38.0364 21.0775 38.0364C21.0775 38.0364 21.0775 38.0364 21.0774 38.0364C20.8762 38.0364 20.6 37.9939 20.4267 37.7914C20.0973 37.4067 20.2742 36.5124 21.0547 35.8442C21.1123 35.7949 21.1714 35.7488 21.2316 35.7055H19.8686C19.1999 36.6193 19.0954 37.7275 19.6902 38.4221C20.4231 39.2781 21.9399 39.1819 23.0781 38.2074C23.9076 37.4971 24.3065 36.5165 24.1785 35.7055H23.1806V35.7054Z" fill="#99AF17"/>
<path d="M24.1712 35.216C23.4384 34.36 21.9216 34.4562 20.7834 35.4307C19.6452 36.4053 19.3165 37.8892 20.0494 38.7451C20.7823 39.601 22.299 39.5049 23.4372 38.5304C24.5754 37.5559 24.904 36.0719 24.1712 35.216ZM22.8066 37.7938C22.3868 38.1533 21.8874 38.3595 21.4366 38.3595C21.4366 38.3595 21.4366 38.3595 21.4365 38.3595C21.2354 38.3595 20.9591 38.317 20.7858 38.1145C20.4564 37.7298 20.6334 36.8355 21.4139 36.1673C21.8337 35.8078 22.3331 35.6016 22.784 35.6016C22.9851 35.6016 23.2612 35.6441 23.4347 35.8466C23.7641 36.2312 23.5871 37.1256 22.8066 37.7938Z" fill="#EACF32"/>
<path d="M20.7831 35.4306C19.6449 36.4052 19.3162 37.8891 20.0491 38.745C20.6512 39.4483 21.7823 39.5083 22.7981 38.9671L23.1131 37.4847C23.0238 37.5911 22.922 37.6949 22.8065 37.7937C22.3866 38.1532 21.8872 38.3594 21.4365 38.3594C21.4365 38.3594 21.4365 38.3594 21.4364 38.3594C21.2352 38.3594 20.959 38.3169 20.7857 38.1144C20.4563 37.7297 20.6332 36.8354 21.4137 36.1672C21.8336 35.8077 22.333 35.6015 22.7838 35.6015C22.985 35.6015 23.2611 35.6441 23.4345 35.8465C23.4418 35.8551 23.4486 35.8643 23.4555 35.8733L23.677 34.8311C22.876 34.4283 21.7054 34.6411 20.7831 35.4306Z" fill="#CCC033"/>
<path d="M19.8585 41.0385H16.071C15.4509 41.0385 14.9154 40.6048 14.7865 39.9983L13.4466 33.6921C13.397 33.4587 13.575 33.239 13.8135 33.239H22.1159C22.3545 33.239 22.5325 33.4588 22.4829 33.6921L21.1429 39.9983C21.0141 40.6049 20.4785 41.0385 19.8585 41.0385Z" fill="#CCC033"/>
<path d="M16.2227 39.9983L14.8827 33.6921C14.8331 33.4587 15.0111 33.239 15.2497 33.239H13.8135C13.575 33.239 13.397 33.4588 13.4466 33.6921L14.7865 39.9983C14.9154 40.6048 15.4509 41.0385 16.071 41.0385H17.5072C16.8871 41.0385 16.3516 40.6049 16.2227 39.9983Z" fill="#99AF17"/>
<path d="M20.5398 36.4883C20.5223 36.4883 20.5046 36.4865 20.4868 36.4827C20.3497 36.4536 20.2622 36.3189 20.2914 36.1818L20.4031 35.6562C20.4322 35.5191 20.5667 35.432 20.704 35.4608C20.8411 35.4899 20.9286 35.6246 20.8994 35.7617L20.7877 36.2872C20.7623 36.4065 20.657 36.4883 20.5398 36.4883Z" fill="#EACF32"/>
<path d="M19.9107 39.808C19.8932 39.808 19.8754 39.8062 19.8577 39.8025C19.7206 39.7733 19.6332 39.6386 19.6623 39.5016L20.1758 37.0861C20.205 36.949 20.3396 36.8617 20.4767 36.8907C20.6138 36.9199 20.7012 37.0546 20.6721 37.1916L20.1586 39.6071C20.1332 39.7263 20.0279 39.808 19.9107 39.808Z" fill="#EACF32"/>
</svg>
