<svg width="37" height="52" viewBox="0 0 37 52" fill="none" xmlns="http://www.w3.org/2000/svg">
<path d="M32.5466 15.7347C32.7291 16.0585 32.8344 16.4315 32.8344 16.8296V37.6852C32.8344 38.9193 31.834 39.9197 30.5999 39.9197H25.681V42.6329H32.7547C34.2972 42.6329 35.5477 41.3824 35.5477 39.8399V15.7347H32.5466Z" fill="#8C4C17"/>
<path d="M34.2068 13.2224H27.1332V15.9358H32.0521C33.2861 15.9358 34.2865 16.9361 34.2865 18.1702V39.0259C34.2865 40.26 33.2861 41.2603 32.0521 41.2603H27.1332V43.9736H34.2068C35.7494 43.9736 36.9999 42.7231 36.9999 41.1806V16.0154C36.9999 14.4729 35.7494 13.2224 34.2068 13.2224Z" fill="#E58D23"/>
<path d="M32.0521 41.2602H27.1332V43.9735H33.1982V40.9413C32.8628 41.1425 32.4717 41.2602 32.0521 41.2602Z" fill="#BF6C0D"/>
<path d="M32.0521 15.9358C32.4716 15.9358 32.8627 16.0535 33.1982 16.2547V14.1163C33.1982 13.6227 32.798 13.2225 32.3044 13.2225H27.1332V15.9359H32.0521V15.9358Z" fill="#BF6C0D"/>
<path d="M8.05783 21.5735H7.75618C3.47254 21.5735 0 18.101 0 13.8173V13.6693C0 13.4225 0.200094 13.2224 0.446887 13.2224H8.05783V21.5735Z" fill="#FFEACF"/>
<path d="M2.40962 13.2224H0.446887C0.200094 13.2224 0 13.4225 0 13.6693V13.8173C0 18.101 3.47254 21.5735 7.75618 21.5735H8.05783V19.0962C5.23037 18.3709 3.02721 16.0914 2.40962 13.2224Z" fill="#FFD59A"/>
<path d="M29.8467 43.9736H7.15332V13.2224H28.9529C29.4465 13.2224 29.8467 13.6226 29.8467 14.1162V43.9736Z" fill="#FFEACF"/>
<path d="M25.9364 51.7573H11.0636C8.904 51.7573 7.15332 50.0066 7.15332 47.847V43.9735H29.8467V47.847C29.8467 50.0066 28.096 51.7573 25.9364 51.7573Z" fill="#A56021"/>
<path d="M19.8176 3.35568H17.1825V41.5918H19.8176V3.35568Z" fill="#DB9C2E"/>
<path d="M18.6349 3.35568H17.1825V41.5918H18.6349V3.35568Z" fill="#BF6C0D"/>
<path d="M14.7859 1.11722C14.7859 1.51484 14.8587 1.9091 15.001 2.28047L16.0176 4.93609C16.15 5.28199 16.4819 5.51034 16.8523 5.51034H20.1479C20.5182 5.51034 20.8502 5.28199 20.9825 4.93609L21.9992 2.28047C22.1413 1.9091 22.2143 1.51495 22.2143 1.11733V1.11722C22.2143 0.500179 21.7141 0 21.0971 0H15.9032C15.2862 0 14.7859 0.500291 14.7859 1.11722Z" fill="#FFD551"/>
<path d="M18.2521 4.93609L17.2354 2.28047C17.0933 1.9091 17.0203 1.51495 17.0203 1.11733V1.11722C17.0203 0.500179 17.5205 0 18.1375 0H15.9031C15.2861 0 14.7859 0.500179 14.7859 1.11722V1.11733C14.7859 1.51495 14.8587 1.90921 15.001 2.28047L16.0176 4.93609C16.15 5.28199 16.4819 5.51034 16.8523 5.51034H19.0867C18.7164 5.51034 18.3844 5.28199 18.2521 4.93609Z" fill="#F9BB32"/>
<path d="M12.7394 13.2224H7.15332V43.9736H12.7394V13.2224Z" fill="#FFD59A"/>
<path d="M27.4729 42.7978H9.41746C8.92387 42.7978 8.52368 42.3977 8.52368 41.9041V41.2798C8.52368 40.7862 8.92387 40.386 9.41746 40.386H27.4729C27.9665 40.386 28.3667 40.7862 28.3667 41.2798V41.9041C28.3667 42.3977 27.9665 42.7978 27.4729 42.7978Z" fill="#F9BB32"/>
<path d="M12.9926 42.2853C12.9926 41.7917 13.3927 41.3915 13.8863 41.3915H28.3667V41.2798C28.3667 40.7862 27.9665 40.386 27.4729 40.386H9.41746C8.92387 40.386 8.52368 40.7862 8.52368 41.2798V41.9041C8.52368 42.3977 8.92387 42.7978 9.41746 42.7978H12.9926V42.2853Z" fill="#DB9C2E"/>
<path d="M12.7394 47.847V43.9735H7.15332V47.847C7.15332 50.0066 8.904 51.7573 11.0636 51.7573H16.6497C14.4901 51.7574 12.7394 50.0066 12.7394 47.847Z" fill="#8C4C17"/>
<path d="M28.9529 13.2224H8.0471C7.55351 13.2224 7.15332 12.8222 7.15332 12.3286V10.9829C7.15332 9.13181 8.65386 7.63127 10.505 7.63127H26.4951C28.3462 7.63127 29.8467 9.13181 29.8467 10.9829V12.3286C29.8467 12.8222 29.4465 13.2224 28.9529 13.2224Z" fill="#E58D23"/>
<path d="M13.6332 11.5466C13.1396 11.5466 12.7394 11.1464 12.7394 10.6528V9.3071C12.7394 8.69643 12.9035 8.12441 13.1889 7.63127H10.505C8.65386 7.63127 7.15332 9.13181 7.15332 10.9829V12.3286C7.15332 12.8222 7.55351 13.2224 8.0471 13.2224H28.9529C29.4465 13.2224 29.8467 12.8222 29.8467 12.3286V11.5466H13.6332Z" fill="#BF6C0D"/>
<path d="M27.1333 19.6742C26.7632 19.6742 26.463 19.3741 26.463 19.0039V17.2761C26.463 16.9059 26.7632 16.6058 27.1333 16.6058C27.5035 16.6058 27.8037 16.9059 27.8037 17.2761V19.0039C27.8037 19.3741 27.5036 19.6742 27.1333 19.6742Z" fill="#FCF9DE"/>
<path d="M27.1333 41.145C26.7632 41.145 26.463 40.8449 26.463 40.4747V21.8997C26.463 21.5295 26.7632 21.2294 27.1333 21.2294C27.5035 21.2294 27.8037 21.5295 27.8037 21.8997V40.4747C27.8037 40.8448 27.5036 41.145 27.1333 41.145Z" fill="#FCF9DE"/>
<path d="M35.668 32.4197C35.2979 32.4197 34.9977 32.1196 34.9977 31.7493V19.8457C34.9977 19.4755 35.2979 19.1754 35.668 19.1754C36.0381 19.1754 36.3383 19.4755 36.3383 19.8457V31.7493C36.3383 32.1196 36.0381 32.4197 35.668 32.4197Z" fill="#FFA730"/>
<path d="M28.2195 11.5441C27.8589 11.5441 27.5612 11.2577 27.5499 10.8948C27.5147 9.77153 26.396 9.57959 26.2685 9.56138C25.9039 9.50932 25.647 9.1727 25.6962 8.80782C25.7453 8.44293 26.0765 8.18552 26.4423 8.232C27.2638 8.33635 28.8325 9.0183 28.8899 10.8528C28.9015 11.2228 28.6109 11.5322 28.2408 11.5438C28.2338 11.544 28.2266 11.5441 28.2195 11.5441Z" fill="#FFA730"/>
<path d="M19.9529 4.65165C19.896 4.65165 19.8385 4.64439 19.781 4.62919C19.4231 4.53445 19.2097 4.16756 19.3045 3.8096L19.9748 1.2772C20.0695 0.919247 20.4367 0.706082 20.7943 0.80071C21.1521 0.89545 21.3655 1.26235 21.2708 1.6203L20.6004 4.1527C20.521 4.45312 20.2496 4.65165 19.9529 4.65165Z" fill="#FFDF74"/>
<path d="M24.652 49.8363C24.2748 49.8363 23.8661 49.8028 23.4261 49.7355C23.0601 49.6796 22.8089 49.3376 22.8649 48.9716C22.9207 48.6056 23.2633 48.3544 23.6287 48.4103C24.9228 48.6082 25.8152 48.4677 26.21 48.0045C26.6832 47.4495 26.3962 46.464 26.3931 46.4543C26.28 46.1018 26.4741 45.7243 26.8266 45.6111C27.179 45.4978 27.5565 45.6921 27.6697 46.0446C27.6917 46.1133 28.1981 47.7391 27.2303 48.8743C26.6845 49.5144 25.8199 49.8363 24.652 49.8363Z" fill="#BF6C0D"/>
<path d="M22.7492 38.1959C23.6747 38.1959 24.425 37.4456 24.425 36.5201C24.425 35.5945 23.6747 34.8443 22.7492 34.8443C21.8237 34.8443 21.0734 35.5945 21.0734 36.5201C21.0734 37.4456 21.8237 38.1959 22.7492 38.1959Z" fill="#FFD59A"/>
<path d="M14.961 18.3025C15.8865 18.3025 16.6368 17.5522 16.6368 16.6267C16.6368 15.7011 15.8865 14.9508 14.961 14.9508C14.0354 14.9508 13.2852 15.7011 13.2852 16.6267C13.2852 17.5522 14.0354 18.3025 14.961 18.3025Z" fill="#FFD59A"/>
<path d="M15.8654 49.6948C16.7909 49.6948 17.5412 48.9445 17.5412 48.0189C17.5412 47.0934 16.7909 46.3431 15.8654 46.3431C14.9399 46.3431 14.1896 47.0934 14.1896 48.0189C14.1896 48.9445 14.9399 49.6948 15.8654 49.6948Z" fill="#8C4C17"/>
</svg>
