<svg width="36" height="32" viewBox="0 0 36 32" fill="none" xmlns="http://www.w3.org/2000/svg">
<path d="M0 15.042C0 15.6667 0.482614 16.2609 1.29703 16.2609C1.71931 16.2609 2.06619 16.0324 2.38291 15.7734L17.4797 2.97488C17.8115 2.67016 18.2187 2.67016 18.5505 2.97488L33.6473 15.7734C33.9489 16.0324 34.2958 16.2609 34.7181 16.2609C35.4269 16.2609 36 15.8191 36 15.0877C36 14.6306 35.8492 14.3259 35.5325 14.0517L31.3096 10.4559V4.36139C31.3096 3.69099 30.8873 3.26437 30.2237 3.26437H28.61C27.9615 3.26437 27.5241 3.69099 27.5241 4.36139V7.24104L19.8324 0.719914C18.7164 -0.239971 17.3289 -0.239971 16.1977 0.719914L0.482614 14.0517C0.150817 14.3259 0 14.6916 0 15.042ZM4.70549 28.648C4.70549 30.7506 5.97235 32 8.09887 32H27.9313C30.0578 32 31.3096 30.7506 31.3096 28.648V16.5656L18.9124 6.06785C18.3393 5.58029 17.6607 5.59552 17.1026 6.06785L4.70549 16.5656V28.648ZM21.8986 29.547H14.1165V19.4758C14.1165 18.7749 14.584 18.3178 15.2778 18.3178H20.7524C21.4462 18.3178 21.8986 18.7749 21.8986 19.4758V29.547Z" fill="#FCD7AD"/>
</svg>
