<svg width="77" height="44" viewBox="0 0 77 44" fill="none" xmlns="http://www.w3.org/2000/svg">
<path d="M69.3739 12.9748C70.0472 16.4502 68.4856 20.7729 65.063 23.9701C60.4299 28.2982 54.1457 28.9228 51.0272 25.3652C48.3367 22.296 48.8835 17.118 52.0584 12.9748H45.3602C44.688 14.3932 44.1951 15.8715 43.907 17.3719C43.043 21.8704 44.0994 26.2213 46.8057 29.3083C49.512 32.3955 53.6003 33.9141 58.0226 33.4744C61.8837 33.0909 65.7405 31.2629 68.8826 28.3276C72.0248 25.3922 74.1708 21.6125 74.9253 17.6848C75.2338 16.0789 75.2961 14.4921 75.1273 12.9748H69.3739V12.9748Z" fill="#FFAD0B"/>
<path d="M73.8065 9.30807C71.1002 6.22088 67.0118 4.7023 62.5897 5.14175C58.7286 5.52566 54.8717 7.35359 51.7295 10.2888C48.5873 13.2241 46.4413 17.0037 45.687 20.9315C44.8231 25.4299 45.8794 29.7808 48.5857 32.8678C51.292 35.955 55.3804 37.4736 59.8026 37.034C63.6637 36.6504 67.5205 34.8225 70.6627 31.8871C73.8049 28.9518 75.9508 25.172 76.7053 21.2444C77.5695 16.746 76.5127 12.3953 73.8065 9.30807ZM66.8429 27.5298C62.2097 31.8579 55.9255 32.4825 52.807 28.9249C49.6883 25.3673 50.9163 18.9745 55.5493 14.6464C60.1824 10.3183 66.4666 9.69377 69.5853 13.2514C72.704 16.809 71.4763 23.2017 66.8429 27.5298Z" fill="#FFEACF"/>
<path d="M62.6584 30.2879C58.9317 31.879 55.0504 31.4842 52.807 28.9249C49.6883 25.3673 50.9163 18.9746 55.5493 14.6464C60.1824 10.3183 66.4666 9.6936 69.5853 13.2514C70.0431 13.7736 70.4046 14.3581 70.678 14.9869C71.2942 12.5889 71.6907 10.0882 71.8461 7.51379C69.2982 5.65098 66.0459 4.79842 62.5897 5.14194C58.7286 5.52568 54.8717 7.35378 51.7295 10.289C48.5873 13.2243 46.4413 17.0041 45.687 20.9317C44.8231 25.4301 45.8794 29.781 48.5857 32.868C50.2748 34.7949 52.5023 36.1106 55.0134 36.7206C57.8446 35.0032 60.4188 32.8287 62.6584 30.2879Z" fill="#FFBE63"/>
<path d="M39.1626 43.3851H25.2391C21.7986 43.3851 19.0095 40.5961 19.0095 37.1556V31.8628H45.3922V37.1556C45.3922 40.5961 42.6031 43.3851 39.1626 43.3851Z" fill="#FFAD0B"/>
<path d="M62.1328 0.183197H2.6698C1.19536 0.183197 0 1.37856 0 2.853V5.06734C0 24.9674 14.5067 41.0994 32.4013 41.0994C50.2959 41.0994 64.8024 24.9672 64.8024 5.06734V2.853C64.8026 1.37856 63.6072 0.183197 62.1328 0.183197Z" fill="#FFEACF"/>
<path d="M41.3006 39.3195C23.406 39.3195 8.89935 23.1873 8.89935 3.28747V1.07313C8.89935 0.760587 8.95577 0.461925 9.05455 0.183197H2.6698C1.19536 0.183197 0 1.37838 0 2.853V5.06734C0 24.9674 14.5067 41.0994 32.4013 41.0994C35.9505 41.0994 39.3657 40.4625 42.5617 39.2898C42.1432 39.3076 41.7232 39.3195 41.3006 39.3195Z" fill="#FFBE63"/>
<path d="M32.4013 36.6499C16.9887 36.6499 4.44971 22.4819 4.44971 5.06735C4.44971 4.82742 4.64407 4.63306 4.884 4.63306H59.9185C60.1584 4.63306 60.3528 4.82742 60.3528 5.06735C60.3528 22.4819 47.8139 36.6499 32.4013 36.6499Z" fill="#A56021"/>
<path d="M4.44971 5.06718C4.44971 20.9199 14.8408 34.0801 28.3308 36.3139C17.2418 30.9207 9.39294 18.8257 8.92412 4.63289H4.884C4.64407 4.63289 4.44971 4.82725 4.44971 5.06718Z" fill="#8C4C17"/>
<path d="M44.0179 30.8924C43.5996 30.8924 43.2027 30.6451 43.0319 30.2349C42.8051 29.6904 43.0625 29.0652 43.6067 28.8384C52.8564 24.9844 54.2749 11.6988 54.2883 11.5651C54.3465 10.9785 54.8692 10.5508 55.4557 10.6072C56.0423 10.6649 56.4713 11.1867 56.4142 11.7734C56.3996 11.9223 56.0395 15.4703 54.4155 19.582C52.23 25.1158 48.7764 28.9986 44.4285 30.8101C44.2941 30.8658 44.1548 30.8924 44.0179 30.8924Z" fill="#FFD59A"/>
<path d="M21.2809 27.027C22.7554 27.027 23.9507 25.8317 23.9507 24.3572C23.9507 22.8827 22.7554 21.6874 21.2809 21.6874C19.8064 21.6874 18.6111 22.8827 18.6111 24.3572C18.6111 25.8317 19.8064 27.027 21.2809 27.027Z" fill="#8C4C17"/>
<path d="M28.3307 32.5103C29.8052 32.5103 31.0005 31.315 31.0005 29.8405C31.0005 28.366 29.8052 27.1707 28.3307 27.1707C26.8562 27.1707 25.6609 28.366 25.6609 29.8405C25.6609 31.315 26.8562 32.5103 28.3307 32.5103Z" fill="#8C4C17"/>
</svg>
