<svg width="82" height="82" viewBox="0 0 82 82" fill="none" xmlns="http://www.w3.org/2000/svg">
<path d="M0 20C0 8.95431 8.95431 0 20 0H62C73.0457 0 82 8.95431 82 20V62C82 73.0457 73.0457 82 62 82H20C8.95431 82 0 73.0457 0 62V20Z" fill="#FCD7AD"/>
<path d="M50.6097 25.1926L49.5591 25.7766C42.3941 16.9892 29.766 14.3162 19.5123 20.0163C9.25851 25.7164 4.84726 37.8617 8.5079 48.5973L5.70803 50.1538C4.10593 51.0444 3.52821 53.0669 4.41771 54.671L5.52654 56.6707C6.41604 58.2749 8.43602 58.8533 10.0381 57.9627L12.9049 56.369C20.115 64.8895 32.5546 67.4195 42.6773 61.7922C52.7999 56.165 57.2328 44.2554 53.8223 33.6227L54.94 33.0014C56.5423 32.1107 57.1198 30.0883 56.2303 28.4841L55.1215 26.4845C54.2318 24.8805 52.2118 24.302 50.6097 25.1926Z" fill="#EDA034"/>
<path d="M22.9951 50.7598L20.1283 52.3535C18.5262 53.2441 16.5065 52.6655 15.617 51.0614L14.5081 49.0617C13.6186 47.4576 14.1961 45.4352 15.7982 44.5446L18.5981 42.9881C15.559 34.0747 18.0881 24.1934 24.9014 17.8322C23.0624 18.3284 21.2527 19.0487 19.5123 20.0163C9.25851 25.7164 4.84726 37.8617 8.5079 48.5973L5.70803 50.1538C4.10593 51.0444 3.52821 53.0669 4.41771 54.671L5.52654 56.6707C6.41604 58.2749 8.43602 58.8533 10.0381 57.9627L12.9049 56.369C20.115 64.8895 32.5546 67.4195 42.6773 61.7922C44.4178 60.8247 45.9854 59.6678 47.3784 58.3673C38.5211 60.7575 28.9655 57.8153 22.9951 50.7598Z" fill="#FFC34C"/>
<path d="M16.5148 38.1985C16.1597 38.3959 15.7267 38.4504 15.31 38.3149L8.1924 35.9931C7.39709 35.7336 6.96227 34.8776 7.22148 34.0813C7.48069 33.285 8.33599 32.8503 9.13071 33.1093L16.2483 35.431C17.0436 35.6905 17.4785 36.5465 17.2192 37.3428C17.096 37.7215 16.8377 38.019 16.5148 38.1985Z" fill="#BF6C0D"/>
<path d="M21.3597 24.3285C21.3265 24.3469 21.2928 24.3642 21.2578 24.3802L12.8619 28.2611C12.1023 28.6123 11.2026 28.2804 10.8519 27.5199C10.501 26.7591 10.8343 25.8552 11.5922 25.5073L19.9881 21.6263C20.7476 21.2752 21.6474 21.607 21.9981 22.3676C22.3327 23.0934 22.0463 23.9468 21.3597 24.3285Z" fill="#BF6C0D"/>
<path d="M26.7638 35.2544C26.3652 35.476 25.872 35.5154 25.4221 35.3191C24.6554 34.9841 24.3051 34.0904 24.6395 33.3225L28.0279 25.5461C28.3627 24.7783 29.2555 24.428 30.0219 24.7625C30.7886 25.0975 31.139 25.9913 30.8045 26.7591L27.4162 34.5355C27.2777 34.8528 27.0441 35.0986 26.7638 35.2544Z" fill="#BF6C0D"/>
<path d="M34.6307 19.8432C34.4336 19.9527 34.2093 20.0199 33.969 20.0312L25.7784 20.4245C24.9428 20.4646 24.2332 19.8192 24.1928 18.9824C24.1527 18.1458 24.7976 17.4352 25.6332 17.3951L33.8238 17.0018C34.6594 16.9617 35.3689 17.6071 35.4093 18.4439C35.4379 19.04 35.1187 19.5719 34.6307 19.8432Z" fill="#BF6C0D"/>
<path d="M74.3274 56.1582H69.7458C67.2901 43.7863 56.2089 34.4485 42.9079 34.4485C29.6069 34.4485 18.5257 43.7863 16.07 56.1582H13.571C11.5427 56.1582 9.89813 57.8045 9.89813 59.8358V62.3228C9.89813 63.9485 10.9517 65.328 12.4127 65.8137H75.4854C76.9462 65.328 78 63.9487 78 62.3228V59.8358C78.0002 57.8045 76.3557 56.1582 74.3274 56.1582Z" fill="#FFEACF"/>
<path d="M22.1412 62.3227V59.8358C22.1412 57.8049 23.7855 56.1582 25.8142 56.1582H28.3132C30.38 45.7438 38.5594 37.481 49.0295 35.1262C47.0614 34.6835 45.0127 34.4485 42.9079 34.4485C29.6069 34.4485 18.5257 43.7863 16.07 56.1582H13.571C11.5427 56.1582 9.89813 57.8045 9.89813 59.8358V62.3228C9.89813 64.3537 11.5424 66 13.5711 66H25.8139C23.7855 66.0003 22.1412 64.354 22.1412 62.3227Z" fill="#FFD59A"/>
<path d="M38.0081 46.4114C37.4245 46.4114 36.8488 46.1437 36.4755 45.6374L32.1904 39.8254C31.5662 38.9788 31.7458 37.7856 32.5913 37.1606C33.4369 36.535 34.6283 36.7154 35.2528 37.562L39.5379 43.3741C40.1621 44.2207 39.9826 45.4139 39.137 46.0389C38.7966 46.2904 38.4005 46.4114 38.0081 46.4114Z" fill="#A56021"/>
<path d="M45.8527 45.8966C45.7581 45.8966 45.6627 45.8896 45.5669 45.875C44.5278 45.7184 43.8119 44.7476 43.9686 43.7072L45.0432 36.5642C45.1993 35.5235 46.1702 34.8073 47.2083 34.9639C48.2474 35.1205 48.9632 36.0913 48.8065 37.1317L47.7319 44.2747C47.5902 45.2189 46.7782 45.8966 45.8527 45.8966Z" fill="#A56021"/>
<path d="M53.2357 43.8399C52.4383 43.8399 51.6954 43.334 51.4303 42.535C51.0985 41.5362 51.6383 40.4577 52.6359 40.1259L59.4825 37.8472C60.4784 37.515 61.5572 38.0552 61.8886 39.0543C62.2204 40.0531 61.6805 41.1316 60.683 41.4635L53.8364 43.7421C53.6369 43.8082 53.4345 43.8399 53.2357 43.8399Z" fill="#A56021"/>
</svg>
