<svg width="111" height="232" viewBox="0 0 111 232" fill="none" xmlns="http://www.w3.org/2000/svg">
<path d="M97.1436 172.723C98.4655 176.243 96.6805 182.218 91.2805 186.841C87.9228 189.716 83.9293 191.365 80.3247 191.365C80.3243 191.365 80.3247 191.365 80.324 191.365C78.7153 191.365 76.5064 191.024 75.12 189.405C72.4861 186.329 73.9012 179.177 80.1428 173.833C80.6031 173.438 81.0762 173.07 81.5576 172.723H70.6568C65.3087 180.031 64.4737 188.893 69.2299 194.448C75.0906 201.293 87.2208 200.524 96.3235 192.731C102.957 187.051 106.148 179.209 105.124 172.723H97.1436V172.723Z" fill="#FFC34C"/>
<path d="M105.065 168.81C99.2042 161.964 87.074 162.733 77.9713 170.527C68.8687 178.32 66.2407 190.187 72.1014 197.033C77.962 203.878 90.0923 203.109 99.1949 195.316C108.298 187.522 110.926 175.655 105.065 168.81ZM94.152 189.425C90.7943 192.3 86.8007 193.949 83.1961 193.949C81.5874 193.949 79.3778 193.608 77.9914 191.989C75.3576 188.913 76.7727 181.761 83.0143 176.417C86.372 173.542 90.3655 171.893 93.9712 171.893C95.5799 171.893 97.7881 172.233 99.1748 173.852C101.809 176.929 100.394 184.081 94.152 189.425Z" fill="#FFC985"/>
<path d="M77.9713 170.526C68.8687 178.32 66.2407 190.187 72.1014 197.032C76.9164 202.656 85.9622 203.136 94.0855 198.808L96.6043 186.954C95.8899 187.805 95.0749 188.635 94.152 189.425C90.7943 192.3 86.8007 193.949 83.1961 193.949C83.1958 193.949 83.1961 193.949 83.1954 193.949C81.5867 193.949 79.3778 193.608 77.9914 191.989C75.3576 188.913 76.7727 181.761 83.0143 176.417C86.372 173.542 90.3655 171.893 93.9712 171.893C95.5799 171.893 97.7881 172.233 99.1748 173.852C99.2337 173.921 99.2881 173.994 99.3428 174.067L101.114 165.732C94.7085 162.511 85.3465 164.212 77.9713 170.526Z" fill="#FFD59A"/>
<path d="M70.5764 215.373H40.2876C35.3292 215.373 31.0465 211.905 30.0158 207.055L19.2999 156.624C18.9034 154.758 20.3268 153 22.2347 153H88.6293C90.5373 153 91.9607 154.758 91.5641 156.624L80.8483 207.055C79.8176 211.905 75.5349 215.373 70.5764 215.373Z" fill="#FFDBAE"/>
<path d="M41.5005 207.055L30.7846 156.624C30.3881 154.758 31.8115 153 33.7194 153H22.2347C20.3268 153 18.9034 154.758 19.2999 156.624L30.0158 207.055C31.0465 211.905 35.3292 215.373 40.2876 215.373H51.7723C46.8139 215.373 42.5312 211.905 41.5005 207.055Z" fill="#FFC985"/>
<path d="M31.0236 178.754C30.1425 178.754 29.4855 179.565 29.6684 180.427L35.0972 205.975C35.6146 208.411 37.7975 210.178 40.2873 210.178H70.5761C73.0659 210.178 75.2488 208.411 75.7662 205.975L81.195 180.427C81.3782 179.565 80.7208 178.754 79.8398 178.754H31.0236Z" fill="#A56021"/>
<path d="M93.9823 231.59H16.8815C14.0125 231.59 11.6865 229.264 11.6865 226.395V220.789H99.1772V226.395C99.1772 229.264 96.8516 231.59 93.9823 231.59Z" fill="#FFC985"/>
<path d="M23.1712 227.392H99.1717C99.1727 227.356 99.1772 227.32 99.1772 227.283V220.789H11.6865V227.283C11.6865 229.662 13.6149 231.59 15.9932 231.59H23.1712V227.392Z" fill="#FFC34C"/>
<path d="M102.353 224.689H7.68673C6.05619 224.689 4.52783 223.831 3.59135 222.39L0.203531 217.178C-0.313197 216.383 0.213574 215.288 1.11369 215.288H109.75C110.703 215.288 111.214 216.497 110.59 217.274L106.134 222.826C105.183 224.009 103.804 224.689 102.353 224.689Z" fill="#FFC985"/>
<path d="M75.9446 179.033C75.8016 179.033 75.6561 179.018 75.5106 178.987C74.3882 178.749 73.6713 177.645 73.9099 176.523L74.8027 172.32C75.0414 171.197 76.1444 170.482 77.2672 170.719C78.3897 170.958 79.1066 172.061 78.868 173.184L77.9751 177.387C77.7677 178.364 76.905 179.033 75.9446 179.033Z" fill="#FFC985"/>
<path d="M70.9134 205.582C70.77 205.582 70.6249 205.567 70.4795 205.536C69.357 205.298 68.6401 204.194 68.8791 203.071L72.9859 183.755C73.2245 182.632 74.3283 181.916 75.4504 182.154C76.5728 182.393 77.2897 183.497 77.0508 184.619L72.944 203.936C72.7362 204.912 71.8735 205.582 70.9134 205.582Z" fill="#FFC985"/>
<path d="M29.6687 180.427L35.0975 205.975C35.6149 208.411 37.7978 210.179 40.2876 210.179H42.7116C42.155 209.229 41.7394 208.18 41.5005 207.055L35.4868 178.754H31.0239C30.1429 178.754 29.4855 179.565 29.6687 180.427Z" fill="#8C4C17"/>
<path d="M55 118C59.4183 118 63 114.418 63 110C63 105.582 59.4183 102 55 102C50.5817 102 47 105.582 47 110C47 114.418 50.5817 118 55 118Z" fill="#A56021"/>
<path d="M55 67C59.4183 67 63 63.4183 63 59C63 54.5817 59.4183 51 55 51C50.5817 51 47 54.5817 47 59C47 63.4183 50.5817 67 55 67Z" fill="#A56021"/>
<path d="M55 16C59.4183 16 63 12.4183 63 8.00001C63 3.58173 59.4183 0 55 0C50.5817 0 47 3.58173 47 8.00001C47 12.4183 50.5817 16 55 16Z" fill="#A56021"/>
</svg>
