<svg width="360" height="102" viewBox="0 0 360 102" fill="none" xmlns="http://www.w3.org/2000/svg">
<path d="M177.031 99.3961C178.511 104.833 189.891 102.369 200.421 86.1334C210.951 69.8976 205.935 58.4948 200.661 60.2898C198.246 61.1115 191.802 67.7732 186.726 75.7803C180.714 85.2639 176.228 96.4479 177.031 99.3961Z" fill="#2B4162"/>
<path d="M174.788 71.1849C162.179 91.5469 174.782 102.208 175.322 97.2582C181.281 76.0659 185.731 70.524 196.56 60.371C200.112 57.6448 187.398 50.8228 174.788 71.1849Z" fill="#2B4162"/>
<path d="M169.974 72.4771C168.949 70.5636 158.534 55.2369 155.565 63.113C154.343 66.3559 154.339 72.4836 156.122 78.0768C158.67 86.0678 162.949 93.2564 165.57 94.0579C168.256 94.8793 165.032 92.5983 167.993 82.8903C170.953 73.1822 170.999 74.3906 169.974 72.4771Z" fill="#2B4162"/>
<path d="M176.806 64.0064C177.871 62.5508 167.8 58.213 163.191 58.8441C158.581 59.4752 171.104 68.5783 172.559 68.9205C173.329 69.1018 173.902 67.8843 174.687 66.7048C175.384 65.6578 176.306 64.6908 176.806 64.0064Z" fill="#2B4162"/>
<path d="M322.871 64.1041C325.095 66.2704 320.938 71.2343 310.39 72.1416C299.842 73.0489 295.677 67.5626 297.918 65.4345C298.943 64.4603 303.826 63.0401 308.997 62.6505C315.122 62.189 321.665 62.9295 322.871 64.1041Z" fill="#2B4162"/>
<path d="M309.91 55.5472C322.983 54.7037 324.809 63.7374 322.291 62.6963C310.558 60.0395 306.734 60.7713 299.028 63.4326C296.791 64.4655 296.838 56.3907 309.91 55.5472Z" fill="#2B4162"/>
<path d="M264.645 62.4946C268.541 63.4392 267.156 71.719 255.993 79.701C244.831 87.6829 236.6 84.3204 237.704 80.4682C238.21 78.7047 242.723 73.8948 248.232 70.043C254.756 65.481 262.533 61.9825 264.645 62.4946Z" fill="#2B4162"/>
<path d="M244.601 61.5229C258.619 51.9436 266.565 60.8052 263.078 61.3089C248.262 66.102 244.479 69.4448 237.632 77.503C235.814 80.1328 230.583 71.1023 244.601 61.5229Z" fill="#2B4162"/>
<path d="M38.8571 64.1041C36.633 66.2704 40.7905 71.2343 51.3384 72.1416C61.8863 73.0489 66.0508 67.5626 63.8106 65.4345C62.7851 64.4603 57.902 63.0401 52.7307 62.6505C46.6057 62.189 40.0631 62.9295 38.8571 64.1041Z" fill="#2B4162"/>
<path d="M51.8177 55.5472C38.745 54.7037 36.9192 63.7374 39.4371 62.6963C51.1706 60.0395 54.9946 60.7713 62.6999 63.4326C64.9374 64.4655 64.8904 56.3907 51.8177 55.5472Z" fill="#2B4162"/>
<path d="M97.083 62.3063C93.1868 63.2509 94.5724 71.5308 105.735 79.5127C116.897 87.4946 125.128 84.1321 124.024 80.2799C123.518 78.5164 119.005 73.7065 113.497 69.8548C106.972 65.2927 99.1956 61.7942 97.083 62.3063Z" fill="#2B4162"/>
<path d="M117.127 61.3346C103.109 51.7553 95.1631 60.617 98.6506 61.1206C113.466 65.9137 117.249 69.2565 124.096 77.3147C125.914 79.9445 131.145 70.914 117.127 61.3346Z" fill="#2B4162"/>
<path d="M60.8374 12.6551C60.8741 10.2972 61.2223 8.19724 61.8822 6.35516C62.1388 5.58149 62.487 4.80782 62.9269 4.03415C63.3668 3.26048 63.9167 2.57891 64.5766 1.98944C65.2364 1.39998 66.0062 0.92104 66.8861 0.552625C67.7659 0.184208 68.8106 0 70.0204 0C71.4134 0.110525 72.7148 0.571045 73.9245 1.38156C74.9509 2.08155 75.9224 3.18679 76.8388 4.69729C77.792 6.17095 78.4335 8.2525 78.7634 10.9419C79.0567 13.5577 79.2216 16.0261 79.2583 18.3471C79.295 20.6681 79.2766 22.7128 79.2033 24.4812C79.0933 26.5443 78.9467 28.4601 78.7634 30.2285C78.5435 32.0337 78.0852 33.6547 77.3887 35.0915C77.0955 35.7178 76.7289 36.3257 76.289 36.9152C75.8491 37.4678 75.3175 37.9836 74.6943 38.4625C74.1078 38.9046 73.4296 39.2546 72.6598 39.5125C71.8899 39.7704 71.0101 39.8994 70.0204 39.8994C68.9206 39.8994 67.9492 39.7151 67.106 39.3467C66.2629 38.9783 65.5297 38.4994 64.9065 37.9099C64.2833 37.2836 63.7518 36.602 63.3119 35.8652C62.9086 35.0915 62.5604 34.3179 62.2671 33.5442C61.6072 31.7021 61.204 29.6206 61.0574 27.2996H59.0228C58.8029 29.6574 58.3263 31.739 57.5931 33.5442C57.2632 34.3179 56.86 35.0915 56.3834 35.8652C55.9435 36.602 55.4119 37.2652 54.7887 37.8547C54.1656 38.4073 53.4324 38.8678 52.5892 39.2362C51.7461 39.6046 50.793 39.7888 49.7299 39.7888C48.2269 39.752 46.8705 39.3652 45.6608 38.6283C45.1476 38.2967 44.616 37.8915 44.0661 37.4126C43.5529 36.9336 43.0764 36.3257 42.6365 35.5889C42.1966 34.8152 41.8116 33.931 41.4817 32.9363C41.1884 31.9047 40.9868 30.7074 40.8769 29.3443C40.5836 26.1391 40.4369 23.3207 40.4369 20.8891C40.4736 18.4208 40.5469 16.3208 40.6569 14.5892C40.8035 12.563 41.0052 10.813 41.2618 9.33932C41.555 7.60777 42.0499 6.06043 42.7464 4.69729C43.0397 4.10783 43.388 3.53679 43.7912 2.98416C44.2311 2.43154 44.726 1.93418 45.2759 1.49208C45.8624 1.04998 46.5039 0.699991 47.2004 0.442099C47.9336 0.18421 48.7401 0.0552648 49.6199 0.0552648C50.8296 0.0552648 51.8744 0.239472 52.7542 0.607887C53.634 0.976302 54.4038 1.45524 55.0637 2.0447C55.7235 2.63417 56.2551 3.31574 56.6583 4.08941C57.0982 4.82624 57.4648 5.58149 57.7581 6.35516C58.4179 8.19724 58.7479 10.2972 58.7479 12.6551H60.8374Z" fill="#2B4162"/>
<path d="M102.333 0.773672C104.532 0.773672 106.457 1.04998 108.106 1.60261C109.793 2.11839 111.259 2.81838 112.505 3.70257C113.752 4.58677 114.796 5.59991 115.64 6.742C116.483 7.84724 117.179 8.98933 117.729 10.1683C119.012 12.9314 119.745 16.0445 119.929 19.5076C119.929 22.1233 119.672 24.4259 119.159 26.4154C118.646 28.368 117.967 30.0811 117.124 31.5548C116.318 32.9916 115.383 34.2073 114.32 35.2021C113.293 36.1968 112.23 37.0257 111.131 37.6889C108.564 39.1994 105.632 40.0651 102.333 40.2862C99.8398 40.2862 97.6586 40.0283 95.789 39.5125C93.9194 38.9599 92.2881 38.2599 90.8951 37.4126C89.5021 36.5284 88.329 35.5336 87.3759 34.4284C86.4228 33.2863 85.6346 32.1258 85.0114 30.9469C83.5451 28.2206 82.7202 25.1075 82.5369 21.6075C82.5369 18.7339 82.8119 16.2471 83.3618 14.1471C83.9483 12.0472 84.6998 10.2419 85.6163 8.73144C86.5694 7.18409 87.6325 5.93148 88.8056 4.97361C89.9786 3.97888 91.1883 3.18679 92.4347 2.59733C95.3308 1.23419 98.63 0.626307 102.333 0.773672ZM101.508 18.5129C100.885 18.5129 100.335 18.7523 99.8581 19.2313C99.4182 19.7102 99.2349 20.2444 99.3082 20.8339C99.3815 21.6075 99.6015 22.1417 99.9681 22.4365C100.371 22.7312 100.885 22.8786 101.508 22.8786C102.131 22.8786 102.644 22.6944 103.047 22.326C103.451 21.9575 103.652 21.4602 103.652 20.8339C103.652 20.2444 103.469 19.7102 103.102 19.2313C102.736 18.7523 102.204 18.5129 101.508 18.5129Z" fill="#2B4162"/>
<path d="M139.012 0.110526C140.625 0.110526 141.981 0.386837 143.081 0.93946C144.217 1.45524 145.152 2.13681 145.885 2.98416C146.619 3.79468 147.187 4.69729 147.59 5.69202C147.993 6.64989 148.287 7.57093 148.47 8.45513C148.69 9.30248 148.818 10.0577 148.855 10.7209C148.891 11.3472 148.91 11.734 148.91 11.8814C148.946 11.6235 149.02 11.163 149.13 10.4998C149.24 9.79984 149.441 9.00775 149.735 8.12355C150.028 7.23936 150.413 6.31832 150.889 5.36044C151.366 4.40256 151.971 3.53679 152.704 2.76311C153.474 1.9526 154.39 1.28945 155.453 0.773672C156.516 0.257891 157.781 0 159.247 0C161.044 0 162.602 0.442099 163.921 1.3263C165.278 2.21049 166.396 3.18679 167.276 4.2552C168.302 5.47096 169.182 6.87094 169.915 8.45513C170.905 10.7761 171.656 13.0972 172.17 15.4182C172.719 17.7023 173.123 19.7839 173.379 21.6628C173.673 23.8733 173.838 25.9917 173.874 28.018C173.911 29.5653 173.819 30.9284 173.599 32.1074C173.416 33.2863 173.141 34.2994 172.774 35.1468C172.408 35.9942 171.968 36.7126 171.455 37.302C170.978 37.8547 170.465 38.3152 169.915 38.6836C168.669 39.5309 167.239 39.973 165.626 40.0099C164.196 40.0099 162.932 39.7704 161.832 39.2915C160.769 38.7757 159.834 38.1125 159.027 37.302C158.258 36.4547 157.598 35.5152 157.048 34.4837C156.535 33.4152 156.113 32.3284 155.783 31.2232C154.977 28.6443 154.555 25.7154 154.518 22.4365C154.335 24.6101 153.95 26.2496 153.364 27.3548C152.814 28.4601 152.227 29.2337 151.604 29.6758C150.871 30.2285 150.064 30.4679 149.185 30.3942C147.755 30.3942 146.637 29.989 145.83 29.1785C145.024 28.3311 144.419 27.3917 144.016 26.3601C143.539 25.1812 143.246 23.8365 143.136 22.326C143.136 24.5733 142.989 26.5627 142.696 28.2943C142.44 29.989 142.091 31.4627 141.651 32.7153C141.211 33.931 140.698 34.9626 140.112 35.8099C139.562 36.6573 138.994 37.3573 138.407 37.9099C137.014 39.1625 135.438 39.8625 133.678 40.0099C132.285 40.0099 131.075 39.8441 130.049 39.5125C129.059 39.1809 128.198 38.7573 127.465 38.2415C126.731 37.6889 126.126 37.0626 125.65 36.3626C125.173 35.6626 124.788 34.9442 124.495 34.2073C123.835 32.4758 123.505 30.5232 123.505 28.3495C123.505 25.3654 123.707 22.6391 124.11 20.1707C124.55 17.6655 125.027 15.5103 125.54 13.705C126.163 11.6051 126.86 9.70774 127.629 8.01303C128.583 5.80254 129.719 4.16309 131.039 3.09469C132.358 1.98944 133.605 1.21577 134.778 0.773672C136.171 0.257891 137.582 0.0368421 139.012 0.110526Z" fill="#2B4162"/>
<path d="M195.006 0.386837C197.059 0.460519 198.837 0.607886 200.34 0.828936C201.88 1.04998 203.199 1.34472 204.299 1.71313C205.436 2.0447 206.37 2.41312 207.104 2.81838C207.837 3.22363 208.423 3.64731 208.863 4.08941C209.926 5.08413 210.439 6.18937 210.403 7.40514C210.403 8.51039 210.201 9.46827 209.798 10.2788C209.395 11.0525 208.863 11.7156 208.203 12.2682C207.543 12.8208 206.774 13.2629 205.894 13.5945C205.014 13.9261 204.116 14.184 203.199 14.3682C201.037 14.7734 198.58 14.9024 195.831 14.755C197.921 15.1234 199.497 15.6392 200.56 16.3024C201.623 16.9287 202.356 17.555 202.76 18.1813C203.236 18.9181 203.438 19.7286 203.364 20.6128C203.364 21.6812 203.089 22.5838 202.54 23.3207C202.026 24.0207 201.421 24.5917 200.725 25.0338C200.028 25.4759 199.369 25.8075 198.745 26.0285C198.122 26.2127 197.719 26.3233 197.536 26.3601C199.222 26.3601 200.707 26.4522 201.99 26.6364C203.273 26.8206 204.372 27.0785 205.289 27.4101C206.242 27.7417 207.012 28.1285 207.598 28.5706C208.222 28.9758 208.735 29.3995 209.138 29.8416C210.055 30.8732 210.513 32.0521 210.513 33.3784C210.439 34.2626 210.183 35.0363 209.743 35.6994C209.303 36.3257 208.735 36.8784 208.038 37.3573C207.378 37.8362 206.609 38.2415 205.729 38.5731C204.849 38.8678 203.969 39.1257 203.089 39.3467C201 39.8257 198.617 40.0836 195.941 40.1204C193.925 40.1941 192.147 40.1204 190.607 39.8994C189.068 39.6783 187.711 39.3836 186.538 39.0152C185.365 38.6467 184.357 38.2231 183.514 37.7441C182.671 37.2652 181.974 36.7678 181.424 36.252C180.105 35.0363 179.28 33.6547 178.95 32.1074C178.473 29.6758 178.198 27.1338 178.125 24.4812C178.088 21.7918 178.143 19.3234 178.29 17.076C178.437 14.4603 178.693 11.8814 179.06 9.33932C179.28 8.08671 179.665 6.99989 180.215 6.07885C180.801 5.12097 181.479 4.31046 182.249 3.64731C183.056 2.98416 183.917 2.44996 184.833 2.0447C185.787 1.60261 186.74 1.27103 187.693 1.04998C189.892 0.497361 192.33 0.276312 195.006 0.386837Z" fill="#2B4162"/>
<path d="M233.386 0.221049C235.989 0.331575 238.078 0.792094 239.655 1.60261C241.268 2.37628 242.532 3.22363 243.449 4.14467C244.512 5.21308 245.282 6.42884 245.758 7.79198C246.308 9.81826 246.381 11.5314 245.978 12.9314C245.575 14.2945 245.007 15.4182 244.274 16.3024C243.43 17.3339 242.386 18.1813 241.139 18.8444C242.826 19.3602 244.127 20.0786 245.043 20.9997C245.96 21.9207 246.62 22.8233 247.023 23.7075C247.499 24.7391 247.774 25.8443 247.848 27.0232C247.921 28.5338 247.774 29.8785 247.408 31.0574C247.041 32.2363 246.528 33.2679 245.868 34.1521C245.208 34.9994 244.439 35.7363 243.559 36.3626C242.679 36.9889 241.781 37.5047 240.864 37.9099C238.665 38.8678 236.154 39.4573 233.331 39.6783C231.791 39.7888 230.38 39.7704 229.097 39.623C227.814 39.4757 226.659 39.2546 225.633 38.9599C224.606 38.6652 223.69 38.3336 222.883 37.9652C222.077 37.5599 221.38 37.1362 220.794 36.6941C219.364 35.6994 218.283 34.5389 217.549 33.2126C216.45 31.3337 215.735 29.3074 215.405 27.1338C215.075 24.9601 214.91 22.9338 214.91 21.0549C214.91 19.1392 215.02 17.4076 215.24 15.8603C215.46 14.3129 215.717 13.0051 216.01 11.9366C216.34 10.684 216.706 9.56037 217.11 8.56565C217.586 7.31304 218.191 6.24464 218.924 5.36044C219.657 4.4394 220.446 3.66573 221.289 3.03942C222.168 2.37628 223.067 1.8605 223.983 1.49208C224.936 1.12367 225.853 0.828935 226.732 0.607887C228.822 0.128947 231.04 1.08778e-06 233.386 0.221049ZM231.461 11.2735C230.838 11.2735 230.307 11.4761 229.867 11.8814C229.464 12.2498 229.262 12.7472 229.262 13.3735C229.262 13.9629 229.409 14.5156 229.702 15.0313C230.032 15.5103 230.618 15.7497 231.461 15.7497C232.195 15.7497 232.744 15.5103 233.111 15.0313C233.478 14.5156 233.661 13.9629 233.661 13.3735C233.661 12.8208 233.478 12.3419 233.111 11.9366C232.744 11.4946 232.195 11.2735 231.461 11.2735ZM231.956 24.5364C231.333 24.5364 230.783 24.7759 230.307 25.2549C229.867 25.7338 229.683 26.268 229.757 26.8575C229.83 27.6311 230.05 28.1653 230.417 28.4601C230.82 28.7548 231.333 28.9022 231.956 28.9022C232.579 28.9022 233.093 28.718 233.496 28.3495C233.899 27.9811 234.101 27.4838 234.101 26.8575C234.101 26.268 233.918 25.7338 233.551 25.2549C233.184 24.7759 232.653 24.5364 231.956 24.5364Z" fill="#2B4162"/>
<path d="M267.037 14.9208C267.99 13.5577 269.016 12.5998 270.116 12.0472C271.252 11.4577 272.297 11.0893 273.25 10.9419C274.387 10.7946 275.505 10.8314 276.605 11.0525C277.704 11.3472 278.603 11.7709 279.299 12.3235C279.996 12.8761 280.527 13.484 280.894 14.1471C281.26 14.8103 281.517 15.4734 281.664 16.1366C281.81 16.7997 281.883 17.3708 281.883 17.8497C281.92 19.0286 281.755 20.0602 281.389 20.9444C281.059 21.7918 280.692 22.4733 280.289 22.9891C279.812 23.6523 279.244 24.168 278.584 24.5364C277.411 25.2364 276.256 25.568 275.12 25.5312C274.02 25.4943 273.012 25.3285 272.096 25.0338C271.033 24.6654 270.024 24.1496 269.071 23.4865C269.365 25.697 269.456 27.6311 269.346 29.289C269.273 30.9469 269.053 32.3837 268.686 33.5995C268.356 34.7784 267.917 35.7731 267.367 36.5836C266.817 37.3573 266.23 37.9836 265.607 38.4625C264.141 39.6046 262.381 40.1388 260.328 40.0651C258.752 40.1388 257.469 39.8994 256.479 39.3467C255.489 38.7941 254.683 38.1678 254.06 37.4678C253.363 36.6573 252.813 35.7363 252.41 34.7047C251.75 32.7153 251.31 30.6521 251.09 28.5153C250.907 26.3785 250.852 24.4259 250.925 22.6575C250.962 20.5944 251.127 18.5681 251.42 16.5787C251.823 14.8103 252.465 13.484 253.345 12.5998C254.261 11.6788 255.196 11.0156 256.149 10.6104C257.249 10.1683 258.459 9.94721 259.778 9.94721C261.318 9.87353 262.564 10.113 263.518 10.6656C264.471 11.1814 265.204 11.7524 265.717 12.3787C266.34 13.1156 266.78 13.9629 267.037 14.9208Z" fill="#2B4162"/>
<path d="M302.21 28.239C303.273 29.0864 304.391 29.6206 305.564 29.8416C306.737 30.0258 307.819 30.1916 308.809 30.339C309.835 30.4864 310.696 30.7627 311.393 31.1679C312.126 31.5732 312.584 32.4205 312.768 33.71C312.804 34.4468 312.713 35.1652 312.493 35.8652C312.273 36.4915 311.888 37.1362 311.338 37.7994C310.825 38.4257 310 38.9599 308.864 39.402C307.251 39.9178 305.509 40.2493 303.64 40.3967C302.027 40.5441 300.194 40.5072 298.141 40.2862C296.088 40.102 293.944 39.5494 291.707 38.6283C290.241 37.9652 288.94 37.0257 287.803 35.8099C287.327 35.2942 286.85 34.7047 286.374 34.0416C285.934 33.3416 285.53 32.5679 285.164 31.7205C284.834 30.8363 284.559 29.86 284.339 28.7916C284.156 27.7232 284.101 26.5443 284.174 25.2549C284.284 23.2654 284.669 21.3681 285.329 19.5628C285.622 18.7892 285.989 18.0155 286.429 17.2418C286.868 16.4313 287.4 15.6576 288.023 14.9208C288.683 14.184 289.435 13.5024 290.278 12.8761C291.157 12.2498 292.166 11.734 293.302 11.3288C295.172 10.7761 297.078 10.4814 299.021 10.4446C299.827 10.4446 300.689 10.4998 301.605 10.6104C302.558 10.684 303.493 10.8682 304.41 11.163C305.363 11.4209 306.316 11.8077 307.269 12.3235C308.222 12.8393 309.138 13.484 310.018 14.2577C310.605 14.8471 311.118 15.5103 311.558 16.2471C311.961 16.9103 312.309 17.7208 312.603 18.6786C312.896 19.5997 313.061 20.7049 313.098 21.9944C313.098 23.4312 312.768 24.6101 312.108 25.5312C311.485 26.4522 310.641 27.1522 309.578 27.6311C308.552 28.1101 307.379 28.4048 306.059 28.5153C304.776 28.589 303.493 28.4969 302.21 28.239ZM300.78 21.2207C300.157 21.2207 299.607 21.4602 299.131 21.9391C298.691 22.4181 298.508 22.9523 298.581 23.5417C298.654 24.3154 298.874 24.8496 299.241 25.1443C299.644 25.4391 300.157 25.5864 300.78 25.5864C301.404 25.5864 301.917 25.4022 302.32 25.0338C302.723 24.6654 302.925 24.168 302.925 23.5417C302.925 22.9523 302.742 22.4181 302.375 21.9391C302.008 21.4602 301.477 21.2207 300.78 21.2207Z" fill="#2B4162"/>
<path d="M347.298 40.3967C345.098 40.3967 343.357 40.0467 342.074 39.3467C340.828 38.6467 339.874 37.8547 339.215 36.9705C338.591 36.0863 338.188 35.2389 338.005 34.4284C337.858 33.581 337.785 33.0284 337.785 32.7705C337.748 33.0653 337.602 33.6363 337.345 34.4837C337.125 35.331 336.685 36.1968 336.025 37.081C335.366 37.9652 334.431 38.7573 333.221 39.4573C332.011 40.1204 330.435 40.452 328.492 40.452C326.952 40.452 325.614 40.1204 324.478 39.4573C323.378 38.7941 322.462 38.0573 321.729 37.2468C320.849 36.2889 320.134 35.2205 319.584 34.0416C318.668 32.2732 317.953 30.56 317.439 28.9022C316.926 27.2075 316.523 25.6785 316.23 24.3154C315.9 22.7681 315.68 21.276 315.57 19.8392C315.387 17.5918 315.643 15.8603 316.34 14.6445C317.073 13.4287 317.916 12.5077 318.869 11.8814C319.969 11.2182 321.252 10.7946 322.718 10.6104C324.221 10.6104 325.504 10.8498 326.567 11.3288C327.631 11.7709 328.529 12.3603 329.262 13.0972C330.032 13.834 330.637 14.6629 331.076 15.584C331.516 16.505 331.865 17.4076 332.121 18.2918C332.378 19.176 332.543 20.0234 332.616 20.8339C332.689 21.6075 332.744 22.2339 332.781 22.7128C332.818 21.3128 333.093 20.2444 333.606 19.5076C334.156 18.7708 334.742 18.2365 335.366 17.905C336.099 17.4997 336.923 17.2971 337.84 17.2971C339.306 17.3339 340.406 17.6839 341.139 18.3471C341.909 18.9734 342.459 19.6918 342.789 20.5023C343.192 21.4602 343.394 22.5102 343.394 23.6523C343.394 21.9575 343.522 20.4655 343.779 19.176C344.035 17.8866 344.365 16.7813 344.768 15.8603C345.172 14.9024 345.63 14.1287 346.143 13.5393C346.693 12.913 347.243 12.3972 347.793 11.9919C349.076 11.0709 350.542 10.6104 352.192 10.6104C353.218 10.6104 354.116 10.7577 354.886 11.0525C355.693 11.3103 356.371 11.6603 356.921 12.1024C357.471 12.5077 357.929 12.9866 358.295 13.5393C358.699 14.055 359.01 14.5892 359.23 15.1419C359.743 16.4682 360 17.9602 360 19.6181C359.927 21.9391 359.688 24.0207 359.285 25.8627C358.882 27.668 358.479 29.1969 358.075 30.4495C357.562 31.9232 357.012 33.2126 356.426 34.3179C355.546 35.9389 354.575 37.1547 353.511 37.9652C352.485 38.7757 351.495 39.3652 350.542 39.7336C349.442 40.1388 348.361 40.3599 347.298 40.3967Z" fill="#2B4162"/>
<path d="M21.3352 10.0419C18.4026 10.0419 15.8365 11.184 13.637 13.4682C11.4375 15.7524 10.3377 19.2339 10.3377 23.9128C10.3377 27.0075 11.1259 29.5864 12.7022 31.6495C14.2785 33.6758 16.533 34.6889 19.4657 34.6889C21.0053 34.6889 22.3434 34.5231 23.4798 34.1916C24.6162 33.8231 25.3677 33.4547 25.7343 33.0863C25.9947 32.8246 26.4366 32.9155 26.5737 33.259L28.7172 38.6285C29.4529 40.4713 28.7788 42.5123 26.87 43.0249C26.4368 43.1412 25.9666 43.2546 25.4593 43.3651C23.2965 43.844 21.0786 44.0835 18.8058 44.0835C12.7572 44.0835 8.10153 42.5546 4.83892 39.4967C1.61297 36.4389 0 31.3732 0 24.2996C0 17.1892 1.8146 11.4051 5.44379 6.94726C9.10964 2.4526 14.4068 0.205263 21.3352 0.205263C26.9807 0.205263 31.1597 1.53156 33.8725 4.18415C36.6218 6.79989 37.9965 10.2262 37.9965 14.4629C37.9965 16.9682 37.8316 19.105 37.5016 20.8734L37.0939 22.8403C36.9994 23.2962 36.8294 23.8942 37.2267 24.1338C37.5744 24.3435 37.9965 24.5757 37.9965 24.9832V29.5112C37.9965 30.7307 37.4981 31.9568 36.3791 32.4284C35.1632 32.9407 33.6129 33.1968 31.7279 33.1968C30.1808 33.1968 28.9287 32.884 27.9719 32.2584C27.1231 31.7034 25.055 31.5549 24.1946 32.0916C23.0582 32.8284 21.4452 33.1968 19.3557 33.1968C17.2662 33.1968 15.4882 32.3863 14.0219 30.7653C12.5922 29.1074 11.8774 26.5654 11.8774 23.1391C11.8774 19.7128 12.8305 16.9129 14.7367 14.7392C16.6796 12.5287 19.0624 11.4235 21.8851 11.4235C22.9116 11.4235 23.8464 11.534 24.6895 11.7551C25.5326 11.9761 26.1375 12.1972 26.5041 12.4182C26.7055 12.5757 26.8957 12.4464 26.7514 12.2349C26.6964 12.1544 26.6323 12.0681 26.5591 11.9761C26.2658 11.5709 25.9359 11.2393 25.5693 10.9814C24.5795 10.3551 23.1682 10.0419 21.3352 10.0419ZM25.4593 20.4313C25.5673 20.0695 25.5665 19.6319 25.2071 19.5218C25.0214 19.465 24.7755 19.4365 24.4696 19.4365C23.8097 19.4365 23.2782 19.7865 22.8749 20.4865C22.4717 21.1497 22.27 22.0523 22.27 23.1944C22.27 24.2996 22.7099 24.8522 23.5897 24.8522C24.4411 24.8522 24.8102 23.9355 24.9152 23.0864C25.0289 22.1673 25.2103 21.2823 25.4593 20.4313Z" fill="#2B4162"/>
</svg>
