<svg width="291" height="36" viewBox="0 0 291 36" fill="none" xmlns="http://www.w3.org/2000/svg">
<path d="M50.0214 5.10905C49.488 6.58994 49.2065 8.27814 49.1769 10.1737H47.4879C47.4879 8.27814 47.2212 6.58994 46.6878 5.10905C46.4507 4.48708 46.1544 3.87992 45.7988 3.28756C45.4729 2.66559 45.0432 2.11767 44.5098 1.64378C43.9764 1.1699 43.3542 0.78487 42.643 0.488693C41.9318 0.192517 41.0873 0.0444286 40.1094 0.0444286C39.3982 0.0444286 38.7463 0.14809 38.1537 0.355413C37.5907 0.562738 37.0721 0.844106 36.598 1.19952C36.1535 1.55493 35.7535 1.95477 35.3979 2.39903C35.0719 2.8433 34.7904 3.30237 34.5534 3.77626C33.9904 4.87211 33.5903 6.11605 33.3533 7.50808C33.1458 8.69279 32.9829 10.0996 32.8643 11.7286C32.7754 13.1206 32.7162 14.8088 32.6865 16.7932C32.6865 18.748 32.8051 21.0137 33.0421 23.5905C33.131 24.6863 33.294 25.6489 33.5311 26.4782C33.7977 27.2779 34.1089 27.9887 34.4645 28.6107C34.8201 29.203 35.2053 29.6917 35.6201 30.0768C36.0646 30.4618 36.4943 30.7876 36.9091 31.0541C37.887 31.6465 38.9834 31.9575 40.1983 31.9871C41.0577 31.9871 41.8281 31.839 42.5096 31.5428C43.1912 31.2467 43.7838 30.8764 44.2876 30.4322C44.7913 29.9583 45.221 29.4252 45.5766 28.8328C45.9618 28.2108 46.2878 27.5889 46.5544 26.9669C47.1471 25.5156 47.5323 23.8422 47.7101 21.9467H49.3547C49.4732 23.8126 49.7992 25.486 50.3326 26.9669C50.5696 27.5889 50.8511 28.2108 51.1771 28.8328C51.5327 29.4252 51.9623 29.9731 52.4661 30.4766C52.9698 30.9505 53.5625 31.3355 54.244 31.6317C54.9256 31.9279 55.7108 32.076 56.5998 32.076C57.3999 32.076 58.111 31.9723 58.7333 31.765C59.3556 31.5576 59.9038 31.2763 60.3779 30.9209C60.8817 30.5358 61.3113 30.1212 61.6669 29.6769C62.0225 29.203 62.3188 28.7143 62.5559 28.2108C63.1189 27.0558 63.4893 25.7526 63.6671 24.3013C63.8153 22.8797 63.9338 21.3395 64.0227 19.681C64.0819 18.2593 64.0968 16.6155 64.0671 14.7496C64.0375 12.8837 63.9042 10.8993 63.6671 8.79645C63.4004 6.63436 62.8818 4.96096 62.1114 3.77626C61.3706 2.56193 60.5853 1.6734 59.7556 1.11066C58.7778 0.459075 57.7258 0.0888537 56.5998 0C55.6219 0 54.7774 0.148089 54.0662 0.444267C53.3551 0.740444 52.7328 1.12547 52.1994 1.59936C51.666 2.07324 51.2215 2.62117 50.8659 3.24314C50.5104 3.86511 50.2288 4.48708 50.0214 5.10905Z" fill="#FFE8CF"/>
<path fill-rule="evenodd" clip-rule="evenodd" d="M82.7188 0.621971C84.4967 0.621971 86.0524 0.844105 87.3859 1.28837C88.749 1.70302 89.9343 2.26575 90.9418 2.97658C91.9493 3.6874 92.7938 4.50189 93.4753 5.42004C94.1569 6.30857 94.7199 7.22672 95.1644 8.17448C96.2015 10.3958 96.7941 12.8985 96.9423 15.6826C96.9423 17.7854 96.7349 19.6365 96.32 21.2359C95.9052 22.8056 95.357 24.1828 94.6754 25.3675C94.0235 26.5226 93.2679 27.5 92.4086 28.2997C91.5789 29.0994 90.7195 29.7658 89.8306 30.2989C87.7563 31.5132 85.3857 32.2092 82.7188 32.3869C80.7038 32.3869 78.9407 32.1796 77.4294 31.765C75.9182 31.3207 74.5995 30.758 73.4735 30.0768C72.3475 29.3659 71.3993 28.5663 70.6288 27.6777C69.8584 26.7596 69.2213 25.8266 68.7175 24.8789C67.5323 22.6871 66.8655 20.1845 66.7174 17.3708C66.7174 15.0606 66.9396 13.0614 67.3841 11.3732C67.8582 9.68498 68.4657 8.23372 69.2065 7.01939C69.9769 5.77545 70.8363 4.76845 71.7845 3.99839C72.7327 3.19871 73.7106 2.56193 74.7181 2.08805C77.059 0.992195 79.7259 0.503502 82.7188 0.621971ZM82.0521 14.8829C81.5483 14.8829 81.1038 15.0754 80.7186 15.4604C80.363 15.8455 80.2149 16.2749 80.2741 16.7488C80.3334 17.3708 80.5112 17.8002 80.8075 18.0372C81.1335 18.2741 81.5483 18.3926 82.0521 18.3926C82.5558 18.3926 82.9707 18.2445 83.2966 17.9483C83.6226 17.6521 83.7856 17.2523 83.7856 16.7488C83.7856 16.2749 83.6374 15.8455 83.3411 15.4604C83.0448 15.0754 82.6151 14.8829 82.0521 14.8829Z" fill="#FFE8CF"/>
<path d="M115.657 0.755252C114.768 0.310987 113.672 0.0888546 112.368 0.0888546C111.212 0.0296182 110.071 0.207324 108.945 0.621971C107.997 0.977384 106.99 1.59936 105.923 2.48789C104.856 3.3468 103.938 4.66479 103.167 6.44185C102.545 7.80426 101.982 9.32957 101.478 11.0178C101.063 12.469 100.678 14.2017 100.322 16.2157C99.9965 18.2001 99.8335 20.3918 99.8335 22.7908C99.8335 24.5383 100.1 26.108 100.634 27.5C100.871 28.0924 101.182 28.6699 101.567 29.2327C101.952 29.7954 102.441 30.2989 103.034 30.7432C103.626 31.1578 104.323 31.4984 105.123 31.765C105.953 32.0315 106.93 32.1648 108.056 32.1648C109.479 32.0463 110.753 31.4836 111.879 30.4766C112.353 30.0323 112.812 29.4696 113.257 28.7884C113.731 28.1072 114.146 27.2779 114.502 26.3005C114.857 25.2935 115.139 24.1088 115.346 22.7464C115.583 21.3544 115.702 19.755 115.702 17.9483C115.791 19.1626 116.028 20.2437 116.413 21.1915C116.739 22.0208 117.228 22.776 117.88 23.4572C118.532 24.1088 119.435 24.4346 120.591 24.4346C121.302 24.4938 121.954 24.3013 122.547 23.857C123.05 23.5016 123.525 22.8797 123.969 21.9911C124.443 21.1026 124.754 19.7846 124.902 18.0372C124.932 20.6731 125.273 23.0278 125.925 25.101C126.191 25.9895 126.532 26.8632 126.947 27.7222C127.392 28.5515 127.925 29.3067 128.547 29.9879C129.199 30.6395 129.955 31.1726 130.814 31.5873C131.703 31.9723 132.725 32.1648 133.881 32.1648C135.185 32.1352 136.341 31.7798 137.348 31.0986C137.792 30.8024 138.207 30.4322 138.593 29.9879C139.007 29.514 139.363 28.9365 139.659 28.2553C139.956 27.5741 140.178 26.7596 140.326 25.8118C140.504 24.864 140.578 23.7682 140.548 22.5243C140.519 20.8953 140.385 19.1923 140.148 17.4152C139.941 15.9047 139.615 14.2313 139.17 12.395C138.756 10.5291 138.148 8.66317 137.348 6.79726C136.755 5.5237 136.044 4.39823 135.214 3.42084C134.503 2.56193 133.6 1.77706 132.503 1.06624C131.436 0.355413 130.177 0 128.725 0C127.54 0 126.517 0.207324 125.658 0.621971C124.799 1.03662 124.058 1.56974 123.436 2.22133C122.843 2.8433 122.354 3.53931 121.969 4.30937C121.584 5.07943 121.272 5.81988 121.035 6.5307C120.798 7.24152 120.635 7.87831 120.547 8.44104C120.458 8.97416 120.398 9.34438 120.369 9.55171C120.369 9.43323 120.354 9.12225 120.324 8.61875C120.295 8.08563 120.191 7.47847 120.013 6.79726C119.865 6.08644 119.628 5.34599 119.302 4.57593C118.976 3.77626 118.517 3.05062 117.924 2.39903C117.331 1.71783 116.576 1.1699 115.657 0.755252Z" fill="#FFE8CF"/>
<path d="M157.63 0.310987C159.289 0.370222 160.727 0.488693 161.942 0.6664C163.186 0.844105 164.253 1.08105 165.142 1.37722C166.06 1.64378 166.816 1.93996 167.409 2.26575C168.001 2.59155 168.475 2.93215 168.831 3.28756C169.69 4.08724 170.105 4.97577 170.076 5.95316C170.076 6.84169 169.913 7.61175 169.587 8.26334C169.261 8.88531 168.831 9.41842 168.298 9.86269C167.764 10.307 167.142 10.6624 166.431 10.9289C165.72 11.1955 164.994 11.4028 164.253 11.5509C162.505 11.8767 160.519 11.9804 158.297 11.8619C159.986 12.1581 161.26 12.5727 162.119 13.1058C162.979 13.6093 163.571 14.1128 163.897 14.6163C164.282 15.2087 164.445 15.8603 164.386 16.5711C164.386 17.43 164.164 18.1556 163.719 18.748C163.305 19.3107 162.816 19.7698 162.253 20.1252C161.69 20.4806 161.156 20.7472 160.653 20.9249C160.149 21.073 159.823 21.1618 159.675 21.1915C161.038 21.1915 162.238 21.2655 163.275 21.4136C164.312 21.5617 165.201 21.769 165.942 22.0356C166.712 22.3021 167.335 22.6131 167.809 22.9685C168.312 23.2943 168.727 23.6349 169.053 23.9903C169.794 24.8196 170.165 25.7674 170.165 26.8336C170.105 27.5444 169.898 28.1664 169.542 28.6995C169.187 29.203 168.727 29.6473 168.164 30.0323C167.631 30.4174 167.009 30.7432 166.297 31.0097C165.586 31.2467 164.875 31.454 164.164 31.6317C162.475 32.0167 160.549 32.224 158.386 32.2537C156.756 32.3129 155.319 32.2537 154.074 32.076C152.83 31.8983 151.733 31.6613 150.785 31.3651C149.837 31.069 149.022 30.7284 148.34 30.3433C147.659 29.9583 147.096 29.5585 146.651 29.1438C145.585 28.1664 144.918 27.0558 144.651 25.8118C144.266 23.857 144.044 21.8134 143.984 19.681C143.955 17.5189 143.999 15.5345 144.118 13.7278C144.236 11.6249 144.444 9.55171 144.74 7.50808C144.918 6.50108 145.229 5.62736 145.673 4.88692C146.148 4.11686 146.696 3.46527 147.318 2.93215C147.97 2.39903 148.666 1.96958 149.407 1.64378C150.178 1.28837 150.948 1.02181 151.718 0.844104C153.496 0.399839 155.467 0.222133 157.63 0.310987Z" fill="#FFE8CF"/>
<path fill-rule="evenodd" clip-rule="evenodd" d="M193.721 1.28837C192.447 0.636782 190.758 0.26656 188.654 0.177706C186.757 0 184.964 0.103663 183.275 0.488693C182.564 0.666399 181.823 0.90334 181.053 1.19952C180.312 1.49569 179.586 1.91034 178.875 2.44346C178.193 2.94696 177.556 3.56893 176.964 4.30937C176.371 5.0202 175.882 5.87911 175.497 6.88611C175.171 7.68579 174.875 8.58913 174.608 9.59613C174.371 10.455 174.163 11.5065 173.986 12.7504C173.808 13.9944 173.719 15.3864 173.719 16.9265C173.719 18.437 173.852 20.066 174.119 21.8134C174.386 23.5609 174.964 25.1898 175.853 26.7003C176.445 27.7666 177.319 28.6995 178.475 29.4992C178.949 29.8546 179.512 30.1952 180.164 30.521C180.816 30.8172 181.557 31.0838 182.386 31.3207C183.216 31.5576 184.15 31.7354 185.187 31.8538C186.224 31.9723 187.365 31.9871 188.609 31.8982C190.891 31.7205 192.921 31.2467 194.699 30.4766C195.439 30.1508 196.165 29.7362 196.877 29.2327C197.588 28.7292 198.21 28.1368 198.743 27.4556C199.277 26.7448 199.692 25.9155 199.988 24.9677C200.284 24.0199 200.403 22.9389 200.344 21.7246C200.284 20.7768 200.062 19.8883 199.677 19.059C199.351 18.3482 198.818 17.6225 198.077 16.8821C197.336 16.1416 196.284 15.5641 194.921 15.1494C195.928 14.6163 196.773 13.9351 197.454 13.1058C198.047 12.395 198.506 11.4917 198.832 10.3958C199.158 9.27034 199.099 7.89312 198.655 6.26414C198.269 5.16829 197.647 4.1909 196.788 3.33199C196.047 2.59155 195.025 1.91034 193.721 1.28837ZM185.809 9.55171C186.165 9.22591 186.594 9.06301 187.098 9.06301C187.691 9.06301 188.135 9.24072 188.431 9.59613C188.728 9.92193 188.876 10.307 188.876 10.7512C188.876 11.2251 188.728 11.6694 188.431 12.084C188.135 12.469 187.691 12.6616 187.098 12.6616C186.416 12.6616 185.942 12.469 185.676 12.084C185.439 11.6694 185.32 11.2251 185.32 10.7512C185.32 10.2477 185.483 9.84788 185.809 9.55171ZM186.165 20.3029C186.55 19.9179 186.994 19.7254 187.498 19.7254C188.061 19.7254 188.491 19.9179 188.787 20.3029C189.083 20.688 189.231 21.1174 189.231 21.5913C189.231 22.0948 189.069 22.4946 188.743 22.7908C188.417 23.087 188.002 23.2351 187.498 23.2351C186.994 23.2351 186.579 23.1166 186.253 22.8797C185.957 22.6427 185.779 22.2133 185.72 21.5913C185.661 21.1174 185.809 20.688 186.165 20.3029Z" fill="#FFE8CF"/>
<path d="M215.855 11.9952C216.625 10.8993 217.455 10.1292 218.344 9.68499C219.262 9.2111 220.107 8.91492 220.877 8.79645C221.796 8.67798 222.7 8.7076 223.589 8.88531C224.478 9.12225 225.204 9.46285 225.767 9.90712C226.33 10.3514 226.759 10.8401 227.056 11.3732C227.352 11.9063 227.559 12.4394 227.678 12.9725C227.797 13.5057 227.856 13.9647 227.856 14.3498C227.885 15.2975 227.752 16.1268 227.456 16.8377C227.189 17.5189 226.893 18.0668 226.567 18.4814C226.182 19.0146 225.722 19.4292 225.189 19.7254C224.241 20.2881 223.307 20.5547 222.389 20.5251C221.5 20.4954 220.685 20.3622 219.944 20.1252C219.085 19.829 218.27 19.4144 217.499 18.8813C217.736 20.6583 217.81 22.2133 217.722 23.5461C217.662 24.8789 217.484 26.0339 217.188 27.0113C216.921 27.9591 216.566 28.7588 216.121 29.4104C215.677 30.0323 215.203 30.5358 214.699 30.9209C213.514 31.839 212.091 32.2685 210.432 32.2092C209.158 32.2685 208.121 32.076 207.321 31.6317C206.521 31.1874 205.869 30.6839 205.365 30.1212C204.802 29.4696 204.357 28.7292 204.031 27.8999C203.498 26.3005 203.142 24.6419 202.965 22.9241C202.817 21.2063 202.772 19.6365 202.831 18.2149C202.861 16.5563 202.994 14.9273 203.231 13.328C203.557 11.9063 204.076 10.8401 204.787 10.1293C205.528 9.38881 206.283 8.85569 207.054 8.52989C207.943 8.17448 208.921 7.99678 209.988 7.99678C211.232 7.93754 212.24 8.13006 213.01 8.57432C213.78 8.98897 214.373 9.44804 214.788 9.95154C215.292 10.5439 215.647 11.2251 215.855 11.9952Z" fill="#FFE8CF"/>
<path fill-rule="evenodd" clip-rule="evenodd" d="M246.998 23.9903C246.05 23.8126 245.146 23.3832 244.286 22.702C245.324 22.9093 246.361 22.9833 247.398 22.9241C248.465 22.8352 249.413 22.5983 250.243 22.2133C251.102 21.8282 251.783 21.2655 252.287 20.5251C252.821 19.7846 253.087 18.8369 253.087 17.6818C253.058 16.6451 252.924 15.7566 252.687 15.0162C252.45 14.2461 252.169 13.5945 251.843 13.0614C251.487 12.469 251.072 11.9359 250.598 11.462C249.887 10.8401 249.146 10.3218 248.376 9.90712C247.605 9.49247 246.835 9.18148 246.064 8.97416C245.324 8.73722 244.568 8.58913 243.797 8.52989C243.057 8.44104 242.36 8.39662 241.708 8.39662C240.138 8.42623 238.597 8.66318 237.086 9.10744C236.167 9.43323 235.352 9.84788 234.641 10.3514C233.96 10.8549 233.352 11.4028 232.819 11.9952C232.315 12.5875 231.885 13.2095 231.53 13.8611C231.174 14.4831 230.878 15.105 230.641 15.727C230.107 17.1783 229.796 18.7036 229.707 20.3029C229.648 21.3395 229.693 22.2873 229.841 23.1462C230.018 24.0051 230.241 24.79 230.507 25.5008C230.804 26.182 231.13 26.804 231.485 27.3667C231.87 27.8999 232.256 28.3737 232.641 28.7884C233.56 29.7658 234.611 30.521 235.797 31.0541C237.604 31.7946 239.338 32.2388 240.997 32.3869C242.657 32.5646 244.138 32.5943 245.442 32.4758C246.953 32.3573 248.361 32.0908 249.665 31.6761C250.583 31.3207 251.25 30.8912 251.665 30.3877C252.109 29.8546 252.421 29.3363 252.598 28.8328C252.776 28.2701 252.85 27.6925 252.821 27.1002C252.672 26.0636 252.302 25.3824 251.709 25.0566C251.146 24.7308 250.45 24.5086 249.62 24.3902C248.82 24.2717 247.946 24.1384 246.998 23.9903ZM241.797 17.6373C242.183 17.2523 242.627 17.0598 243.131 17.0598C243.694 17.0598 244.123 17.2523 244.42 17.6373C244.716 18.0224 244.864 18.4518 244.864 18.9257C244.864 19.4292 244.701 19.829 244.375 20.1252C244.049 20.4214 243.635 20.5695 243.131 20.5695C242.627 20.5695 242.212 20.451 241.886 20.2141C241.59 19.9771 241.412 19.5477 241.353 18.9257C241.294 18.4518 241.442 18.0224 241.797 17.6373Z" fill="#FFE8CF"/>
<path d="M280.732 32.4758C278.954 32.4758 277.547 32.1944 276.51 31.6317C275.502 31.069 274.732 30.4322 274.198 29.7213C273.695 29.0105 273.369 28.3293 273.221 27.6777C273.102 26.9965 273.043 26.5523 273.043 26.3449C273.013 26.5819 272.895 27.0409 272.687 27.7222C272.509 28.4034 272.154 29.0994 271.621 29.8102C271.087 30.521 270.331 31.1578 269.354 31.7205C268.376 32.2537 267.102 32.5202 265.531 32.5202C264.286 32.5202 263.205 32.2537 262.286 31.7205C261.397 31.1874 260.657 30.5951 260.064 29.9435C259.353 29.1734 258.775 28.3145 258.33 27.3667C257.59 25.9451 257.012 24.5679 256.597 23.2351C256.182 21.8727 255.856 20.6435 255.619 19.5477C255.352 18.3037 255.175 17.1042 255.086 15.9491C254.938 14.1424 255.145 12.7504 255.708 11.773C256.301 10.7956 256.982 10.0552 257.753 9.55171C258.642 9.01859 259.679 8.67798 260.864 8.52989C262.079 8.52989 263.116 8.72241 263.975 9.10744C264.835 9.46285 265.561 9.93673 266.153 10.5291C266.776 11.1214 267.265 11.7878 267.62 12.5283C267.976 13.2687 268.257 13.9944 268.465 14.7052C268.672 15.416 268.805 16.0972 268.865 16.7488C268.924 17.3708 268.968 17.8743 268.998 18.2593C269.028 17.1338 269.25 16.2749 269.665 15.6826C270.109 15.0902 270.583 14.6608 271.087 14.3942C271.68 14.0684 272.346 13.9055 273.087 13.9055C274.273 13.9351 275.162 14.2165 275.754 14.7496C276.376 15.2531 276.821 15.8307 277.088 16.4822C277.414 17.2523 277.577 18.0964 277.577 19.0146C277.577 17.6521 277.68 16.4526 277.888 15.416C278.095 14.3794 278.362 13.4909 278.688 12.7504C279.014 11.9804 279.384 11.3584 279.799 10.8845C280.243 10.381 280.688 9.96635 281.132 9.64056C282.17 8.90012 283.355 8.52989 284.688 8.52989C285.518 8.52989 286.244 8.64837 286.866 8.88531C287.518 9.09263 288.066 9.374 288.511 9.72941C288.955 10.0552 289.326 10.4402 289.622 10.8845C289.948 11.2991 290.2 11.7286 290.378 12.1729C290.793 13.2391 291 14.4386 291 15.7714C290.941 17.6373 290.748 19.3107 290.422 20.7916C290.096 22.2429 289.77 23.472 289.444 24.479C289.029 25.6637 288.585 26.7003 288.111 27.5889C287.4 28.8921 286.614 29.8694 285.755 30.521C284.925 31.1726 284.125 31.6465 283.355 31.9427C282.466 32.2685 281.592 32.4462 280.732 32.4758Z" fill="#FFE8CF"/>
<path fill-rule="evenodd" clip-rule="evenodd" d="M11.0232 10.8274C12.8012 8.99109 14.8754 8.07294 17.246 8.07294C18.7276 8.07294 19.8685 8.32469 20.6685 8.82819C20.9648 9.03551 21.2315 9.30207 21.4686 9.62787C21.5278 9.70183 21.5796 9.77117 21.624 9.83589C21.7407 10.0059 21.587 10.1098 21.4241 9.98328C21.1278 9.80557 20.6389 9.62787 19.9573 9.45016C19.2758 9.27245 18.5202 9.1836 17.6905 9.1836C15.4088 9.1836 13.4827 10.0721 11.9122 11.8492C10.3713 13.5966 9.60086 15.8476 9.60086 18.602C9.60086 21.3565 10.1787 23.4001 11.3344 24.7329C12.5196 26.0361 13.9568 26.6877 15.6459 26.6877C17.3349 26.6877 18.6387 26.3915 19.5573 25.7991C20.2528 25.3677 21.9245 25.4871 22.6106 25.9332C23.3841 26.4362 24.3961 26.6877 25.6467 26.6877C27.1704 26.6877 28.4236 26.4817 29.4064 26.0699C30.311 25.6908 30.7139 24.7051 30.7139 23.7247V20.0846C30.7139 19.773 30.4053 19.5889 30.1333 19.4266L30.0916 19.4017C29.7974 19.2252 29.888 18.807 29.964 18.4562C29.9682 18.437 29.9724 18.4177 29.9764 18.399C29.9791 18.3865 29.9817 18.3741 29.9842 18.3618L30.3138 16.7805C30.5805 15.3589 30.7139 13.6411 30.7139 11.6271C30.7139 8.22103 29.6027 5.46658 27.3802 3.36373C25.1874 1.23125 21.8094 0.165015 17.246 0.165015C11.6455 0.165015 7.36362 1.97169 4.40039 5.58505C1.4668 9.16879 0 13.8188 0 19.535C0 25.2216 1.30382 29.294 3.91146 31.7523C6.54874 34.2105 10.312 35.4397 15.2014 35.4397C17.0386 35.4397 18.8313 35.2472 20.5796 34.8621C20.9897 34.7733 21.3698 34.6822 21.7199 34.5886C23.2628 34.1765 23.8077 32.5357 23.2131 31.0543L21.4804 26.7376C21.3696 26.4615 21.0124 26.3884 20.8019 26.5988C20.5055 26.895 19.8981 27.1912 18.9795 27.4873C18.0609 27.7539 16.9793 27.8872 15.7347 27.8872C13.3642 27.8872 11.5418 27.0727 10.2676 25.4437C8.9934 23.7851 8.35631 21.7119 8.35631 19.224C8.35631 15.4626 9.24528 12.6637 11.0232 10.8274ZM20.3757 15.694C20.6663 15.7825 20.6669 16.1343 20.5796 16.4251C20.3783 17.1093 20.2317 17.8208 20.1398 18.5597C20.0549 19.2423 19.7566 19.9792 19.0684 19.9792C18.3572 19.9792 18.0016 19.535 18.0016 18.6465C18.0016 17.7283 18.1646 17.0027 18.4905 16.4696C18.8165 15.9068 19.2462 15.6254 19.7796 15.6254C20.0269 15.6254 20.2256 15.6483 20.3757 15.694Z" fill="#FFE8CF"/>
</svg>
