<svg width="124" height="109" viewBox="0 0 124 109" fill="none" xmlns="http://www.w3.org/2000/svg">
<path d="M57.9281 54.2622C63.4618 36.7423 57.2232 19.1522 43.9937 14.9736C30.7642 10.7949 15.5535 21.6102 10.0198 39.1301C4.48601 56.6501 10.7246 74.2402 23.9541 78.4188C37.1837 82.5974 52.3943 71.7822 57.9281 54.2622Z" fill="#BE7216"/>
<path d="M19.3083 42.0665C24.1772 26.6523 36.5372 16.4305 48.4476 17.0425C47.0684 16.1767 45.581 15.4791 43.9918 14.9772C30.7628 10.7985 15.5524 21.6129 10.0186 39.1321C4.48471 56.6514 10.7227 74.2408 23.9515 78.4195C25.5409 78.9215 27.1589 79.205 28.7853 79.2885C18.6846 72.9478 14.4394 57.4807 19.3083 42.0665Z" fill="#A35D0D"/>
<path d="M24.7538 78.3209C23.857 78.3209 22.9946 77.8238 22.5696 76.9662C17.6804 67.1002 19.7548 59.473 22.3565 54.8118C25.1515 49.8041 29.1171 47.1396 29.2845 47.0285C29.2927 47.0229 29.3013 47.0173 29.3098 47.0119C37.3191 41.8461 41.9289 36.2153 43.0108 30.2762C44.1336 24.1135 41.011 19.8089 40.9791 19.766C40.1785 18.6851 40.4057 17.1599 41.4866 16.3591C42.5673 15.5586 44.0927 15.7855 44.8935 16.8665C45.074 17.1103 49.2999 22.933 47.8028 31.1491C46.4708 38.4612 41.143 45.1714 31.968 51.0935C31.3674 51.5004 19.5018 59.8067 26.9336 74.8032C27.5308 76.0086 27.0381 77.4697 25.8328 78.0669C25.486 78.2393 25.1172 78.3209 24.7538 78.3209Z" fill="#97561B"/>
<path d="M33.8653 72.9412C35.883 72.9412 37.5186 71.3056 37.5186 69.2879C37.5186 67.2702 35.883 65.6345 33.8653 65.6345C31.8476 65.6345 30.2119 67.2702 30.2119 69.2879C30.2119 71.3056 31.8476 72.9412 33.8653 72.9412Z" fill="#A35D0D"/>
<path d="M84.132 83.5198C96.3097 76.8746 99.0476 58.4141 90.2474 42.2872C81.4471 26.1602 64.4412 18.4737 52.2635 25.1189C40.0858 31.7641 37.3479 50.2245 46.1481 66.3515C54.9484 82.4785 71.9544 90.165 84.132 83.5198Z" fill="#BE7216"/>
<path d="M54.7036 61.6832C46.96 47.4936 48.1503 31.499 56.8425 23.3332C55.2626 23.7282 53.7292 24.3175 52.2661 25.1159C40.0884 31.7617 37.3509 50.223 46.1517 66.3501C54.9526 82.4773 71.9595 90.1636 84.1372 83.5178C85.6004 82.7194 86.9255 81.7488 88.1126 80.6338C76.5426 83.5257 62.4472 75.8728 54.7036 61.6832Z" fill="#A35D0D"/>
<path d="M75.9317 80.7793C69.9143 77.2084 67.2128 72.2609 66.0072 68.3142C64.3319 62.8295 65.1575 58.1236 65.1932 57.9259C65.1949 57.9158 65.1969 57.9059 65.1988 57.896C67.0119 48.5907 66.1624 41.391 62.6744 36.4968C59.058 31.4229 53.8391 30.635 53.6187 30.6036C52.285 30.4324 51.3491 29.2128 51.5207 27.8787C51.6922 26.5446 52.9197 25.6029 54.2537 25.7741C54.5552 25.8131 61.6815 26.7986 66.5697 33.5701C70.9202 39.5961 72.069 48.0868 69.9842 58.8062C69.8617 59.5214 67.6332 73.8331 83.5958 78.8615C84.8801 79.2663 85.5913 80.6335 85.1871 81.9164C84.7831 83.1993 83.4154 83.9119 82.1323 83.5078C79.7498 82.7569 77.6974 81.8271 75.9317 80.7793Z" fill="#97561B"/>
<path d="M83.9249 59.5958C85.66 60.6255 87.9014 60.0537 88.9312 58.3186C89.9609 56.5834 89.3891 54.3421 87.6539 53.3123C85.9188 52.2826 83.6774 52.8544 82.6477 54.5895C81.6179 56.3247 82.1898 58.5661 83.9249 59.5958Z" fill="#A35D0D"/>
<path d="M83.9283 72.233C85.6635 73.2627 87.9048 72.6909 88.9346 70.9558C89.9643 69.2206 89.3925 66.9793 87.6574 65.9495C85.9222 64.9198 83.6809 65.4916 82.6511 67.2267C81.6214 68.9619 82.1932 71.2032 83.9283 72.233Z" fill="#A35D0D"/>
</svg>
