<svg width="82" height="82" viewBox="0 0 82 82" fill="none" xmlns="http://www.w3.org/2000/svg">
<path d="M0 20C0 8.95431 8.95431 0 20 0H62C73.0457 0 82 8.95431 82 20V62C82 73.0457 73.0457 82 62 82H20C8.95431 82 0 73.0457 0 62V20Z" fill="#FCD7AD"/>
<path d="M48.5413 9.25996H33.4586L25.6616 27.377C25.2251 28.3911 25 29.4846 25 30.5899V72.7162C25 76.1866 27.7935 79 31.2395 79H50.7605C54.2065 79 57 76.1866 57 72.7162V30.59C57 29.4847 56.7749 28.3912 56.3384 27.3772L48.5413 9.25996Z" fill="#FFD551"/>
<path d="M31.6115 72.7162V30.59C31.6115 29.4847 31.8367 28.3912 32.2732 27.377L40.0702 9.25996H33.4586L25.6616 27.377C25.2251 28.3911 25 29.4846 25 30.5899V72.7162C25 76.1866 27.7935 79 31.2395 79H37.8512C34.4051 79 31.6115 76.1866 31.6115 72.7162Z" fill="#F9BB32"/>
<path d="M31.2397 76.503C29.1663 76.503 27.4794 74.8043 27.4794 72.7162V30.59C27.4794 29.8221 27.6332 29.0751 27.9368 28.3699L35.0863 11.7568H46.9139L54.0636 28.3701C54.3668 29.0749 54.5206 29.8218 54.5206 30.59V72.7162C54.5206 74.8043 52.8339 76.503 50.7605 76.503H31.2397Z" fill="#FFEACF"/>
<path d="M50.5423 11.9292H31.4577C30.41 11.9292 29.5606 11.0738 29.5606 10.0186V4.91061C29.5606 3.85548 30.41 3 31.4577 3H50.5423C51.59 3 52.4394 3.85548 52.4394 4.91061V10.0186C52.4394 11.0738 51.59 11.9292 50.5423 11.9292Z" fill="#FFD551"/>
<path d="M36.1721 9.9317V4.9977C36.1721 3.89448 37.0601 3.00016 38.1555 3.00016H31.544C30.4486 3.00016 29.5606 3.89448 29.5606 4.9977V9.9317C29.5606 11.0349 30.4486 11.9292 31.544 11.9292H38.1555C37.0601 11.9292 36.1721 11.0349 36.1721 9.9317Z" fill="#F9BB32"/>
<path d="M31.6115 30.59C31.6115 29.4847 31.8367 28.3912 32.2732 27.377L38.9955 11.7568H35.086L27.9364 28.3699C27.6331 29.0751 27.4791 29.8221 27.4791 30.59V72.7162C27.4791 74.8043 29.1661 76.503 31.2394 76.503H32.8722C32.0812 75.4498 31.6115 74.1385 31.6115 72.7162V30.59Z" fill="#FFD59A"/>
<path d="M51.7781 40.2907C51.2544 40.2907 50.8296 39.8629 50.8296 39.3354V30.1732L48.9854 24.9144C48.8108 24.4168 49.0698 23.8712 49.5638 23.6954C50.0571 23.52 50.5997 23.7806 50.7741 24.2782L52.6725 29.6914C52.7084 29.7936 52.7267 29.9011 52.7267 30.0095V39.3354C52.7267 39.8629 52.3021 40.2907 51.7781 40.2907Z" fill="#FCF9DE"/>
<path d="M48.5575 10.2153C48.0337 10.2153 47.6089 9.78745 47.6089 9.25996V5.10518C47.6089 4.57769 48.0337 4.14987 48.5575 4.14987C49.0812 4.14987 49.506 4.57769 49.506 5.10518V9.25996C49.506 9.78761 49.0814 10.2153 48.5575 10.2153Z" fill="#FFDF74"/>
<path d="M42.5383 74.1085C43.9076 74.1085 45.0177 72.9906 45.0177 71.6115C45.0177 70.2324 43.9076 69.1145 42.5383 69.1145C41.1689 69.1145 40.0589 70.2324 40.0589 71.6115C40.0589 72.9906 41.1689 74.1085 42.5383 74.1085Z" fill="#FFD59A"/>
<path d="M36.1859 68.2198C37.5552 68.2198 38.6653 67.1019 38.6653 65.7228C38.6653 64.3438 37.5552 63.2258 36.1859 63.2258C34.8165 63.2258 33.7065 64.3438 33.7065 65.7228C33.7065 67.1019 34.8165 68.2198 36.1859 68.2198Z" fill="#FFD59A"/>
</svg>
