<svg width="41" height="49" viewBox="0 0 41 49" fill="none" xmlns="http://www.w3.org/2000/svg">
<path d="M38.493 12.9059L33.143 7.55589L31.3441 8.72453H29.2661L26.5067 10.6133L28.1612 13.0304L31.1978 10.9519C31.6105 10.6694 32.1657 10.721 32.5193 11.0746L35.236 13.7913C35.6033 14.1586 35.7487 14.6931 35.6179 15.1957L33.7591 22.3399C33.64 22.7976 33.2266 23.1172 32.7536 23.1172H30.9639C30.5049 23.1172 30.1328 23.4894 30.1328 23.9484V25.2151C30.1328 25.6742 30.5049 26.0463 30.9639 26.0463H34.6891H35.018C35.4911 26.0463 35.9044 25.7267 36.0236 25.269L36.1064 24.9506L38.8746 14.3103C39.0056 13.8076 38.8603 13.2733 38.493 12.9059Z" fill="#BF6C0D"/>
<path d="M38.1017 25.269C37.9826 25.7267 37.5692 26.0463 37.0962 26.0463H36.7672H33.0421C32.583 26.0463 32.2109 25.6742 32.2109 25.2151V23.9484C32.2109 23.4894 32.583 23.1172 33.0421 23.1172H34.8317C35.3048 23.1172 35.7181 22.7976 35.8372 22.3399L37.696 15.1957C37.8268 14.693 37.6815 14.1586 37.3142 13.7913L34.5974 11.0746C34.2439 10.721 33.6885 10.6695 33.2759 10.9519L30.2393 13.0304L28.5848 10.6133L33.3363 7.36097L33.6278 7.16138C34.0405 6.87899 34.5958 6.93052 34.9493 7.28409L35.1991 7.53386L40.571 12.9058C40.9383 13.2731 41.0836 13.8074 40.9528 14.3101L38.1845 24.9505L38.1017 25.269Z" fill="#FFA730"/>
<path d="M38.1017 25.269C37.9826 25.7267 37.5692 26.0463 37.0962 26.0463H36.7672H33.0421C32.583 26.0463 32.2109 25.6742 32.2109 25.2151V23.9484C32.2109 23.4894 32.583 23.1172 33.0421 23.1172H34.8317C35.3048 23.1172 35.7181 22.7976 35.8372 22.3399L37.696 15.1957C37.8268 14.693 37.6815 14.1586 37.3142 13.7913L34.5974 11.0746C34.2439 10.721 33.6885 10.6695 33.2759 10.9519L30.2393 13.0304L28.5848 10.6133L33.3363 7.36097L33.6278 7.16138C34.0405 6.87899 34.5958 6.93052 34.9493 7.28409L35.1991 7.53386L40.571 12.9058C40.9383 13.2731 41.0836 13.8074 40.9528 14.3101L38.1845 24.9505L38.1017 25.269Z" fill="#FFA730"/>
<path d="M33.0841 7.53365L28.5847 10.6133L30.2392 13.0304L33.2758 10.9519C33.3177 10.9232 33.3612 10.899 33.4057 10.8772L33.7186 8.8648C33.7328 8.77389 33.7164 8.6809 33.672 8.60037L33.0841 7.53365Z" fill="#E58D23"/>
<path d="M27.6313 23.1594H8.16199V35.6931H27.6313V23.1594Z" fill="#E58D23"/>
<path d="M27.6312 23.1594H12.3179H8.16199V28.1243V35.693H12.3179V29.1633C12.3179 28.5894 12.7831 28.1243 13.3569 28.1243H27.6313V23.1594H27.6312Z" fill="#BF6C0D"/>
<path d="M28.0793 26.0463H7.71398C7.20176 26.0463 6.76601 25.6731 6.68736 25.1669L4.13074 8.72464H31.6624L29.1059 25.1669C29.0271 25.6731 28.5914 26.0463 28.0793 26.0463Z" fill="#FFA730"/>
<path d="M28.0792 31.3274H7.71397C7.20175 31.3274 6.766 31.7006 6.68735 32.2067L4.27982 47.6902C4.20148 48.1941 4.59121 48.649 5.10114 48.649H30.692C31.2019 48.649 31.5916 48.1941 31.5133 47.6902L29.1059 32.2066C29.0271 31.7006 28.5914 31.3274 28.0792 31.3274Z" fill="#FFA730"/>
<path d="M13.1612 26.0463H22.6319L24.8675 8.72464H10.9257L13.1612 26.0463Z" fill="#FFB74B"/>
<path d="M4.93805 14.2496L10.463 8.72464H5.74534H4.13076H0.416407C0.0461144 8.72464 -0.13924 9.17233 0.122583 9.43405L4.93805 14.2496Z" fill="#FFA730"/>
<path d="M2.20055 9.43405C1.93872 9.17223 2.12418 8.72464 2.49437 8.72464H0.416407C0.0461144 8.72464 -0.13924 9.17233 0.122583 9.43405L4.93816 14.2496L5.97714 13.2106L2.20055 9.43405Z" fill="#E58D23"/>
<path d="M31.6625 8.72464H4.13074L5.20463 6.21893C5.45024 5.64593 6.01368 5.27439 6.63707 5.27439H28.8406C29.4085 5.27439 29.9315 5.58328 30.2056 6.08074L31.6625 8.72464Z" fill="#BF6C0D"/>
<path d="M19.9839 5.27439H15.7058L14.6042 1.04054C14.4673 0.514089 14.8646 0.000104904 15.4086 0.000104904H20.281C20.825 0.000104904 21.2224 0.514089 21.0854 1.04054L19.9839 5.27439Z" fill="#BF6C0D"/>
<path d="M22.6319 31.3274H13.1612L10.9257 48.649H24.8675L22.6319 31.3274Z" fill="#FFB74B"/>
<path d="M8.43575 47.6902L10.8433 32.2066C10.9219 31.7006 11.3578 31.3273 11.8699 31.3273H7.71397C7.20175 31.3273 6.766 31.7005 6.68735 32.2066L4.27982 47.6902C4.20148 48.1941 4.59121 48.649 5.10114 48.649H9.25706C8.74713 48.649 8.35741 48.1941 8.43575 47.6902Z" fill="#E58D23"/>
<path d="M10.8433 25.1669L8.28666 8.72453H4.13074L6.68736 25.1669C6.76601 25.673 7.20186 26.0463 7.71398 26.0463H11.8699C11.3578 26.0463 10.9219 25.673 10.8433 25.1669Z" fill="#E58D23"/>
<path d="M18.2138 0H15.4085C14.8645 0 14.4671 0.513984 14.6041 1.04044L15.7057 5.27428H18.5109L17.4094 1.04044C17.2725 0.513984 17.6698 0 18.2138 0Z" fill="#A56021"/>
<path d="M9.36055 7.4657C9.60617 6.89271 10.1696 6.52117 10.793 6.52117H30.4482L30.2055 6.08074C29.9314 5.58338 29.4085 5.27439 28.8405 5.27439H6.63707C6.01368 5.27439 5.45014 5.64593 5.20463 6.21893L4.13074 8.72464H8.82101L9.36055 7.4657Z" fill="#A56021"/>
<path d="M15.0636 26.0463H23.4868L25.4752 8.72464H13.0752L15.0636 26.0463Z" fill="#FFC34C"/>
<path d="M23.4868 31.3274H15.0636L13.0752 48.649H25.4752L23.4868 31.3274Z" fill="#FFC34C"/>
<path d="M12.7999 26.0463H21.2232L23.2116 8.72464H10.8115L12.7999 26.0463Z" fill="#FFB74B"/>
<path d="M10.8115 8.72464L12.7999 26.0463H16.4962L14.5079 8.72464H10.8115Z" fill="#FFC34C"/>
<path d="M21.2232 31.3274H12.7999L10.8115 48.649H23.2116L21.2232 31.3274Z" fill="#FFB74B"/>
<path d="M13.1613 31.3274L10.9257 48.649H15.0816L17.3173 31.3274H13.1613Z" fill="#FFC34C"/>
<path d="M27.6756 22.885C27.6449 22.885 27.614 22.8827 27.5827 22.878C27.2422 22.8271 27.0073 22.5099 27.0582 22.1694L28.6675 11.3949C28.7183 11.0544 29.0361 10.8197 29.3761 10.8704C29.7165 10.9214 29.9515 11.2386 29.9005 11.5791L28.2913 22.3536C28.2451 22.6629 27.9791 22.885 27.6756 22.885Z" fill="#FFB74B"/>
<path d="M29.2832 45.6074C28.983 45.6074 28.7185 45.3901 28.6686 45.0843L27.3384 36.9256C27.283 36.5857 27.5136 36.2654 27.8534 36.21C28.1929 36.1547 28.5136 36.3852 28.569 36.725L29.8992 44.8837C29.9546 45.2235 29.724 45.5438 29.3842 45.5992C29.3503 45.6048 29.3165 45.6074 29.2832 45.6074Z" fill="#FFB74B"/>
<path d="M37.2957 22.8851C37.2427 22.8851 37.189 22.8784 37.1354 22.8641C36.8026 22.7758 36.6045 22.4344 36.6928 22.1016L38.7014 14.5351C38.7898 14.2024 39.1313 14.0043 39.4639 14.0925C39.7967 14.1808 39.9949 14.5223 39.9065 14.855L37.8979 22.4215C37.8237 22.7007 37.5715 22.8851 37.2957 22.8851Z" fill="#FFB74B"/>
<path d="M20.5543 47.7197C21.415 47.7197 22.1128 47.0219 22.1128 46.1612C22.1128 45.3005 21.415 44.6027 20.5543 44.6027C19.6936 44.6027 18.9958 45.3005 18.9958 46.1612C18.9958 47.0219 19.6936 47.7197 20.5543 47.7197Z" fill="#FFA730"/>
<path d="M18.511 43.1051C19.3717 43.1051 20.0695 42.4074 20.0695 41.5467C20.0695 40.6859 19.3717 39.9882 18.511 39.9882C17.6503 39.9882 16.9525 40.6859 16.9525 41.5467C16.9525 42.4074 17.6503 43.1051 18.511 43.1051Z" fill="#FFA730"/>
<path d="M19.4204 4.01099C19.3709 4.01099 19.3207 4.00507 19.2707 3.9927C18.9364 3.91031 18.7323 3.57243 18.8146 3.23819L19.2216 1.58767C19.304 1.25343 19.642 1.04927 19.9761 1.13166C20.3104 1.21405 20.5145 1.55193 20.4321 1.88617L20.0252 3.53669C19.955 3.82085 19.7005 4.01099 19.4204 4.01099Z" fill="#E58D23"/>
</svg>
