<svg width="145" height="145" viewBox="0 0 145 145" fill="none" xmlns="http://www.w3.org/2000/svg">
<rect width="145" height="145" rx="20" fill="#FFE8CF"/>
<path d="M46.1208 57.1459H56.9323V18.6104C56.9323 15.0632 54.0569 12.1878 50.5097 12.1878H46.1208C42.5736 12.1878 39.6982 15.0632 39.6982 18.6104V50.7233C39.6982 54.2705 42.5736 57.1459 46.1208 57.1459Z" fill="#8C4C17"/>
<path d="M64.1806 99.1274H104.673V28.6625C104.673 22.1762 93.9037 16.9184 80.6183 16.9184H64.1806C50.8952 16.9184 40.126 22.1762 40.126 28.6625V87.3832C40.126 93.8695 50.8952 99.1274 64.1806 99.1274Z" fill="#8C4C17"/>
<path d="M101.569 58.6054C106.636 58.6054 110.744 54.4978 110.744 49.4308C110.744 44.3637 106.636 40.2561 101.569 40.2561C96.5022 40.2561 92.3945 44.3637 92.3945 49.4308C92.3945 54.4978 96.5022 58.6054 101.569 58.6054Z" fill="#FFEACF"/>
<path d="M43.7655 58.6054C48.8325 58.6054 52.9401 54.4978 52.9401 49.4308C52.9401 44.3637 48.8325 40.2561 43.7655 40.2561C38.6985 40.2561 34.5908 44.3637 34.5908 49.4308C34.5908 54.4978 38.6985 58.6054 43.7655 58.6054Z" fill="#FFD59A"/>
<path d="M123.406 137.016H23V123.582C23 106.734 36.6586 93.0751 53.5073 93.0751H92.8992C109.748 93.0751 123.406 106.734 123.406 123.582V137.016H123.406Z" fill="#FF614C"/>
<path d="M43.5523 130.005C43.5523 113.156 57.2108 99.4977 74.0595 99.4977H111.624C106.455 95.4733 99.9576 93.0751 92.8992 93.0751H53.5073C36.6586 93.0751 23 106.734 23 123.582V137.016H43.5523V130.005Z" fill="#FF814B"/>
<path d="M73.2026 111.54C65.5173 111.54 59.2871 105.31 59.2871 97.6245V64.4413H87.1184V97.6245C87.1181 105.31 80.8878 111.54 73.2026 111.54Z" fill="#FFEACF"/>
<path d="M95.4041 124.805C92.2811 124.305 90.1549 121.368 90.6549 118.245L95.0306 90.9225C95.1989 89.8718 96.187 89.1563 97.2377 89.3246L104.742 90.5266C105.793 90.6949 106.508 91.683 106.34 92.7337L101.964 120.056C101.464 123.179 98.5271 125.306 95.4041 124.805Z" fill="#E5A84B"/>
<path d="M51.1266 124.805C54.2496 124.305 56.3758 121.368 55.8758 118.245L51.5001 90.9225C51.3318 89.8718 50.3437 89.1563 49.2929 89.3246L41.7885 90.5266C40.7377 90.6949 40.0223 91.683 40.1905 92.7337L44.5662 120.056C45.0662 123.179 48.0036 125.306 51.1266 124.805Z" fill="#E5A84B"/>
<path d="M50.3462 120.056L45.9705 92.7334C45.8023 91.6827 46.5177 90.6946 47.5685 90.5263L51.0537 89.9682C50.6317 89.4807 49.9763 89.2151 49.2929 89.3246L41.7885 90.5266C40.7377 90.6949 40.0223 91.683 40.1905 92.7337L44.5662 120.056C45.0662 123.179 48.0036 125.306 51.1266 124.806C51.8478 124.69 52.5123 124.44 53.107 124.092C51.6818 123.256 50.6276 121.814 50.3462 120.056Z" fill="#CC7A00"/>
<path d="M109.25 137.016H37.1562V123.101C37.1562 119.554 40.0316 116.678 43.5788 116.678H102.827C106.374 116.678 109.25 119.554 109.25 123.101V137.016Z" fill="#E6A84B"/>
<path d="M56.424 116.678H43.5788C40.0316 116.678 37.1562 119.553 37.1562 123.101V137.016H50.0014V123.101C50.0014 119.553 52.8768 116.678 56.424 116.678Z" fill="#CC7A00"/>
<path d="M68.921 97.6245V64.4413H59.2871V97.6245C59.2871 105.31 65.5173 111.54 73.2029 111.54C74.8962 111.54 76.5189 111.237 78.0198 110.683C72.7084 108.723 68.921 103.616 68.921 97.6245Z" fill="#FFD59A"/>
<path d="M73.2022 82.0934C57.5359 82.0934 44.8359 69.3934 44.8359 53.7271V39.286C44.8359 23.6197 57.5359 10.9197 73.2022 10.9197C88.8685 10.9197 101.569 23.6197 101.569 39.286V53.7271C101.569 69.3934 88.8685 82.0934 73.2022 82.0934Z" fill="#FFEACF"/>
<path d="M54.7912 50.1559V36.075C54.7912 35.0009 54.8513 33.9408 54.9682 32.8981C55.149 31.2835 56.533 30.0722 58.1576 30.0722H100.038C96.2121 18.929 85.6434 10.9197 73.2025 10.9197C71.9848 10.9197 70.7857 10.999 69.6081 11.1477C69.6097 11.1467 69.6117 11.1458 69.6136 11.1448C69.5227 11.1564 69.4338 11.1731 69.3432 11.1853C69.0442 11.2257 68.7459 11.2691 68.4501 11.3192C68.3066 11.3433 68.1643 11.3709 68.0218 11.3972C67.7597 11.4454 67.4986 11.4965 67.2392 11.5517C67.0886 11.5841 66.9389 11.6178 66.7896 11.6522C66.5369 11.7106 66.2861 11.7726 66.0359 11.8378C65.8895 11.876 65.743 11.9139 65.5976 11.9544C65.3384 12.0263 65.0818 12.1034 64.8259 12.1824C64.6955 12.2225 64.5642 12.2611 64.4344 12.3031C64.1278 12.403 63.8243 12.509 63.5221 12.6185C63.4476 12.6455 63.3715 12.6699 63.2973 12.6978C62.9219 12.8378 62.5504 12.9855 62.1824 13.141C62.0867 13.1814 61.9926 13.2257 61.8972 13.2672C61.6281 13.3844 61.3599 13.5035 61.095 13.6288C60.9624 13.6914 60.832 13.7572 60.7003 13.8221C60.4752 13.9329 60.2511 14.0453 60.0295 14.1618C59.8888 14.2354 59.7498 14.3112 59.6108 14.3873C59.4004 14.5022 59.1917 14.6201 58.9842 14.7405C58.8452 14.8211 58.7068 14.902 58.5693 14.9849C58.3616 15.1104 58.156 15.2395 57.9515 15.3702C57.8224 15.4528 57.6923 15.5343 57.5645 15.6188C57.3391 15.7678 57.1178 15.9223 56.8972 16.0774C56.7957 16.149 56.6923 16.2177 56.5918 16.2903C56.2794 16.5163 55.9717 16.7482 55.6692 16.9865C55.5751 17.0607 55.4842 17.1384 55.3911 17.2138C55.1801 17.3844 54.9698 17.5558 54.7636 17.7321C54.6406 17.8375 54.5205 17.9463 54.3995 18.0536C54.2277 18.2058 54.0565 18.3587 53.8886 18.5151C53.7614 18.6332 53.6365 18.7536 53.5115 18.8741C53.3539 19.026 53.1981 19.1795 53.044 19.3352C52.9194 19.4611 52.7961 19.5873 52.6737 19.7154C52.5231 19.8734 52.3754 20.0337 52.2286 20.1949C52.1105 20.3246 51.992 20.4534 51.8764 20.5854C51.7254 20.7575 51.5787 20.9332 51.4316 21.1088C51.3269 21.2341 51.2203 21.3574 51.1175 21.4842C50.9027 21.7507 50.693 22.0218 50.4875 22.296C50.3805 22.4383 50.2781 22.5838 50.1741 22.7279C50.0302 22.9277 49.8863 23.1268 49.7476 23.3301C49.6461 23.4791 49.5488 23.6313 49.4499 23.7825C49.3343 23.9592 49.219 24.1361 49.1073 24.3156C49.0071 24.4762 48.9101 24.639 48.8131 24.8018C48.7087 24.9768 48.606 25.1531 48.5055 25.3304C48.4107 25.4977 48.3176 25.6656 48.2261 25.8349C48.1294 26.0137 48.0357 26.1942 47.9432 26.3756C47.8555 26.5465 47.7678 26.717 47.6837 26.8901C47.5922 27.078 47.5051 27.2684 47.4178 27.4588C47.3401 27.628 47.2601 27.796 47.1856 27.9672C47.0851 28.1977 46.991 28.4318 46.8966 28.6656C46.7938 28.9203 46.6946 29.1765 46.5989 29.435C46.5206 29.6467 46.44 29.857 46.3664 30.0709H46.3687C45.3767 32.9604 44.835 36.059 44.835 39.285V53.3836C44.835 68.9895 57.2961 81.9297 72.901 82.0912C77.918 82.1432 82.6386 80.8921 86.7455 78.6561C85.5069 78.8125 84.2439 78.8895 82.961 78.8809C67.313 78.7759 54.7912 65.8051 54.7912 50.1559Z" fill="#FFD59A"/>
<path d="M106.28 36.8284H54.2154C48.3859 36.8284 43.6602 30.7859 43.6602 23.332V10.2417C43.6602 7.89913 45.1454 6 46.9775 6H93.3121C100.474 6 106.28 13.4238 106.28 22.5812V36.8284Z" fill="#A56021"/>
<path d="M67.0093 29.1162C60.9913 29.1162 56.113 23.0737 56.113 15.6198V6H47.0846C45.1931 6 43.6602 7.89913 43.6602 10.2417V23.332C43.6602 30.7859 48.5385 36.8284 54.5565 36.8284H106.28V29.1162H67.0093Z" fill="#8C4C17"/>
<path d="M101.251 25.9368C100.284 25.9368 99.4826 24.9593 99.4446 23.713C99.3484 20.5556 98.5682 18.1336 97.1254 16.514C94.5038 13.5699 90.3987 13.9551 90.3586 13.9613C89.3574 14.0789 88.4828 13.1392 88.3923 11.8667C88.3018 10.5938 89.0353 9.46856 90.0305 9.35249C90.2606 9.3255 95.6939 8.74863 99.5127 13.0366C101.731 15.5265 102.924 19.0579 103.061 23.5329C103.099 24.8101 102.322 25.8851 101.323 25.9349C101.299 25.9364 101.275 25.9368 101.251 25.9368Z" fill="#BF6C0D"/>
<path d="M101.569 135.304C100.505 135.304 99.6426 134.441 99.6426 133.377V122.458C99.6426 121.394 100.505 120.532 101.569 120.532C102.633 120.532 103.496 121.394 103.496 122.458V133.377C103.496 134.441 102.633 135.304 101.569 135.304Z" fill="#EA9532"/>
<path d="M119.342 134.019C119.278 134.019 119.214 134.016 119.15 134.01C118.091 133.905 117.317 132.962 117.422 131.902C119.167 114.263 111.709 110.201 111.634 110.162C110.673 109.705 110.278 108.562 110.735 107.601C111.192 106.641 112.355 106.238 113.316 106.696C113.724 106.89 123.293 111.689 121.257 132.282C121.159 133.277 120.32 134.019 119.342 134.019Z" fill="#FF9A7A" fill-opacity="0.66"/>
<path d="M59.2885 129.802C62.008 129.802 64.2126 127.598 64.2126 124.878C64.2126 122.159 62.008 119.954 59.2885 119.954C56.5689 119.954 54.3643 122.159 54.3643 124.878C54.3643 127.598 56.5689 129.802 59.2885 129.802Z" fill="#CC7A00"/>
<path d="M64.7611 23.4458C67.3151 23.4458 69.3856 20.7984 69.3856 17.5328C69.3856 14.2672 67.3151 11.6199 64.7611 11.6199C62.2071 11.6199 60.1367 14.2672 60.1367 17.5328C60.1367 20.7984 62.2071 23.4458 64.7611 23.4458Z" fill="#8C4C17"/>
</svg>
