<svg width="145" height="145" viewBox="0 0 145 145" fill="none" xmlns="http://www.w3.org/2000/svg">
<rect width="145" height="145" rx="20" fill="#FFE8CF"/>
<path d="M45.9853 60.5868H56.7331V22.2783C56.7331 18.752 53.8747 15.8935 50.3484 15.8935H45.9853C42.459 15.8935 39.6006 18.752 39.6006 22.2783V54.2021C39.6006 57.7284 42.459 60.5868 45.9853 60.5868Z" fill="#8C4C17"/>
<path d="M99.8298 15.9098H95.4668C91.9408 15.9098 89.082 18.7686 89.082 22.2946V27.8538C95.9916 32.9935 100.468 41.2206 100.468 50.4938V60.5705C103.695 60.2503 106.215 57.5288 106.215 54.218V22.2942C106.215 18.7683 103.356 15.9098 99.8298 15.9098Z" fill="#8C4C17"/>
<path d="M101.106 62.0378C106.143 62.0378 110.227 57.9543 110.227 52.9171C110.227 47.88 106.143 43.7965 101.106 43.7965C96.0688 43.7965 91.9854 47.88 91.9854 52.9171C91.9854 57.9543 96.0688 62.0378 101.106 62.0378Z" fill="#FFD298"/>
<path d="M43.6431 62.0378C48.6803 62.0378 52.7637 57.9543 52.7637 52.9171C52.7637 47.88 48.6803 43.7965 43.6431 43.7965C38.6059 43.7965 34.5225 47.88 34.5225 52.9171C34.5225 57.9543 38.6059 62.0378 43.6431 62.0378Z" fill="#FFC066"/>
<path d="M122.815 139.987H23V126.632C23 109.883 36.5781 96.3044 53.3276 96.3044H92.4875C109.237 96.3044 122.815 109.883 122.815 126.632V139.987H122.815Z" fill="#D2AA59"/>
<path d="M43.4312 133.017C43.4312 116.267 57.0094 102.689 73.7588 102.689H111.102C105.964 98.6885 99.5044 96.3044 92.4875 96.3044H53.3276C36.5781 96.3044 23 109.883 23 126.632V139.987H43.4312V133.017Z" fill="#FFB74B"/>
<path d="M72.9068 114.661C65.2668 114.661 59.0732 108.467 59.0732 100.827V67.8393H86.7406V100.827C86.7403 108.467 80.5468 114.661 72.9068 114.661Z" fill="#FFD298"/>
<path d="M94.9782 127.848C91.8736 127.35 89.76 124.431 90.257 121.326L94.6069 94.1646C94.7742 93.12 95.7565 92.4088 96.8011 92.576L104.261 93.7709C105.306 93.9382 106.017 94.9205 105.85 95.9651L101.5 123.126C101.003 126.231 98.0828 128.345 94.9782 127.848Z" fill="#CCC033"/>
<path d="M50.9605 127.848C54.0651 127.35 56.1787 124.431 55.6817 121.326L51.3317 94.1646C51.1645 93.12 50.1822 92.4088 49.1376 92.576L41.6774 93.7709C40.6328 93.9382 39.9216 94.9205 40.0888 95.9651L44.4388 123.126C44.9358 126.231 47.8559 128.345 50.9605 127.848Z" fill="#CCC033"/>
<path d="M50.1857 123.126L45.8358 95.9647C45.6685 94.9202 46.3798 93.9379 47.4243 93.7706L50.889 93.2158C50.4695 92.7312 49.8179 92.4672 49.1386 92.576L41.6783 93.7709C40.6338 93.9382 39.9225 94.9205 40.0898 95.9651L44.4397 123.127C44.9368 126.231 47.8569 128.345 50.9615 127.848C51.6785 127.733 52.339 127.484 52.9302 127.139C51.5134 126.308 50.4654 124.874 50.1857 123.126Z" fill="#99AF17"/>
<path d="M108.741 139.987H37.0723V126.153C37.0723 122.627 39.9307 119.769 43.457 119.769H102.356C105.883 119.769 108.741 122.627 108.741 126.153V139.987Z" fill="#CCC033"/>
<path d="M56.2265 119.768H43.457C39.9307 119.768 37.0723 122.627 37.0723 126.153V139.987H49.8418V126.153C49.8418 122.627 52.7002 119.768 56.2265 119.768Z" fill="#99AF17"/>
<path d="M68.6504 100.827V67.8393H59.0732V100.827C59.0732 108.467 65.2668 114.661 72.9071 114.661C74.5904 114.661 76.2035 114.359 77.6957 113.809C72.4155 111.86 68.6504 106.784 68.6504 100.827Z" fill="#FFC066"/>
<path d="M72.9072 85.3874C57.3332 85.3874 44.708 72.7622 44.708 57.1882V42.8321C44.708 27.2581 57.3332 14.6329 72.9072 14.6329C88.4813 14.6329 101.106 27.2581 101.106 42.8321V57.1882C101.106 72.7622 88.4813 85.3874 72.9072 85.3874Z" fill="#FFD298"/>
<path d="M54.6047 53.638V39.64C54.6047 38.5722 54.6644 37.5184 54.7806 36.4818C54.9603 34.8767 56.3362 33.6725 57.9513 33.6725H99.5846C95.7816 22.595 85.2751 14.6329 72.9075 14.6329C71.697 14.6329 70.505 14.7117 69.3343 14.8595C69.3359 14.8586 69.3378 14.8576 69.3397 14.8566C69.2494 14.8681 69.161 14.8847 69.0709 14.8969C68.7737 14.9371 68.4772 14.9802 68.1831 15.03C68.0404 15.0539 67.899 15.0814 67.7573 15.1076C67.4968 15.1555 67.2372 15.2062 66.9793 15.2611C66.8296 15.2934 66.6808 15.3269 66.5324 15.361C66.2811 15.4191 66.0318 15.4808 65.7831 15.5456C65.6375 15.5835 65.492 15.6212 65.3474 15.6614C65.0897 15.733 64.8347 15.8096 64.5802 15.8881C64.4506 15.928 64.32 15.9663 64.1911 16.0081C63.8862 16.1074 63.5845 16.2128 63.2841 16.3216C63.2101 16.3484 63.1344 16.3727 63.0607 16.4005C62.6875 16.5397 62.3181 16.6865 61.9523 16.841C61.8571 16.8813 61.7636 16.9253 61.6688 16.9665C61.4013 17.083 61.1347 17.2014 60.8713 17.3259C60.7395 17.3882 60.6099 17.4536 60.479 17.5181C60.2552 17.6283 60.0324 17.74 59.8121 17.8559C59.6723 17.929 59.534 18.0043 59.3958 18.08C59.1867 18.1943 58.9792 18.3114 58.773 18.4312C58.6347 18.5113 58.4972 18.5917 58.3605 18.6741C58.154 18.7989 57.9497 18.9272 57.7463 19.0572C57.618 19.1392 57.4887 19.2203 57.3616 19.3043C57.1375 19.4524 56.9176 19.6059 56.6982 19.7601C56.5974 19.8313 56.4946 19.8996 56.3946 19.9718C56.084 20.1965 55.7782 20.427 55.4775 20.6639C55.3839 20.7376 55.2936 20.8149 55.201 20.8899C54.9913 21.0594 54.7822 21.2299 54.5772 21.4052C54.455 21.5099 54.3356 21.6181 54.2152 21.7247C54.0444 21.876 53.8743 22.028 53.7073 22.1835C53.5809 22.301 53.4567 22.4207 53.3325 22.5404C53.1758 22.6914 53.0209 22.844 52.8677 22.9988C52.7438 23.1239 52.6213 23.2494 52.4996 23.3768C52.3499 23.5338 52.2031 23.6931 52.0572 23.8534C51.9397 23.9824 51.8219 24.1104 51.707 24.2416C51.5569 24.4127 51.411 24.5873 51.2648 24.762C51.1607 24.8865 51.0548 25.009 50.9526 25.1351C50.739 25.4001 50.5306 25.6695 50.3263 25.9422C50.22 26.0836 50.1181 26.2282 50.0147 26.3716C49.8717 26.5701 49.7286 26.768 49.5907 26.9701C49.4899 27.1182 49.3931 27.2696 49.2948 27.4199C49.1799 27.5955 49.0653 27.7714 48.9542 27.9499C48.8546 28.1095 48.7582 28.2713 48.6617 28.4332C48.558 28.6072 48.4558 28.7824 48.3559 28.9587C48.2617 29.125 48.1692 29.2919 48.0782 29.4602C47.9821 29.638 47.8889 29.8174 47.7969 29.9978C47.7098 30.1676 47.6226 30.3371 47.539 30.5092C47.448 30.6959 47.3615 30.8853 47.2747 31.0746C47.1974 31.2428 47.1179 31.4098 47.0439 31.5799C46.9439 31.8091 46.8504 32.0419 46.7565 32.2743C46.6544 32.5274 46.5557 32.7822 46.4606 33.0392C46.3827 33.2495 46.3026 33.4586 46.2295 33.6712H46.2317C45.2456 36.5437 44.707 39.6241 44.707 42.8311V56.8466C44.707 72.3606 57.0947 85.2246 72.6078 85.3852C77.5952 85.4369 82.288 84.1932 86.3708 81.9703C85.1395 82.1258 83.8839 82.2024 82.6085 82.1938C67.0527 82.0894 54.6047 69.1951 54.6047 53.638Z" fill="#FFC066"/>
<path d="M99.8295 29.5221H44.7163C38.5454 29.5221 33.543 24.5196 33.543 18.3488V7.51162C33.543 5.57225 35.1152 4 37.0546 4H86.1023C93.6835 4 99.8295 10.146 99.8295 17.7272V29.5221Z" fill="#A56021"/>
<path d="M58.2603 23.1373C51.8899 23.1373 46.7259 18.1349 46.7259 11.964V4H37.1689C35.1666 4 33.5439 5.57225 33.5439 7.51162V18.3488C33.5439 24.5196 38.7079 29.5221 45.0783 29.5221H99.8305V23.1373H58.2603Z" fill="#8C4C17"/>
<path d="M94.5086 20.5052C93.4852 20.5052 92.6363 19.696 92.5961 18.6642C92.4943 16.0503 91.6684 14.0451 90.1412 12.7043C87.366 10.2669 83.0206 10.5859 82.9781 10.591C81.9182 10.6883 80.9924 9.91036 80.8967 8.85687C80.8009 7.80307 81.5773 6.87153 82.6308 6.77544C82.8743 6.75309 88.6257 6.27551 92.6682 9.82544C95.0159 11.8868 96.2795 14.8103 96.4237 18.5151C96.4649 19.5724 95.6416 20.4624 94.5843 20.5036C94.5591 20.5049 94.5335 20.5052 94.5086 20.5052Z" fill="#BF6C0D"/>
<path d="M101.107 138.284C100.049 138.284 99.1914 137.426 99.1914 136.369V125.515C99.1914 124.457 100.049 123.599 101.107 123.599C102.164 123.599 103.022 124.457 103.022 125.515V136.369C103.022 137.427 102.164 138.284 101.107 138.284Z" fill="#EACF32"/>
<path d="M118.774 137.007C118.711 137.007 118.648 137.004 118.583 136.998C117.531 136.894 116.762 135.956 116.866 134.903C118.6 117.368 111.187 113.33 111.111 113.291C110.156 112.837 109.764 111.701 110.218 110.745C110.673 109.79 111.829 109.39 112.784 109.845C113.19 110.038 122.703 114.809 120.678 135.28C120.58 136.269 119.747 137.007 118.774 137.007Z" fill="#FFD551"/>
<path d="M59.0739 132.815C61.7774 132.815 63.9691 130.624 63.9691 127.92C63.9691 125.217 61.7774 123.025 59.0739 123.025C56.3704 123.025 54.1787 125.217 54.1787 127.92C54.1787 130.624 56.3704 132.815 59.0739 132.815Z" fill="#99AF17"/>
<path d="M55.8815 18.443C58.5851 18.443 60.7767 16.2513 60.7767 13.5478C60.7767 10.8442 58.5851 8.65257 55.8815 8.65257C53.178 8.65257 50.9863 10.8442 50.9863 13.5478C50.9863 16.2513 53.178 18.443 55.8815 18.443Z" fill="#8C4C17"/>
</svg>
