<svg width="82" height="82" viewBox="0 0 82 82" fill="none" xmlns="http://www.w3.org/2000/svg">
<path d="M0 20C0 8.95431 8.95431 0 20 0H62C73.0457 0 82 8.95431 82 20V62C82 73.0457 73.0457 82 62 82H20C8.95431 82 0 73.0457 0 62V20Z" fill="#FCD7AD"/>
<path d="M53.8542 75.2032C63.3745 52.4593 53.518 32.4111 53.518 32.4111L45.9932 16.8742V5.1759H35.0068V16.8742L27.482 32.4111C27.482 32.4111 17.6255 52.4595 27.1458 75.2032V75.2034V75.4682C27.1458 76.031 27.2667 76.5645 27.482 77.0443V77.0634H27.4905C28.0758 78.3488 29.3455 79.2398 30.8186 79.2398H50.1818C51.6547 79.2398 52.9245 78.349 53.5096 77.0634H53.5181V77.0443C53.7335 76.5645 53.8544 76.031 53.8544 75.4682L53.8542 75.2032Z" fill="#EACF32"/>
<path d="M40.5002 48.2976C45.3846 48.2976 49.3442 44.2313 49.3442 39.2152C49.3442 34.1991 45.3846 30.1328 40.5002 30.1328C35.6158 30.1328 31.6562 34.1991 31.6562 39.2152C31.6562 44.2313 35.6158 48.2976 40.5002 48.2976Z" fill="#FCF9DE"/>
<path d="M54.7891 35.5562H26.2116C26.2116 35.5562 23.9829 41.7464 23.9829 43.9123H57.018C57.018 41.7462 54.7891 35.5562 54.7891 35.5562Z" fill="#FCF9DE"/>
<path d="M34.2312 77.0633H34.2227V77.0442C34.0074 76.5644 33.8864 76.0308 33.8864 75.468V75.2032V75.2031C24.3661 52.4592 34.2227 32.411 34.2227 32.411L41.7474 16.874V5.1759H35.0068V16.8742L27.482 32.4111C27.482 32.4111 17.6255 52.4595 27.1458 75.2032V75.2034V75.4682C27.1458 76.031 27.2667 76.5645 27.482 77.0443V77.0634H27.4905C28.0758 78.3488 29.3455 79.2398 30.8186 79.2398H37.5592C36.0861 79.2395 34.8165 78.3487 34.2312 77.0633Z" fill="#CCC033"/>
<path d="M26.2118 35.5562C25.5045 37.5464 24.6379 40.4049 23.9829 43.9123H30.7236C31.3785 40.4049 32.2451 37.5464 32.9525 35.5562H26.2118Z" fill="#FFF4C1"/>
<path d="M31.6562 39.2152C31.6562 39.3827 31.6614 39.5489 31.6701 39.7139C32.4962 36.5995 33.3785 34.3444 33.8591 33.2206C32.489 34.8202 31.6562 36.9173 31.6562 39.2152Z" fill="#FFF4C1"/>
<path d="M48.0641 13.5613H32.9368C32.0499 13.5613 31.3311 12.8424 31.3311 11.9556V4.60572C31.3311 3.71888 32.0499 3 32.9368 3H48.0641C48.9509 3 49.6698 3.71888 49.6698 4.60572V11.9557C49.6698 12.8424 48.9509 13.5613 48.0641 13.5613Z" fill="#CCC033"/>
<path d="M38.0717 12.0776V4.48368C38.0717 3.66429 38.8262 3 39.7569 3H33.0163C32.0856 3 31.3311 3.66429 31.3311 4.48368V12.0776C31.3311 12.897 32.0856 13.5613 33.0163 13.5613H39.7569C38.8262 13.5613 38.0717 12.897 38.0717 12.0776Z" fill="#99AF17"/>
<path d="M47.0674 12.3396C46.5355 12.3396 46.104 11.9082 46.104 11.3762V5.17589C46.104 4.64392 46.5355 4.21246 47.0674 4.21246C47.5994 4.21246 48.0309 4.64392 48.0309 5.17589V11.3761C48.0309 11.9082 47.5994 12.3396 47.0674 12.3396Z" fill="#EACF32"/>
<path d="M50.2697 34.1842C49.753 34.1842 49.3254 33.7745 49.3076 33.2541C49.177 29.4787 44.7775 22.339 44.733 22.2674C44.4527 21.8151 44.5922 21.2213 45.0444 20.9409C45.4969 20.6607 46.0907 20.8001 46.3709 21.2523C46.5632 21.5628 51.0853 28.9053 51.2332 33.1877C51.2516 33.7196 50.8353 34.1655 50.3036 34.1839C50.2922 34.1841 50.281 34.1842 50.2697 34.1842Z" fill="#FCE575"/>
<path d="M39.7558 75.1042C41.1518 75.1042 42.2835 73.9725 42.2835 72.5764C42.2835 71.1804 41.1518 70.0487 39.7558 70.0487C38.3597 70.0487 37.228 71.1804 37.228 72.5764C37.228 73.9725 38.3597 75.1042 39.7558 75.1042Z" fill="#CCC033"/>
<path d="M35.7894 67.7924C37.1855 67.7924 38.3172 66.6607 38.3172 65.2647C38.3172 63.8687 37.1855 62.737 35.7894 62.737C34.3934 62.737 33.2617 63.8687 33.2617 65.2647C33.2617 66.6607 34.3934 67.7924 35.7894 67.7924Z" fill="#CCC033"/>
</svg>
