<svg width="82" height="82" viewBox="0 0 82 82" fill="none" xmlns="http://www.w3.org/2000/svg">
<path d="M0 20C0 8.95431 8.95431 0 20 0H62C73.0457 0 82 8.95431 82 20V62C82 73.0457 73.0457 82 62 82H20C8.95431 82 0 73.0457 0 62V20Z" fill="#FCD7AD"/>
<path d="M62.7132 19.0441V70.9587H48.4226V19.0441C48.4226 15.098 51.6217 11.8989 55.5678 11.8989C59.5141 11.8989 62.7132 15.098 62.7132 19.0441Z" fill="#BF6C0D"/>
<path d="M58.7435 12.6433C57.7867 12.1677 56.7089 11.8989 55.5678 11.8989C51.6217 11.8989 48.4226 15.098 48.4226 19.0441V70.9587H54.7741V19.0441C54.7741 16.239 56.3912 13.8129 58.7435 12.6433Z" fill="#A56021"/>
<path d="M61.0588 71.2062V69.1293C61.0588 65.1534 58.4996 61.9301 55.3426 61.9301C52.1856 61.9301 49.6265 65.1534 49.6265 69.1293V71.2062H61.0588Z" fill="#8C4C17"/>
<path d="M50.4882 72.0694C50.9036 72.0694 51.2051 71.6781 51.1021 71.2758C50.9748 70.7788 50.9062 70.2522 50.9062 69.7072C50.9062 66.6947 52.9974 64.244 55.5678 64.244C58.1382 64.244 60.2293 66.6947 60.2293 69.7072C60.2293 70.2522 60.1608 70.7788 60.0334 71.2758C59.9303 71.6781 60.232 72.0694 60.6473 72.0694H62.0211C62.324 72.0694 62.5878 71.8564 62.6446 71.559C62.7584 70.9628 62.8191 70.3434 62.8191 69.7072C62.8191 65.0136 59.5725 61.2089 55.5678 61.2089C51.563 61.2089 48.3164 65.0136 48.3164 69.7072C48.3164 70.3434 48.3773 70.963 48.491 71.559C48.5478 71.8564 48.8116 72.0694 49.1145 72.0694H50.4882Z" fill="#E58D23"/>
<path d="M60.6348 31.085C60.0861 31.085 59.6411 30.6402 59.6411 30.0913V25.5811C59.6411 25.0323 60.0861 24.5875 60.6348 24.5875C61.1834 24.5875 61.6284 25.0323 61.6284 25.5811V30.0913C61.6284 30.6402 61.1834 31.085 60.6348 31.085Z" fill="#E58D23"/>
<path d="M60.6348 58.2015C60.0861 58.2015 59.6411 57.7565 59.6411 57.2078V34.3966C59.6411 33.8478 60.0861 33.403 60.6348 33.403C61.1834 33.403 61.6284 33.8478 61.6284 34.3966V57.2078C61.6284 57.7565 61.1834 58.2015 60.6348 58.2015Z" fill="#E58D23"/>
<path d="M58.7432 20.6909C60.1151 20.6909 61.2273 19.5787 61.2273 18.2067C61.2273 16.8348 60.1151 15.7226 58.7432 15.7226C57.3712 15.7226 56.259 16.8348 56.259 18.2067C56.259 19.5787 57.3712 20.6909 58.7432 20.6909Z" fill="#A56021"/>
<path d="M33.0114 38.7981C40.9638 38.7981 47.4104 32.3515 47.4104 24.3991C47.4104 16.4467 40.9638 10 33.0114 10C25.059 10 18.6123 16.4467 18.6123 24.3991C18.6123 32.3515 25.059 38.7981 33.0114 38.7981Z" fill="#FFA730"/>
<path d="M33.0114 37.3653C25.8619 37.3653 20.0452 31.5486 20.0452 24.3991C20.0452 17.2496 25.8619 11.4329 33.0114 11.4329C40.1611 11.4329 45.9778 17.2496 45.9778 24.3991C45.9778 31.5486 40.1611 37.3653 33.0114 37.3653Z" fill="#FFB74B"/>
<path d="M33.168 29.8169C36.1445 29.8169 38.5574 27.404 38.5574 24.4275C38.5574 21.451 36.1445 19.0381 33.168 19.0381C30.1915 19.0381 27.7786 21.451 27.7786 24.4275C27.7786 27.404 30.1915 29.8169 33.168 29.8169Z" fill="#FFD551"/>
<path d="M44.9965 25.4213H21.3394C20.7907 25.4213 20.3457 24.9764 20.3457 24.4276C20.3457 23.8788 20.7907 23.434 21.3394 23.434H44.9965C45.5451 23.434 45.9901 23.8788 45.9901 24.4276C45.9901 24.9764 45.5453 25.4213 44.9965 25.4213Z" fill="#FFD551"/>
<path d="M41.5317 33.7853C41.2773 33.7853 41.0231 33.6883 40.829 33.4944L24.1008 16.7662C23.7128 16.3781 23.7128 15.749 24.1008 15.361C24.4889 14.9729 25.1182 14.9729 25.506 15.361L42.2342 32.0892C42.6222 32.4772 42.6222 33.1063 42.2342 33.4944C42.0405 33.6883 41.7861 33.7853 41.5317 33.7853Z" fill="#FFD551"/>
<path d="M33.1682 37.25C32.6196 37.25 32.1746 36.8051 32.1746 36.2563V12.599C32.1746 12.0502 32.6196 11.6053 33.1682 11.6053C33.7169 11.6053 34.1619 12.0502 34.1619 12.599V36.2561C34.1619 36.805 33.7169 37.25 33.1682 37.25Z" fill="#FFD551"/>
<path d="M24.8035 33.7853C24.5491 33.7853 24.2949 33.6883 24.1008 33.4944C23.7128 33.1063 23.7128 32.4772 24.1008 32.0892L40.829 15.361C41.2171 14.9729 41.8464 14.9729 42.2342 15.361C42.6222 15.749 42.6222 16.3781 42.2342 16.7662L25.506 33.4944C25.3121 33.6883 25.0577 33.7853 24.8035 33.7853Z" fill="#FFD551"/>
<path d="M76.9071 28.5032L40.198 65.2124L30.093 55.1074L66.8022 18.3982C69.5925 15.6079 74.1166 15.6079 76.9071 18.3982C79.6975 21.1886 79.6975 25.7127 76.9071 28.5032Z" fill="#BF6C0D"/>
<path d="M78.6262 21.1702C78.2858 20.1573 77.7138 19.2051 76.907 18.3982C74.1166 15.6079 69.5925 15.6079 66.8021 18.3982L30.093 55.1074L34.5842 59.5985L71.2933 22.8894C73.2768 20.9057 76.1361 20.3339 78.6262 21.1702Z" fill="#A56021"/>
<path d="M38.8539 64.2177L40.3225 62.749C43.1339 59.9377 43.6034 55.8488 41.3712 53.6165C39.1388 51.3841 35.05 51.8536 32.2386 54.6652L30.77 56.1338L38.8539 64.2177Z" fill="#8C4C17"/>
<path d="M30.7687 57.3535C31.0623 57.6471 31.5523 57.5839 31.7638 57.2265C32.0251 56.785 32.3491 56.3642 32.7346 55.9788C34.8647 53.8487 38.0763 53.5945 39.8939 55.4121C41.7115 57.2296 41.4572 60.4413 39.3272 62.5714C38.9418 62.9567 38.521 63.2807 38.0795 63.5422C37.7221 63.7537 37.6587 64.2437 37.9525 64.5373L38.9238 65.5086C39.1379 65.7228 39.4751 65.7589 39.7256 65.5886C40.2276 65.2475 40.7087 64.8525 41.1585 64.4025C44.4773 61.0837 44.8719 56.0977 42.0402 53.2659C39.2084 50.4342 34.2224 50.8288 30.9036 54.1477C30.4537 54.5976 30.0587 55.0787 29.7175 55.5805C29.5473 55.8309 29.5834 56.1683 29.7975 56.3824L30.7687 57.3535Z" fill="#E58D23"/>
<path d="M47.9556 54.0198C47.7012 54.0198 47.447 53.9227 47.2529 53.7288C46.8649 53.3408 46.8649 52.7116 47.2529 52.3236L63.383 36.1936C63.771 35.8056 64.4001 35.8056 64.7881 36.1936C65.1762 36.5816 65.1762 37.2108 64.7881 37.5988L48.6581 53.7288C48.4642 53.9227 48.21 54.0198 47.9556 54.0198Z" fill="#E58D23"/>
<path d="M74.4446 27.4591C75.8165 27.4591 76.9287 26.3469 76.9287 24.9749C76.9287 23.603 75.8165 22.4908 74.4446 22.4908C73.0726 22.4908 71.9604 23.603 71.9604 24.9749C71.9604 26.3469 73.0726 27.4591 74.4446 27.4591Z" fill="#A56021"/>
<path d="M25.4666 42.9306C28.0178 40.0684 29.2326 37.064 28.2023 35.8899C27.0944 34.6271 23.7948 35.9412 20.7022 38.827C20.5786 34.7357 19.2665 31.4653 17.6328 31.3586C16.0163 31.253 14.6535 34.283 14.4269 38.2899C11.5647 35.7387 8.56036 34.5239 7.38603 35.5542C6.12243 36.6628 7.43886 39.9657 10.3284 43.0599C6.30427 43.2093 3.10817 44.5092 3.00268 46.1235C2.89702 47.7401 5.92701 49.1029 9.93376 49.3294C7.38255 52.1916 6.16781 55.196 7.19806 56.3701C8.30599 57.6329 11.6056 56.3188 14.6982 53.433C14.8217 57.5243 16.1338 60.7945 17.7676 60.9014C19.3841 61.007 20.7469 57.977 20.9734 53.9701C23.8357 56.5213 26.84 57.7361 28.0143 56.7058C29.2779 55.5972 27.9615 52.2943 25.0719 49.2001C29.0961 49.0507 32.2922 47.7508 32.3977 46.1363C32.5033 44.5199 29.4733 43.157 25.4666 42.9306Z" fill="#8C4C17"/>
<path d="M17.8464 59.2613C17.3543 58.8274 16.3898 56.8451 16.2855 53.3852L16.1797 49.8791L13.615 52.2723C11.4133 54.3268 9.39531 55.2625 8.45233 55.2625C8.43924 55.2625 8.42699 55.2624 8.41573 55.262C8.39221 54.6847 8.92332 52.8499 11.1195 50.386L13.3088 47.9298L10.0238 47.7442C6.71061 47.5567 5.03001 46.627 4.64331 46.2027C5.07141 45.7206 7.00887 44.7722 10.3876 44.6466L13.8625 44.5176L11.4891 41.9762C9.16577 39.4882 8.45398 37.4317 8.4881 36.7764C8.50035 36.7759 8.5136 36.7757 8.52801 36.7757C9.40176 36.7757 11.2897 37.6205 13.3706 39.4753L15.8267 41.6647L16.0124 38.3797C16.1999 35.0655 17.1301 33.385 17.5542 32.9988C18.0462 33.4327 19.0107 35.4152 19.1151 38.875L19.2211 42.3811L21.7855 39.9879C23.9873 37.9333 26.0053 36.9976 26.9482 36.9976C26.9613 36.9976 26.9736 36.9978 26.9848 36.9981C27.0084 37.5755 26.4772 39.4102 24.2811 41.8742L22.0917 44.3303L25.3768 44.516C28.69 44.7033 30.3706 45.6332 30.7573 46.0575C30.3292 46.5396 28.3917 47.488 25.0129 47.6135L21.5381 47.7425L23.9115 50.284C26.2348 52.7719 26.9466 54.8285 26.9125 55.4838C26.9002 55.4843 26.8729 55.4845 26.8727 55.4845C25.999 55.4845 24.1107 54.6395 22.03 52.7848L19.5738 50.5955L19.3882 53.8805C19.2009 57.1947 18.2705 58.8751 17.8464 59.2613Z" fill="#A56021"/>
<path d="M21.1669 44.7018C22.3056 43.4243 22.8478 42.0832 22.3881 41.559C21.8935 40.9953 20.4206 41.5819 19.0403 42.87C18.9851 41.0438 18.3994 39.5839 17.6702 39.5364C16.9486 39.4892 16.3403 40.8417 16.2391 42.6303C14.9616 41.4916 13.6205 40.9492 13.0964 41.4091C12.5323 41.904 13.1201 43.3782 14.4098 44.7594C12.6136 44.8261 11.1869 45.4063 11.1399 46.127C11.0927 46.8486 12.4452 47.4569 14.2338 47.558C13.0951 48.8355 12.5528 50.1767 13.0126 50.7008C13.5071 51.2645 14.98 50.6779 16.3604 49.3898C16.4155 51.216 17.0013 52.6759 17.7305 52.7234C18.452 52.7706 19.0603 51.4181 19.1615 49.6295C20.439 50.7682 21.7801 51.3106 22.3043 50.8507C22.8683 50.3558 22.2806 48.8816 20.991 47.5004C22.7872 47.4337 24.2139 46.8535 24.2609 46.1328C24.3078 45.4112 22.9554 44.803 21.1669 44.7018Z" fill="#8C4C17"/>
</svg>
