<svg width="82" height="82" viewBox="0 0 82 82" fill="none" xmlns="http://www.w3.org/2000/svg">
<path d="M0 20C0 8.95431 8.95431 0 20 0H62C73.0457 0 82 8.95431 82 20V62C82 73.0457 73.0457 82 62 82H20C8.95431 82 0 73.0457 0 62V20Z" fill="#FCD7AD"/>
<path d="M47.3092 19.0911C47.0223 18.1387 46.153 17.4887 45.169 17.4887H19.049C18.065 17.4887 17.1957 18.1387 16.9088 19.0913C15.0803 25.1622 8.87742 47.1668 10.1777 62.2781H54.0403C55.3406 47.1666 49.1377 25.1617 47.3092 19.0911Z" fill="#FFD59A"/>
<path d="M25.8607 19.0911C26.1476 18.1387 27.0168 17.4887 28.0009 17.4887H19.049C18.065 17.4887 17.1955 18.1387 16.9086 19.0911C15.0801 25.1619 8.8772 47.1668 10.1777 62.2781L19.1298 62.2779C17.8295 47.1666 24.0322 25.1617 25.8607 19.0911Z" fill="#FFB74B"/>
<path d="M36.1021 16.6153H28.1155V7.89301C28.1155 5.66159 29.9032 3.8525 32.1088 3.8525C34.3141 3.8525 36.1021 5.66137 36.1021 7.89301V16.6153Z" fill="#CCC033"/>
<path d="M34.0111 4.33959C33.4455 4.0289 32.7976 3.8525 32.1088 3.8525C29.9032 3.8525 28.1155 5.66159 28.1155 7.89301V16.6153H31.9201V7.89301C31.9203 6.35837 32.7658 5.02369 34.0111 4.33959Z" fill="#99AF17"/>
<path d="M40.6059 48.7859L34.2318 51.0153L19.3758 7.52752C18.7675 5.74651 19.7009 3.80381 21.4612 3.1881C23.2214 2.57262 25.1414 3.51713 25.7499 5.29814L40.6059 48.7859Z" fill="#F9BB32"/>
<path d="M23.1945 3.06401C22.6339 2.95508 22.0392 2.98611 21.4609 3.18833C19.7007 3.80381 18.767 5.74674 19.3755 7.52775L34.2315 51.0155L37.4044 49.9059L22.5484 6.41816C22.1399 5.22183 22.4291 3.95485 23.1945 3.06401Z" fill="#DB9C2E"/>
<path d="M45.8052 17.4885H18.0538C17.5594 17.4885 17.1586 17.083 17.1586 16.5827V15.0209C17.1586 13.145 18.6616 11.6242 20.5156 11.6242H43.3434C45.1974 11.6242 46.7005 13.145 46.7005 15.0209V16.5827C46.7005 17.083 46.2996 17.4885 45.8052 17.4885Z" fill="#CCC033"/>
<path d="M14.5163 60.1633C14.8585 48.7893 17.5571 34.4459 20.4798 22.9353C20.6181 22.3907 21.0567 22.0175 21.554 22.0175H42.6635C43.1608 22.0175 43.5994 22.3907 43.7378 22.9353C46.6602 34.4454 49.359 48.7888 49.701 60.1633C49.7357 61.3191 48.925 62.2777 47.9105 62.2777H16.3068C15.2923 62.2779 14.4817 61.3193 14.5163 60.1633Z" fill="#FCF9DE"/>
<path d="M26.1106 16.5827V15.0209C26.1106 13.145 27.6137 11.6242 29.4677 11.6242H20.5156C18.6616 11.6242 17.1586 13.145 17.1586 15.0209V16.5827C17.1586 17.083 17.5594 17.4885 18.0538 17.4885H27.0059C26.5115 17.4885 26.1106 17.083 26.1106 16.5827Z" fill="#99AF17"/>
<path d="M23.4684 60.1633C23.8106 48.7893 26.5092 34.4459 29.4319 22.9353C29.5702 22.3907 30.0088 22.0175 30.5061 22.0175H21.554C21.0567 22.0175 20.6181 22.3907 20.4798 22.9353C17.5571 34.4459 14.8585 48.7893 14.5163 60.1633C14.4817 61.3191 15.2923 62.2777 16.3068 62.2777H25.2589C24.2444 62.2779 23.4337 61.3193 23.4684 60.1633Z" fill="#FFF4C1"/>
<path d="M28.8748 60.5671C30.7289 60.5671 32.2319 59.0463 32.2319 57.1704C32.2319 55.2944 30.7289 53.7736 28.8748 53.7736C27.0208 53.7736 25.5178 55.2944 25.5178 57.1704C25.5178 59.0463 27.0208 60.5671 28.8748 60.5671Z" fill="#FFF4C1"/>
<path d="M33.4961 54.0966C35.3502 54.0966 36.8532 52.5758 36.8532 50.6998C36.8532 48.8239 35.3502 47.3031 33.4961 47.3031C31.6421 47.3031 30.1391 48.8239 30.1391 50.6998C30.1391 52.5758 31.6421 54.0966 33.4961 54.0966Z" fill="#FFF4C1"/>
<path d="M30.1391 46.2633C31.9931 46.2633 33.4961 44.7425 33.4961 42.8666C33.4961 40.9906 31.9931 39.4698 30.1391 39.4698C28.285 39.4698 26.782 40.9906 26.782 42.8666C26.782 44.7425 28.285 46.2633 30.1391 46.2633Z" fill="#FFF4C1"/>
<path d="M45.9442 55.1323C45.9028 55.1323 45.861 55.1303 45.8189 55.1264C45.0803 55.0574 44.537 54.3955 44.6054 53.6484C44.9163 50.251 42.8233 39.9313 41.9905 36.2418C41.8256 35.5102 42.2777 34.7819 43.0008 34.6148C43.7228 34.4479 44.4439 34.9053 44.609 35.637C44.735 36.1958 47.6935 49.3774 47.2799 53.8991C47.2154 54.6036 46.6302 55.1323 45.9442 55.1323Z" fill="#FFD59A"/>
<path d="M42.1781 31.8963C41.5671 31.8963 41.0145 31.4715 40.8708 30.8433L39.9584 26.8503C39.7912 26.1191 40.2417 25.3895 40.9642 25.2206C41.6862 25.0517 42.4079 25.5073 42.5749 26.2382L43.4873 30.2312C43.6543 30.9624 43.204 31.692 42.4816 31.861C42.3799 31.8847 42.2781 31.8963 42.1781 31.8963Z" fill="#FFD59A"/>
<path d="M47.6939 67.2935H16.5239C13.0191 67.2935 10.1777 64.4187 10.1777 60.8723V60.6928H54.04V60.8723C54.04 64.4185 51.1989 67.2935 47.6939 67.2935Z" fill="#E58D23"/>
<path d="M23.6058 60.8723V60.6928H10.1777V60.8723C10.1777 64.4185 13.0189 67.2935 16.5239 67.2935H29.952C26.447 67.2935 23.6058 64.4185 23.6058 60.8723Z" fill="#BF6C0D"/>
<path d="M66.0638 65.3456L62.3335 51.2592C34.579 53.5814 17.2705 63.4766 17.2705 63.4766L21.0176 77.6264L21.2754 77.5565C23.7214 77.4829 42.4126 76.5647 65.7252 65.5054L66.0806 65.4091L66.0638 65.3456Z" fill="#EACF32"/>
<path d="M43.8278 71.2488C53.0166 68.7575 59.709 63.8809 58.7757 60.3564C57.8424 56.832 49.6367 55.9944 40.4479 58.4857C31.2591 60.9769 24.5667 65.8536 25.5 69.378C26.4333 72.9025 34.639 73.74 43.8278 71.2488Z" fill="#FCF9DE"/>
<path d="M70.9843 65.0395L66.7628 49.0984C66.6674 48.7381 66.1831 48.6062 65.8354 48.8459L62.3335 51.2592L66.0806 65.4091L70.3059 65.7275C70.7255 65.7591 71.0797 65.3997 70.9843 65.0395Z" fill="#F9BB32"/>
<path d="M17.2413 79.6102L13.0198 63.6691C12.9243 63.3088 13.2199 62.9655 13.5858 63.0116L17.2705 63.4766L21.0176 77.6264L18.0563 79.8932C17.7622 80.1183 17.3366 79.9704 17.2413 79.6102Z" fill="#F9BB32"/>
<path d="M31.9638 70.9976C31.3412 71.1664 30.814 71.1592 30.3819 70.9759C30.0187 70.8247 29.7967 70.5964 29.7159 70.2914C29.6745 70.1352 29.6867 69.993 29.7527 69.8648C29.8186 69.7366 29.9335 69.6502 30.0978 69.6057C30.3183 69.5459 30.5104 69.6162 30.6737 69.8164C30.8941 70.0835 31.2508 70.1503 31.7434 70.0168C32.1648 69.9025 32.5483 69.6989 32.8937 69.4059C33.2525 69.104 33.4016 68.839 33.3412 68.6108C33.2584 68.2983 33.0764 68.1271 32.7953 68.0969C32.5947 68.0742 32.2197 68.1307 31.6699 68.2666C31.2431 68.3717 30.8419 68.3939 30.4661 68.3337C29.9582 68.2509 29.657 68.0161 29.5625 67.6298C29.4418 67.1443 29.5793 66.6319 29.975 66.0926C30.3706 65.5534 30.8712 65.2017 31.4766 65.0375C31.7167 64.9724 32.0282 64.9479 32.4107 64.9637C32.8862 64.9838 33.1479 65.0842 33.1958 65.2652C33.23 65.3942 33.216 65.5202 33.1541 65.6433C33.0854 65.7815 32.974 65.8716 32.8196 65.9135C32.7045 65.9447 32.5257 65.9665 32.2835 65.979C32.0411 65.9916 31.8612 66.0137 31.7435 66.0456C31.4279 66.1338 31.148 66.2922 30.9039 66.5205C30.6505 66.754 30.5478 66.9614 30.5957 67.1423C30.6207 67.2366 30.6859 67.3019 30.7915 67.3385C30.897 67.3751 31.0425 67.3815 31.228 67.3577C31.5463 67.29 31.8634 67.2227 32.1793 67.1555C32.7346 67.0501 33.2058 67.0886 33.5929 67.2707C34.0196 67.4738 34.3028 67.8383 34.4421 68.3642C34.6115 69.004 34.3795 69.5866 33.7462 70.1116C33.264 70.511 32.6697 70.8062 31.9638 70.9976Z" fill="#FCDA4F"/>
<path d="M39.0973 68.1307C38.9834 68.4248 38.8218 68.6877 38.6127 68.9199C38.3565 69.2021 38.0653 69.3873 37.7393 69.4756C37.1142 69.6451 36.6182 69.6517 36.251 69.4954C35.4752 69.1652 34.9223 68.3764 34.592 67.1291C34.5604 67.0097 34.5195 66.8303 34.4691 66.5906C34.4188 66.351 34.3778 66.1714 34.3462 66.0521C34.321 65.957 34.2859 65.8145 34.2408 65.6244C34.1956 65.4343 34.1605 65.2917 34.1354 65.1967C34.0838 65.002 34.0707 64.8082 34.0959 64.6159C34.1308 64.3611 34.2341 64.2103 34.4056 64.1638C34.5403 64.1273 34.6709 64.1387 34.7969 64.1982C34.934 64.2599 35.0219 64.3635 35.0605 64.5091C35.0972 64.6475 35.1507 64.8573 35.2212 65.1387C35.2919 65.4201 35.3458 65.631 35.383 65.7718C35.4139 65.8882 35.4543 66.0659 35.5044 66.3046C35.5546 66.5433 35.595 66.721 35.6259 66.8375C35.7255 67.2136 35.8621 67.5512 36.0359 67.85C36.2411 68.2081 36.4632 68.4366 36.7022 68.5357C36.8264 68.5878 37.0826 68.5639 37.4712 68.4637C38.1209 68.2982 38.4094 67.622 38.3366 66.4349C38.3001 65.8203 38.1422 64.9859 37.8631 63.9319C37.8263 63.793 37.8313 63.6482 37.878 63.4973C37.943 63.2963 38.0771 63.1682 38.2806 63.113C38.4473 63.0678 38.5887 63.0958 38.7049 63.1973C38.793 63.2717 38.8517 63.3649 38.8812 63.4765C39.1406 64.4561 39.2976 65.2323 39.352 65.8048C39.4388 66.6879 39.3539 67.4632 39.0973 68.1307Z" fill="#FCDA4F"/>
<path d="M44.9017 64.9025C44.9306 65.6867 44.7516 66.3693 44.3642 66.9499C43.9702 67.5353 43.4288 67.9211 42.7401 68.1079C42.0882 68.2846 41.553 68.243 41.1348 67.9829C40.7166 67.723 40.4153 67.2446 40.2307 66.5476C40.0626 65.9127 40.0446 65.2199 40.1767 64.469C40.3088 63.7182 40.5627 63.07 40.9384 62.5243C41.2022 62.1418 41.529 61.8978 41.9187 61.7921C42.1565 61.7276 42.5029 61.7267 42.9583 61.7893C43.498 61.8636 43.7988 62.0172 43.8606 62.2504C43.896 62.3844 43.8775 62.5176 43.8049 62.6503C43.7324 62.783 43.6224 62.8692 43.4755 62.909C43.402 62.929 43.221 62.903 42.9327 62.831C42.6443 62.7591 42.396 62.7512 42.1876 62.8077C41.967 62.8675 41.7329 63.1888 41.4854 63.7716C41.1239 64.6191 41.0513 65.4508 41.2674 66.2668C41.3771 66.681 41.5117 66.9462 41.6712 67.0624C41.84 67.184 42.107 67.1954 42.4722 67.0964C42.8473 66.9947 43.1484 66.7974 43.3756 66.5045C43.6166 66.1947 43.7516 65.802 43.7806 65.3263C43.2238 65.5251 42.7599 65.7771 42.3889 66.0824C42.3221 66.1377 42.2506 66.1756 42.1747 66.1962C42.0227 66.2374 41.8814 66.2146 41.7508 66.1277C41.6331 66.0507 41.5572 65.9476 41.5231 65.8188C41.4226 65.4393 41.7959 65.0537 42.6431 64.6618C43.1208 64.4419 43.693 64.2416 44.3596 64.0609C44.5068 64.021 44.6426 64.036 44.7675 64.1057C44.8924 64.1756 44.9735 64.2811 45.0109 64.4225C45.0588 64.6033 45.0224 64.7634 44.9017 64.9025Z" fill="#FCDA4F"/>
<path d="M50.3155 65.8986C50.1199 65.9437 49.8639 65.7659 49.5477 65.3652C49.3403 65.1078 49.1395 64.8007 48.9452 64.4441C48.7709 64.5205 48.4817 64.6282 48.0773 64.7671C47.6972 64.8993 47.4092 65.0119 47.2131 65.1049C47.1726 65.4082 47.0853 65.8719 46.951 66.4957C46.8904 66.7036 46.7645 66.8333 46.5735 66.8851C46.4387 66.9217 46.305 66.908 46.1725 66.8442C46.0399 66.7805 45.9547 66.6767 45.9166 66.5328C45.8831 66.4063 45.9483 65.9288 46.1125 65.1C46.0577 65.0326 46.024 64.9646 46.0112 64.8964C45.9894 64.7746 46.0837 64.6494 46.2938 64.5206C46.4803 63.8162 46.7002 63.0789 46.9533 62.3085C47.3171 61.2026 47.57 60.6302 47.7122 60.5917C47.9817 60.5186 48.2056 60.6346 48.3837 60.9398C48.5029 61.192 48.6856 61.5691 48.9315 62.0712C49.27 62.745 49.6691 63.5127 50.1285 64.3741C50.1639 64.439 50.2698 64.5857 50.446 64.8143C50.5908 65.0038 50.6772 65.1517 50.7054 65.2584C50.7435 65.4022 50.7221 65.5368 50.641 65.6625C50.5602 65.7883 50.4517 65.867 50.3155 65.8986ZM47.9334 62.4537C47.8302 62.838 47.6867 63.3619 47.5025 64.0258C47.6063 63.9712 47.7726 63.9047 48.0015 63.8267C48.2714 63.7351 48.4406 63.6744 48.5091 63.6453C48.3648 63.3388 48.173 62.9417 47.9334 62.4537Z" fill="#FCDA4F"/>
<path d="M55.3493 64.4622C55.2169 64.4981 55.0818 64.479 54.9439 64.4046C54.0147 63.9018 53.0693 63.6344 52.1072 63.6028C52.3253 64.3172 52.4448 64.7141 52.4658 64.7934C52.5033 64.9347 52.486 65.0678 52.4139 65.1923C52.3417 65.3168 52.2322 65.399 52.0852 65.4389C51.938 65.4788 51.8025 65.463 51.6786 65.3916C51.5546 65.3203 51.4738 65.2138 51.4364 65.0725C51.3872 64.8866 51.3159 64.6075 51.2226 64.2354C51.1293 63.8634 51.058 63.5843 51.0087 63.3983L50.2211 60.3943C50.1784 60.2331 50.1875 60.0738 50.2483 59.9164C50.3286 59.7139 50.4814 59.5916 50.7064 59.549C51.3139 59.4322 51.6253 59.373 51.6406 59.3715C51.995 59.3206 52.3086 59.3247 52.5815 59.3835C53.7693 59.633 54.4677 60.152 54.6765 60.9407C54.7626 61.2656 54.7289 61.5823 54.5755 61.8911C54.4221 62.1997 54.1487 62.499 53.7553 62.7891C54.502 62.98 55.0902 63.222 55.5198 63.5148C55.6317 63.5908 55.7038 63.6895 55.736 63.8111C55.7729 63.9501 55.7531 64.0835 55.6767 64.2119C55.6004 64.3404 55.4914 64.4237 55.3493 64.4622ZM51.7534 60.4214C51.7331 60.4242 51.5872 60.4532 51.3155 60.5082L51.8385 62.4835C51.9004 62.4694 51.9547 62.4559 52.0013 62.4433C52.6017 62.2805 53.0266 62.0843 53.2758 61.8545C53.3837 61.7562 53.4757 61.6395 53.5516 61.5046C53.6276 61.3698 53.6582 61.275 53.6438 61.2204C53.5703 60.9428 53.3253 60.722 52.909 60.5585C52.5135 60.4054 52.1284 60.3596 51.7534 60.4214Z" fill="#FCDA4F"/>
<path d="M15.1843 63.2133L13.5858 63.0116C13.2199 62.9655 12.9243 63.3088 13.0198 63.6691L17.2413 79.6102C17.3367 79.9705 17.7624 80.1182 18.0563 79.8932L19.341 78.9098L15.1843 63.2133Z" fill="#DB9C2E"/>
<path d="M25.6199 73.6583L25.3621 73.7282L22.0325 61.1548C18.9265 62.5303 17.2705 63.4766 17.2705 63.4766L21.0176 77.6264L21.2754 77.5565C23.7214 77.4829 42.4126 76.5647 65.7252 65.5054L66.0806 65.4091L66.0638 65.3456L65.6086 63.6273C44.4081 72.7807 27.9078 73.5894 25.6199 73.6583Z" fill="#CCC033"/>
<path d="M43.8278 71.2488C45.4966 70.7963 47.0825 70.2649 48.556 69.6775C43.3116 71.146 38.7254 72.0741 35.0452 72.6602C37.6946 72.5573 40.7043 72.0956 43.8278 71.2488Z" fill="#FFF4C1"/>
<path d="M69.8691 64.0777L65.6436 63.7593L66.0806 65.4091L70.3059 65.7275C70.7255 65.7591 71.0797 65.3997 70.9843 65.0395L70.5474 63.3897C70.6428 63.7501 70.2885 64.1093 69.8691 64.0777Z" fill="#DB9C2E"/>
<path d="M67.6362 61.8399C67.2508 61.9444 66.8545 61.7129 66.7512 61.3229L64.2882 52.0222C64.1849 51.6322 64.4138 51.2312 64.7992 51.1267C65.1846 51.0222 65.5809 51.2537 65.6842 51.6437L68.1472 60.9444C68.2505 61.3344 68.0217 61.7354 67.6362 61.8399Z" fill="#FFC34C"/>
<path d="M26.1629 64.6611C27.1481 64.394 27.7327 63.3694 27.4687 62.3725C27.2048 61.3757 26.1921 60.7841 25.2069 61.0512C24.2217 61.3183 23.6371 62.343 23.901 63.3398C24.165 64.3367 25.1777 64.9282 26.1629 64.6611Z" fill="#CCC033"/>
</svg>
