<svg width="31" height="31" viewBox="0 0 31 31" fill="none" xmlns="http://www.w3.org/2000/svg">
<path d="M15.5 31C23.9794 31 31 23.9642 31 15.5C31 7.02059 23.9642 0 15.4848 0C7.02059 0 0 7.02059 0 15.5C0 23.9642 7.03578 31 15.5 31ZM15.4696 18.0985C12.552 18.0681 10.2574 15.6368 10.2574 12.3696C10.2422 9.3 12.5672 6.74706 15.4696 6.74706C18.3873 6.74706 20.6819 9.3 20.6819 12.3696C20.6819 15.6368 18.4025 18.1289 15.4696 18.0985ZM15.4696 28.6902C11.9897 28.6902 8.46422 27.2618 6.13922 24.7848C7.78039 22.2015 11.3515 20.6819 15.4696 20.6819C19.5574 20.6819 23.1588 22.1711 24.8152 24.7848C22.475 27.2618 18.9647 28.6902 15.4696 28.6902Z" fill="#FCD7AD"/>
</svg>
