<svg width="33" height="51" viewBox="0 0 33 51" fill="none" xmlns="http://www.w3.org/2000/svg">
<path d="M29.4055 35.9963H27.0386L29.2737 42.2383C29.3005 42.3132 29.3062 42.3937 29.2895 42.4738C29.2468 42.6776 29.0506 42.8129 28.8424 42.8129H21.5742V35.9963H19.3459V45.0412H28.8693C30.3373 45.0412 31.5273 43.8511 31.5273 42.3831C31.5273 42.0777 31.4747 41.7746 31.3717 41.487L29.4055 35.9963Z" fill="#BF6C0D"/>
<path d="M32.8444 43.0825L30.1399 35.5301C29.7615 34.4732 28.76 33.7682 27.6375 33.7682H20.8186V46.6366H30.3419C31.81 46.6366 33 45.4466 33 43.9786C33 43.6731 32.9473 43.3699 32.8444 43.0825ZM30.7622 44.0691C30.7196 44.2729 30.5233 44.4082 30.3151 44.4082H23.0469V35.9963H27.6375C27.8185 35.9963 27.9811 36.1108 28.0421 36.2812L30.7465 43.8336C30.7734 43.9087 30.7789 43.989 30.7622 44.0691Z" fill="#F9BB32"/>
<path d="M28.8678 44.4082H23.0469V35.9963H27.4883C26.8388 34.6288 26.2378 33.7681 26.2378 33.7681H26.2287H20.8187V46.6366H28.0593C28.4458 45.9071 28.7061 45.159 28.8678 44.4082Z" fill="#DB9C2E"/>
<path d="M23.1696 33.7681H23.1603H14.9107H6.66116H6.6519C6.6519 33.7681 -0.502834 44.0019 7.88386 50.0265C8.45936 50.4958 9.1939 50.7775 9.99439 50.7775H19.8271C20.6276 50.7775 21.3621 50.4958 21.9376 50.0265C30.3243 44.002 23.1696 33.7681 23.1696 33.7681Z" fill="#FFEACF"/>
<path d="M11.5609 33.7681H6.66117H6.65203C6.65203 33.7681 -0.502713 44.002 7.88398 50.0266C8.45948 50.4959 9.19402 50.7775 9.99451 50.7775H14.9034C14.1029 50.7775 13.3684 50.4958 12.7929 50.0266C4.40618 44.002 11.5609 33.7681 11.5609 33.7681Z" fill="#FFD59A"/>
<path d="M19.8504 23.5411H9.85071V30.266H19.8504V23.5411Z" fill="#DB9C2E"/>
<path d="M20.0662 30.5767C19.9804 30.484 19.911 30.3788 19.8578 30.2661H9.82588C9.77258 30.3789 9.70301 30.4842 9.61684 30.5769L7.03847 33.3548C6.89294 33.5117 7.00315 33.768 7.21612 33.768H22.4601C22.6729 33.768 22.7832 33.5119 22.638 33.3551L20.0662 30.5767Z" fill="#F9BB32"/>
<path d="M10.7207 33.3548L13.3216 30.5769C13.5344 30.3496 13.653 30.0497 13.653 29.7382V23.5411H9.97123V29.7382C9.97123 30.0497 9.85272 30.3496 9.63986 30.5769L7.03893 33.3548C6.89213 33.5117 7.00329 33.7681 7.21807 33.7681H10.8998C10.685 33.7681 10.5739 33.5117 10.7207 33.3548Z" fill="#DB9C2E"/>
<path d="M13.6529 23.5411H9.85071V30.266H13.6529V23.5411Z" fill="#A56021"/>
<path d="M9.85071 30.266V30.2661H13.5324C13.6104 30.1025 13.6529 29.9226 13.6529 29.7382V23.5411H9.97113V29.7382C9.97123 29.9226 9.92868 30.1025 9.85071 30.266Z" fill="#BF6C0D"/>
<path d="M24.4368 19.0409C24.4473 18.8834 24.454 18.725 24.454 18.5653C24.454 18.4056 24.4473 18.2472 24.4368 18.0897V9.55067H5.38491V18.0897C5.37438 18.2472 5.36768 18.4056 5.36768 18.5653C5.36768 18.725 5.37438 18.8834 5.38491 19.0409V19.259H5.40416C5.81436 23.4621 9.91255 26.764 14.9108 26.764C19.9091 26.764 24.0072 23.462 24.4174 19.259H24.4367V19.0409H24.4368Z" fill="#FFEACF"/>
<path d="M18.2325 16.3414H11.5893C11.1193 16.3414 10.7383 15.9604 10.7383 15.4904V5.50079H19.0835V15.4903C19.0835 15.9604 18.7024 16.3414 18.2325 16.3414Z" fill="#FFD59A"/>
<path d="M11.3519 15.4086V11.7702H18.4699V15.4086C18.4699 15.5848 18.327 15.7277 18.1507 15.7277H11.6711C11.4948 15.7277 11.3519 15.5848 11.3519 15.4086Z" fill="#A56021"/>
<path d="M10.3131 19.259H10.2938V19.0409C10.2833 18.8835 10.2766 18.725 10.2766 18.5654C10.2766 18.4056 10.2833 18.2474 10.2938 18.0899V9.55078H5.38491V18.0899C5.37438 18.2474 5.36768 18.4058 5.36768 18.5654C5.36768 18.7251 5.37438 18.8835 5.38491 19.0409V19.259H5.40416C5.81436 23.4621 9.91255 26.764 14.9108 26.764C15.7598 26.764 16.5819 26.6667 17.3652 26.4879C13.5366 25.6142 10.6537 22.7481 10.3131 19.259Z" fill="#FFD59A"/>
<path d="M14.42 15.3595V5.50079H10.7383V15.3595C10.7383 15.9018 11.1778 16.3413 11.72 16.3413H15.4018C14.8596 16.3413 14.42 15.9018 14.42 15.3595Z" fill="#FFC34C"/>
<path d="M24.6722 9.55068H5.14964C3.9746 9.55068 3.02209 8.59818 3.02209 7.42313V2.56636H26.7997V7.42313C26.7997 8.59818 25.8472 9.55068 24.6722 9.55068Z" fill="#FFA730"/>
<path d="M7.93099 7.09623V2.56636H3.02209V7.09623C3.02209 8.4518 4.12097 9.55068 5.47654 9.55068H10.3854C9.02987 9.55068 7.93099 8.4518 7.93099 7.09623Z" fill="#E58D23"/>
<path d="M29.1835 5.13261H0.638265C0.28573 5.13261 0 4.84688 0 4.49434V0.638265C0 0.28573 0.28573 0 0.638265 0H29.1835C29.536 0 29.8218 0.28573 29.8218 0.638265V4.49434C29.8218 4.84688 29.5359 5.13261 29.1835 5.13261Z" fill="#BF6C0D"/>
<path d="M4.9089 4.39637V0.736452C4.9089 0.329664 5.23856 0.000106812 5.64524 0.000106812H0.736346C0.329664 0.000106812 0 0.329664 0 0.736452V4.39637C0 4.80305 0.329664 5.13271 0.736346 5.13271H5.64524C5.23856 5.13261 4.9089 4.80294 4.9089 4.39637Z" fill="#A56021"/>
<path d="M14.42 11.7702H11.3519V15.3595C11.3519 15.5629 11.5168 15.7277 11.7201 15.7277H14.4921C14.446 15.614 14.4201 15.4898 14.4201 15.3595V11.7702H14.42Z" fill="#8C4C17"/>
<path d="M6.71067 40.2024C6.22346 40.2024 5.80476 40.5593 5.7388 41.042C5.30553 44.211 6.36356 46.6677 8.95789 48.5314L9.00364 48.5643L9.04725 48.5999C9.23565 48.7536 9.55286 48.9367 9.99444 48.9367H19.8271C20.2686 48.9367 20.5859 48.7537 20.7743 48.5999L20.8179 48.5643L20.8637 48.5314C23.458 46.6677 24.516 44.211 24.0828 41.042C24.0167 40.5593 23.5981 40.2024 23.1109 40.2024H6.71067Z" fill="#FCF9DE"/>
<path d="M7.21085 18.4532C7.20979 18.4913 7.20862 18.5299 7.20862 18.5654C7.20862 18.6705 7.21298 18.7859 7.22181 18.918L7.22457 18.959L7.23628 19.0801C7.55615 22.3566 10.9274 24.9232 14.9109 24.9232C18.8944 24.9232 22.2656 22.3565 22.5855 19.0801L22.5972 18.959L22.6 18.918C22.6088 18.7858 22.6131 18.6705 22.6131 18.5654C22.6131 18.53 22.612 18.4914 22.6109 18.4532H7.21085Z" fill="#A56021"/>
<path d="M12.1452 19.0801L12.1335 18.959L12.1307 18.918C12.1219 18.7858 12.1175 18.6705 12.1175 18.5654C12.1175 18.53 12.1187 18.4914 12.1197 18.4532H7.21085C7.20979 18.4913 7.20862 18.5299 7.20862 18.5654C7.20862 18.6705 7.21298 18.7859 7.22181 18.918L7.22457 18.959L7.23628 19.0801C7.55615 22.3566 10.9274 24.9232 14.9109 24.9232C15.7654 24.9232 16.5913 24.8043 17.3653 24.5865C14.5308 23.7888 12.3964 21.6538 12.1452 19.0801Z" fill="#8C4C17"/>
<path d="M19.851 47.9877C19.6227 47.9877 19.4019 47.865 19.2871 47.6494C19.1217 47.3388 19.2389 46.953 19.5488 46.7868C19.7429 46.6821 24.2692 44.1579 21.4238 38.7841C21.2588 38.4725 21.3776 38.0862 21.6892 37.9213C22.0004 37.7566 22.3869 37.8752 22.5519 38.1868C24.3439 41.5714 23.5963 44.0431 22.6537 45.5206C21.6419 47.1064 20.2109 47.8806 20.1504 47.9127C20.0549 47.9637 19.9521 47.9877 19.851 47.9877Z" fill="#FFF4C1"/>
<path d="M22.3363 19.0915C21.9838 19.0915 21.698 18.8056 21.698 18.4532V11.4325C21.698 11.0801 21.9838 10.7942 22.3363 10.7942C22.6887 10.7942 22.9745 11.0801 22.9745 11.4325V18.4532C22.9745 18.8056 22.6888 19.0915 22.3363 19.0915Z" fill="#FCF9DE"/>
<path d="M26.7335 4.21649C26.7274 4.21649 26.7214 4.21638 26.7152 4.21627C26.3628 4.20638 26.0852 3.91267 26.0951 3.56024L26.1616 1.19781C26.1716 0.84549 26.4629 0.568376 26.8176 0.577737C27.17 0.58763 27.4476 0.881339 27.4377 1.23377L27.3712 3.5962C27.3615 3.94235 27.0777 4.21649 26.7335 4.21649Z" fill="#E58D23"/>
<path d="M22.9805 8.87996C22.6627 8.87996 22.3875 8.64285 22.3478 8.31935C22.3049 7.96948 22.5537 7.65109 22.9036 7.60811C23.4167 7.54514 23.7708 7.39355 23.9005 7.18143C24.0178 6.98995 23.9468 6.74486 23.946 6.74263C23.8248 6.41158 23.9951 6.045 24.3261 5.92405C24.6573 5.80289 25.0238 5.9733 25.1447 6.30435C25.1749 6.3869 25.4272 7.13218 24.9894 7.84768C24.6424 8.41488 23.993 8.7605 23.0591 8.87518C23.0327 8.87837 23.0064 8.87996 22.9805 8.87996Z" fill="#FFB74B"/>
<path d="M16.9154 15.0978C16.5629 15.0978 16.2771 14.812 16.2771 14.4596V11.4324C16.2771 11.08 16.5629 10.7941 16.9154 10.7941C17.2678 10.7941 17.5536 11.08 17.5536 11.4324V14.4596C17.5536 14.8121 17.2679 15.0978 16.9154 15.0978Z" fill="#FFEACF"/>
<path d="M31.0533 42.1981C30.7965 42.1981 30.5545 42.0421 30.4571 41.788L29.103 38.2508C28.977 37.9216 29.1417 37.5525 29.4709 37.4265C29.8005 37.3005 30.1691 37.4652 30.2952 37.7943L31.6493 41.3315C31.7754 41.6607 31.6107 42.0297 31.2814 42.1558C31.2062 42.1845 31.1291 42.1981 31.0533 42.1981Z" fill="#FFD551"/>
<path d="M19.8027 33.4996C19.5758 33.4996 19.3562 33.3783 19.2407 33.1648L18.3281 31.4766C18.1605 31.1665 18.276 30.7792 18.5861 30.6115C18.896 30.444 19.2834 30.5593 19.4511 30.8695L20.3637 32.5577C20.5313 32.8678 20.4159 33.2551 20.1058 33.4227C20.0092 33.4748 19.9052 33.4996 19.8027 33.4996Z" fill="#FFB74B"/>
<path d="M6.71067 40.2024C6.22346 40.2024 5.80487 40.5593 5.7388 41.0421C5.30553 44.2111 6.36356 46.6678 8.95789 48.5315L9.00364 48.5644L9.04725 48.5999C9.23565 48.7536 9.55286 48.9367 9.99444 48.9367H11.4866C8.73088 46.2611 8.41016 43.0088 8.91822 40.2025H6.71067V40.2024Z" fill="#FFF4C1"/>
<path d="M12.9219 39.791C14.1361 39.791 15.1204 38.8067 15.1204 37.5925C15.1204 36.3783 14.1361 35.394 12.9219 35.394C11.7077 35.394 10.7234 36.3783 10.7234 37.5925C10.7234 38.8067 11.7077 39.791 12.9219 39.791Z" fill="#FFD59A"/>
</svg>
