<svg width="39" height="35" viewBox="0 0 39 35" fill="none" xmlns="http://www.w3.org/2000/svg">
<path d="M37.6191 7.44454L23.3884 0.957491C21.9057 0.29141 20.6992 -0.02715 19.4927 0.00181C18.3008 -0.02715 17.0943 0.29141 15.5971 0.957491L1.38092 7.44454C0.450615 7.86446 0 8.60294 0 9.34142C0 10.0799 0.450615 10.8039 1.38092 11.2383L7.36974 13.9605L16.571 9.65998C16.4838 9.55862 16.4547 9.44278 16.4547 9.34142C16.4547 8.42918 17.9955 7.73414 19.5509 7.73414C21.1208 7.73414 22.6325 8.42918 22.6325 9.34142C22.6325 10.2826 21.1208 10.9921 19.5509 10.9921C19.0712 10.9921 18.5915 10.9197 18.17 10.8039L9.39023 14.9017L15.5971 17.7398C17.0943 18.4204 18.3008 18.71 19.4927 18.6955C20.6992 18.71 21.9057 18.4204 23.3884 17.7398L37.6191 11.2383C38.5494 10.8039 39 10.0799 39 9.34142C39 8.60294 38.5494 7.86446 37.6191 7.44454ZM9.33209 17.0448V25.8486C11.7741 27.3256 15.2628 28.2234 19.4927 28.2234C28.069 28.2234 33.5926 24.5599 33.5926 20.2304V15.2493L24.2169 19.5209C22.5162 20.3028 20.9754 20.6937 19.4927 20.6793C18.0246 20.6937 16.4693 20.3028 14.7685 19.5209L9.33209 17.0448ZM5.40738 15.2493V20.2304C5.40738 21.4901 6.13418 23.054 7.44241 24.3862V16.1905L5.40738 15.2493ZM6.29407 29.3094V33.1176C6.29407 34.2615 7.03541 35 8.18375 35H8.57622C9.72456 35 10.4659 34.2615 10.4659 33.1176V29.3094C10.4659 28.4406 10.0298 27.8179 9.33209 27.5573V25.8486C8.60529 25.4142 7.96571 24.9219 7.44241 24.3862V27.5573C6.73015 27.8034 6.29407 28.4406 6.29407 29.3094Z" fill="#FCD7AD"/>
</svg>
